<?xml version="1.0" encoding="utf-8" standalone="no"?>
<!DOCTYPE svg PUBLIC "-//W3C//DTD SVG 1.1//EN"
  "http://www.w3.org/Graphics/SVG/1.1/DTD/svg11.dtd">
<svg height="288pt" version="1.1" viewBox="0 0 432 288" width="432pt" xmlns="http://www.w3.org/2000/svg" xmlns:xlink="http://www.w3.org/1999/xlink">
 <metadata>
  <rdf:RDF xmlns:cc="http://creativecommons.org/ns#" xmlns:dc="http://purl.org/dc/elements/1.1/" xmlns:rdf="http://www.w3.org/1999/02/22-rdf-syntax-ns#">
   <cc:Work>
    <dc:type rdf:resource="http://purl.org/dc/dcmitype/StillImage"/>
    <dc:date>2023-04-13T11:26:09.975781</dc:date>
    <dc:format>image/svg+xml</dc:format>
    <dc:creator>
     <cc:Agent>
      <dc:title>Matplotlib v3.4.3, https://matplotlib.org/</dc:title>
     </cc:Agent>
    </dc:creator>
   </cc:Work>
  </rdf:RDF>
 </metadata>
 <defs>
  <style type="text/css">*{stroke-linecap:butt;stroke-linejoin:round;}</style>
 </defs>
 <g id="figure_1">
  <g id="patch_1">
   <path d="M 0 288 
L 432 288 
L 432 0 
L 0 0 
z
" style="fill:none;"/>
  </g>
  <g id="axes_1">
   <g id="patch_2">
    <path d="M 54 252 
L 388.8 252 
L 388.8 34.56 
L 54 34.56 
z
" style="fill:#ffffff;"/>
   </g>
   <g id="matplotlib.axis_1">
    <g id="xtick_1">
     <g id="line2d_1">
      <path clip-path="url(#pe3de00cd2b)" d="M 69.218182 252 
L 69.218182 34.56 
" style="fill:none;stroke:#b0b0b0;stroke-linecap:square;stroke-width:0.8;"/>
     </g>
     <g id="line2d_2">
      <defs>
       <path d="M 0 0 
L 0 3.5 
" id="m527ade9568" style="stroke:#000000;stroke-width:0.8;"/>
      </defs>
      <g>
       <use style="stroke:#000000;stroke-width:0.8;" x="69.218182" xlink:href="#m527ade9568" y="252"/>
      </g>
     </g>
     <g id="text_1">
      <!-- 0 -->
      <g transform="translate(66.036932 266.598437)scale(0.1 -0.1)">
       <defs>
        <path d="M 2034 4250 
Q 1547 4250 1301 3770 
Q 1056 3291 1056 2328 
Q 1056 1369 1301 889 
Q 1547 409 2034 409 
Q 2525 409 2770 889 
Q 3016 1369 3016 2328 
Q 3016 3291 2770 3770 
Q 2525 4250 2034 4250 
z
M 2034 4750 
Q 2819 4750 3233 4129 
Q 3647 3509 3647 2328 
Q 3647 1150 3233 529 
Q 2819 -91 2034 -91 
Q 1250 -91 836 529 
Q 422 1150 422 2328 
Q 422 3509 836 4129 
Q 1250 4750 2034 4750 
z
" id="DejaVuSans-30" transform="scale(0.015625)"/>
       </defs>
       <use xlink:href="#DejaVuSans-30"/>
      </g>
     </g>
    </g>
    <g id="xtick_2">
     <g id="line2d_3">
      <path clip-path="url(#pe3de00cd2b)" d="M 136.929781 252 
L 136.929781 34.56 
" style="fill:none;stroke:#b0b0b0;stroke-linecap:square;stroke-width:0.8;"/>
     </g>
     <g id="line2d_4">
      <g>
       <use style="stroke:#000000;stroke-width:0.8;" x="136.929781" xlink:href="#m527ade9568" y="252"/>
      </g>
     </g>
     <g id="text_2">
      <!-- 200000 -->
      <g transform="translate(117.842281 266.598437)scale(0.1 -0.1)">
       <defs>
        <path d="M 1228 531 
L 3431 531 
L 3431 0 
L 469 0 
L 469 531 
Q 828 903 1448 1529 
Q 2069 2156 2228 2338 
Q 2531 2678 2651 2914 
Q 2772 3150 2772 3378 
Q 2772 3750 2511 3984 
Q 2250 4219 1831 4219 
Q 1534 4219 1204 4116 
Q 875 4013 500 3803 
L 500 4441 
Q 881 4594 1212 4672 
Q 1544 4750 1819 4750 
Q 2544 4750 2975 4387 
Q 3406 4025 3406 3419 
Q 3406 3131 3298 2873 
Q 3191 2616 2906 2266 
Q 2828 2175 2409 1742 
Q 1991 1309 1228 531 
z
" id="DejaVuSans-32" transform="scale(0.015625)"/>
       </defs>
       <use xlink:href="#DejaVuSans-32"/>
       <use x="63.623047" xlink:href="#DejaVuSans-30"/>
       <use x="127.246094" xlink:href="#DejaVuSans-30"/>
       <use x="190.869141" xlink:href="#DejaVuSans-30"/>
       <use x="254.492188" xlink:href="#DejaVuSans-30"/>
       <use x="318.115234" xlink:href="#DejaVuSans-30"/>
      </g>
     </g>
    </g>
    <g id="xtick_3">
     <g id="line2d_5">
      <path clip-path="url(#pe3de00cd2b)" d="M 204.641379 252 
L 204.641379 34.56 
" style="fill:none;stroke:#b0b0b0;stroke-linecap:square;stroke-width:0.8;"/>
     </g>
     <g id="line2d_6">
      <g>
       <use style="stroke:#000000;stroke-width:0.8;" x="204.641379" xlink:href="#m527ade9568" y="252"/>
      </g>
     </g>
     <g id="text_3">
      <!-- 400000 -->
      <g transform="translate(185.553879 266.598437)scale(0.1 -0.1)">
       <defs>
        <path d="M 2419 4116 
L 825 1625 
L 2419 1625 
L 2419 4116 
z
M 2253 4666 
L 3047 4666 
L 3047 1625 
L 3713 1625 
L 3713 1100 
L 3047 1100 
L 3047 0 
L 2419 0 
L 2419 1100 
L 313 1100 
L 313 1709 
L 2253 4666 
z
" id="DejaVuSans-34" transform="scale(0.015625)"/>
       </defs>
       <use xlink:href="#DejaVuSans-34"/>
       <use x="63.623047" xlink:href="#DejaVuSans-30"/>
       <use x="127.246094" xlink:href="#DejaVuSans-30"/>
       <use x="190.869141" xlink:href="#DejaVuSans-30"/>
       <use x="254.492188" xlink:href="#DejaVuSans-30"/>
       <use x="318.115234" xlink:href="#DejaVuSans-30"/>
      </g>
     </g>
    </g>
    <g id="xtick_4">
     <g id="line2d_7">
      <path clip-path="url(#pe3de00cd2b)" d="M 272.352978 252 
L 272.352978 34.56 
" style="fill:none;stroke:#b0b0b0;stroke-linecap:square;stroke-width:0.8;"/>
     </g>
     <g id="line2d_8">
      <g>
       <use style="stroke:#000000;stroke-width:0.8;" x="272.352978" xlink:href="#m527ade9568" y="252"/>
      </g>
     </g>
     <g id="text_4">
      <!-- 600000 -->
      <g transform="translate(253.265478 266.598437)scale(0.1 -0.1)">
       <defs>
        <path d="M 2113 2584 
Q 1688 2584 1439 2293 
Q 1191 2003 1191 1497 
Q 1191 994 1439 701 
Q 1688 409 2113 409 
Q 2538 409 2786 701 
Q 3034 994 3034 1497 
Q 3034 2003 2786 2293 
Q 2538 2584 2113 2584 
z
M 3366 4563 
L 3366 3988 
Q 3128 4100 2886 4159 
Q 2644 4219 2406 4219 
Q 1781 4219 1451 3797 
Q 1122 3375 1075 2522 
Q 1259 2794 1537 2939 
Q 1816 3084 2150 3084 
Q 2853 3084 3261 2657 
Q 3669 2231 3669 1497 
Q 3669 778 3244 343 
Q 2819 -91 2113 -91 
Q 1303 -91 875 529 
Q 447 1150 447 2328 
Q 447 3434 972 4092 
Q 1497 4750 2381 4750 
Q 2619 4750 2861 4703 
Q 3103 4656 3366 4563 
z
" id="DejaVuSans-36" transform="scale(0.015625)"/>
       </defs>
       <use xlink:href="#DejaVuSans-36"/>
       <use x="63.623047" xlink:href="#DejaVuSans-30"/>
       <use x="127.246094" xlink:href="#DejaVuSans-30"/>
       <use x="190.869141" xlink:href="#DejaVuSans-30"/>
       <use x="254.492188" xlink:href="#DejaVuSans-30"/>
       <use x="318.115234" xlink:href="#DejaVuSans-30"/>
      </g>
     </g>
    </g>
    <g id="xtick_5">
     <g id="line2d_9">
      <path clip-path="url(#pe3de00cd2b)" d="M 340.064577 252 
L 340.064577 34.56 
" style="fill:none;stroke:#b0b0b0;stroke-linecap:square;stroke-width:0.8;"/>
     </g>
     <g id="line2d_10">
      <g>
       <use style="stroke:#000000;stroke-width:0.8;" x="340.064577" xlink:href="#m527ade9568" y="252"/>
      </g>
     </g>
     <g id="text_5">
      <!-- 800000 -->
      <g transform="translate(320.977077 266.598437)scale(0.1 -0.1)">
       <defs>
        <path d="M 2034 2216 
Q 1584 2216 1326 1975 
Q 1069 1734 1069 1313 
Q 1069 891 1326 650 
Q 1584 409 2034 409 
Q 2484 409 2743 651 
Q 3003 894 3003 1313 
Q 3003 1734 2745 1975 
Q 2488 2216 2034 2216 
z
M 1403 2484 
Q 997 2584 770 2862 
Q 544 3141 544 3541 
Q 544 4100 942 4425 
Q 1341 4750 2034 4750 
Q 2731 4750 3128 4425 
Q 3525 4100 3525 3541 
Q 3525 3141 3298 2862 
Q 3072 2584 2669 2484 
Q 3125 2378 3379 2068 
Q 3634 1759 3634 1313 
Q 3634 634 3220 271 
Q 2806 -91 2034 -91 
Q 1263 -91 848 271 
Q 434 634 434 1313 
Q 434 1759 690 2068 
Q 947 2378 1403 2484 
z
M 1172 3481 
Q 1172 3119 1398 2916 
Q 1625 2713 2034 2713 
Q 2441 2713 2670 2916 
Q 2900 3119 2900 3481 
Q 2900 3844 2670 4047 
Q 2441 4250 2034 4250 
Q 1625 4250 1398 4047 
Q 1172 3844 1172 3481 
z
" id="DejaVuSans-38" transform="scale(0.015625)"/>
       </defs>
       <use xlink:href="#DejaVuSans-38"/>
       <use x="63.623047" xlink:href="#DejaVuSans-30"/>
       <use x="127.246094" xlink:href="#DejaVuSans-30"/>
       <use x="190.869141" xlink:href="#DejaVuSans-30"/>
       <use x="254.492188" xlink:href="#DejaVuSans-30"/>
       <use x="318.115234" xlink:href="#DejaVuSans-30"/>
      </g>
     </g>
    </g>
    <g id="text_6">
     <!-- Training examples -->
     <g transform="translate(157.780937 283.315938)scale(0.14 -0.14)">
      <defs>
       <path d="M -19 4666 
L 3928 4666 
L 3928 4134 
L 2272 4134 
L 2272 0 
L 1638 0 
L 1638 4134 
L -19 4134 
L -19 4666 
z
" id="DejaVuSans-54" transform="scale(0.015625)"/>
       <path d="M 2631 2963 
Q 2534 3019 2420 3045 
Q 2306 3072 2169 3072 
Q 1681 3072 1420 2755 
Q 1159 2438 1159 1844 
L 1159 0 
L 581 0 
L 581 3500 
L 1159 3500 
L 1159 2956 
Q 1341 3275 1631 3429 
Q 1922 3584 2338 3584 
Q 2397 3584 2469 3576 
Q 2541 3569 2628 3553 
L 2631 2963 
z
" id="DejaVuSans-72" transform="scale(0.015625)"/>
       <path d="M 2194 1759 
Q 1497 1759 1228 1600 
Q 959 1441 959 1056 
Q 959 750 1161 570 
Q 1363 391 1709 391 
Q 2188 391 2477 730 
Q 2766 1069 2766 1631 
L 2766 1759 
L 2194 1759 
z
M 3341 1997 
L 3341 0 
L 2766 0 
L 2766 531 
Q 2569 213 2275 61 
Q 1981 -91 1556 -91 
Q 1019 -91 701 211 
Q 384 513 384 1019 
Q 384 1609 779 1909 
Q 1175 2209 1959 2209 
L 2766 2209 
L 2766 2266 
Q 2766 2663 2505 2880 
Q 2244 3097 1772 3097 
Q 1472 3097 1187 3025 
Q 903 2953 641 2809 
L 641 3341 
Q 956 3463 1253 3523 
Q 1550 3584 1831 3584 
Q 2591 3584 2966 3190 
Q 3341 2797 3341 1997 
z
" id="DejaVuSans-61" transform="scale(0.015625)"/>
       <path d="M 603 3500 
L 1178 3500 
L 1178 0 
L 603 0 
L 603 3500 
z
M 603 4863 
L 1178 4863 
L 1178 4134 
L 603 4134 
L 603 4863 
z
" id="DejaVuSans-69" transform="scale(0.015625)"/>
       <path d="M 3513 2113 
L 3513 0 
L 2938 0 
L 2938 2094 
Q 2938 2591 2744 2837 
Q 2550 3084 2163 3084 
Q 1697 3084 1428 2787 
Q 1159 2491 1159 1978 
L 1159 0 
L 581 0 
L 581 3500 
L 1159 3500 
L 1159 2956 
Q 1366 3272 1645 3428 
Q 1925 3584 2291 3584 
Q 2894 3584 3203 3211 
Q 3513 2838 3513 2113 
z
" id="DejaVuSans-6e" transform="scale(0.015625)"/>
       <path d="M 2906 1791 
Q 2906 2416 2648 2759 
Q 2391 3103 1925 3103 
Q 1463 3103 1205 2759 
Q 947 2416 947 1791 
Q 947 1169 1205 825 
Q 1463 481 1925 481 
Q 2391 481 2648 825 
Q 2906 1169 2906 1791 
z
M 3481 434 
Q 3481 -459 3084 -895 
Q 2688 -1331 1869 -1331 
Q 1566 -1331 1297 -1286 
Q 1028 -1241 775 -1147 
L 775 -588 
Q 1028 -725 1275 -790 
Q 1522 -856 1778 -856 
Q 2344 -856 2625 -561 
Q 2906 -266 2906 331 
L 2906 616 
Q 2728 306 2450 153 
Q 2172 0 1784 0 
Q 1141 0 747 490 
Q 353 981 353 1791 
Q 353 2603 747 3093 
Q 1141 3584 1784 3584 
Q 2172 3584 2450 3431 
Q 2728 3278 2906 2969 
L 2906 3500 
L 3481 3500 
L 3481 434 
z
" id="DejaVuSans-67" transform="scale(0.015625)"/>
       <path id="DejaVuSans-20" transform="scale(0.015625)"/>
       <path d="M 3597 1894 
L 3597 1613 
L 953 1613 
Q 991 1019 1311 708 
Q 1631 397 2203 397 
Q 2534 397 2845 478 
Q 3156 559 3463 722 
L 3463 178 
Q 3153 47 2828 -22 
Q 2503 -91 2169 -91 
Q 1331 -91 842 396 
Q 353 884 353 1716 
Q 353 2575 817 3079 
Q 1281 3584 2069 3584 
Q 2775 3584 3186 3129 
Q 3597 2675 3597 1894 
z
M 3022 2063 
Q 3016 2534 2758 2815 
Q 2500 3097 2075 3097 
Q 1594 3097 1305 2825 
Q 1016 2553 972 2059 
L 3022 2063 
z
" id="DejaVuSans-65" transform="scale(0.015625)"/>
       <path d="M 3513 3500 
L 2247 1797 
L 3578 0 
L 2900 0 
L 1881 1375 
L 863 0 
L 184 0 
L 1544 1831 
L 300 3500 
L 978 3500 
L 1906 2253 
L 2834 3500 
L 3513 3500 
z
" id="DejaVuSans-78" transform="scale(0.015625)"/>
       <path d="M 3328 2828 
Q 3544 3216 3844 3400 
Q 4144 3584 4550 3584 
Q 5097 3584 5394 3201 
Q 5691 2819 5691 2113 
L 5691 0 
L 5113 0 
L 5113 2094 
Q 5113 2597 4934 2840 
Q 4756 3084 4391 3084 
Q 3944 3084 3684 2787 
Q 3425 2491 3425 1978 
L 3425 0 
L 2847 0 
L 2847 2094 
Q 2847 2600 2669 2842 
Q 2491 3084 2119 3084 
Q 1678 3084 1418 2786 
Q 1159 2488 1159 1978 
L 1159 0 
L 581 0 
L 581 3500 
L 1159 3500 
L 1159 2956 
Q 1356 3278 1631 3431 
Q 1906 3584 2284 3584 
Q 2666 3584 2933 3390 
Q 3200 3197 3328 2828 
z
" id="DejaVuSans-6d" transform="scale(0.015625)"/>
       <path d="M 1159 525 
L 1159 -1331 
L 581 -1331 
L 581 3500 
L 1159 3500 
L 1159 2969 
Q 1341 3281 1617 3432 
Q 1894 3584 2278 3584 
Q 2916 3584 3314 3078 
Q 3713 2572 3713 1747 
Q 3713 922 3314 415 
Q 2916 -91 2278 -91 
Q 1894 -91 1617 61 
Q 1341 213 1159 525 
z
M 3116 1747 
Q 3116 2381 2855 2742 
Q 2594 3103 2138 3103 
Q 1681 3103 1420 2742 
Q 1159 2381 1159 1747 
Q 1159 1113 1420 752 
Q 1681 391 2138 391 
Q 2594 391 2855 752 
Q 3116 1113 3116 1747 
z
" id="DejaVuSans-70" transform="scale(0.015625)"/>
       <path d="M 603 4863 
L 1178 4863 
L 1178 0 
L 603 0 
L 603 4863 
z
" id="DejaVuSans-6c" transform="scale(0.015625)"/>
       <path d="M 2834 3397 
L 2834 2853 
Q 2591 2978 2328 3040 
Q 2066 3103 1784 3103 
Q 1356 3103 1142 2972 
Q 928 2841 928 2578 
Q 928 2378 1081 2264 
Q 1234 2150 1697 2047 
L 1894 2003 
Q 2506 1872 2764 1633 
Q 3022 1394 3022 966 
Q 3022 478 2636 193 
Q 2250 -91 1575 -91 
Q 1294 -91 989 -36 
Q 684 19 347 128 
L 347 722 
Q 666 556 975 473 
Q 1284 391 1588 391 
Q 1994 391 2212 530 
Q 2431 669 2431 922 
Q 2431 1156 2273 1281 
Q 2116 1406 1581 1522 
L 1381 1569 
Q 847 1681 609 1914 
Q 372 2147 372 2553 
Q 372 3047 722 3315 
Q 1072 3584 1716 3584 
Q 2034 3584 2315 3537 
Q 2597 3491 2834 3397 
z
" id="DejaVuSans-73" transform="scale(0.015625)"/>
      </defs>
      <use xlink:href="#DejaVuSans-54"/>
      <use x="46.333984" xlink:href="#DejaVuSans-72"/>
      <use x="87.447266" xlink:href="#DejaVuSans-61"/>
      <use x="148.726562" xlink:href="#DejaVuSans-69"/>
      <use x="176.509766" xlink:href="#DejaVuSans-6e"/>
      <use x="239.888672" xlink:href="#DejaVuSans-69"/>
      <use x="267.671875" xlink:href="#DejaVuSans-6e"/>
      <use x="331.050781" xlink:href="#DejaVuSans-67"/>
      <use x="394.527344" xlink:href="#DejaVuSans-20"/>
      <use x="426.314453" xlink:href="#DejaVuSans-65"/>
      <use x="486.087891" xlink:href="#DejaVuSans-78"/>
      <use x="545.267578" xlink:href="#DejaVuSans-61"/>
      <use x="606.546875" xlink:href="#DejaVuSans-6d"/>
      <use x="703.958984" xlink:href="#DejaVuSans-70"/>
      <use x="767.435547" xlink:href="#DejaVuSans-6c"/>
      <use x="795.21875" xlink:href="#DejaVuSans-65"/>
      <use x="856.742188" xlink:href="#DejaVuSans-73"/>
     </g>
    </g>
   </g>
   <g id="matplotlib.axis_2">
    <g id="ytick_1">
     <g id="line2d_11">
      <path clip-path="url(#pe3de00cd2b)" d="M 54 220.152727 
L 388.8 220.152727 
" style="fill:none;stroke:#b0b0b0;stroke-linecap:square;stroke-width:0.8;"/>
     </g>
     <g id="line2d_12">
      <defs>
       <path d="M 0 0 
L -3.5 0 
" id="m4b0f2a9b77" style="stroke:#000000;stroke-width:0.8;"/>
      </defs>
      <g>
       <use style="stroke:#000000;stroke-width:0.8;" x="54" xlink:href="#m4b0f2a9b77" y="220.152727"/>
      </g>
     </g>
     <g id="text_7">
      <!-- 0.2 -->
      <g transform="translate(31.096875 223.951946)scale(0.1 -0.1)">
       <defs>
        <path d="M 684 794 
L 1344 794 
L 1344 0 
L 684 0 
L 684 794 
z
" id="DejaVuSans-2e" transform="scale(0.015625)"/>
       </defs>
       <use xlink:href="#DejaVuSans-30"/>
       <use x="63.623047" xlink:href="#DejaVuSans-2e"/>
       <use x="95.410156" xlink:href="#DejaVuSans-32"/>
      </g>
     </g>
    </g>
    <g id="ytick_2">
     <g id="line2d_13">
      <path clip-path="url(#pe3de00cd2b)" d="M 54 176.225455 
L 388.8 176.225455 
" style="fill:none;stroke:#b0b0b0;stroke-linecap:square;stroke-width:0.8;"/>
     </g>
     <g id="line2d_14">
      <g>
       <use style="stroke:#000000;stroke-width:0.8;" x="54" xlink:href="#m4b0f2a9b77" y="176.225455"/>
      </g>
     </g>
     <g id="text_8">
      <!-- 0.4 -->
      <g transform="translate(31.096875 180.024673)scale(0.1 -0.1)">
       <use xlink:href="#DejaVuSans-30"/>
       <use x="63.623047" xlink:href="#DejaVuSans-2e"/>
       <use x="95.410156" xlink:href="#DejaVuSans-34"/>
      </g>
     </g>
    </g>
    <g id="ytick_3">
     <g id="line2d_15">
      <path clip-path="url(#pe3de00cd2b)" d="M 54 132.298182 
L 388.8 132.298182 
" style="fill:none;stroke:#b0b0b0;stroke-linecap:square;stroke-width:0.8;"/>
     </g>
     <g id="line2d_16">
      <g>
       <use style="stroke:#000000;stroke-width:0.8;" x="54" xlink:href="#m4b0f2a9b77" y="132.298182"/>
      </g>
     </g>
     <g id="text_9">
      <!-- 0.6 -->
      <g transform="translate(31.096875 136.097401)scale(0.1 -0.1)">
       <use xlink:href="#DejaVuSans-30"/>
       <use x="63.623047" xlink:href="#DejaVuSans-2e"/>
       <use x="95.410156" xlink:href="#DejaVuSans-36"/>
      </g>
     </g>
    </g>
    <g id="ytick_4">
     <g id="line2d_17">
      <path clip-path="url(#pe3de00cd2b)" d="M 54 88.370909 
L 388.8 88.370909 
" style="fill:none;stroke:#b0b0b0;stroke-linecap:square;stroke-width:0.8;"/>
     </g>
     <g id="line2d_18">
      <g>
       <use style="stroke:#000000;stroke-width:0.8;" x="54" xlink:href="#m4b0f2a9b77" y="88.370909"/>
      </g>
     </g>
     <g id="text_10">
      <!-- 0.8 -->
      <g transform="translate(31.096875 92.170128)scale(0.1 -0.1)">
       <use xlink:href="#DejaVuSans-30"/>
       <use x="63.623047" xlink:href="#DejaVuSans-2e"/>
       <use x="95.410156" xlink:href="#DejaVuSans-38"/>
      </g>
     </g>
    </g>
    <g id="ytick_5">
     <g id="line2d_19">
      <path clip-path="url(#pe3de00cd2b)" d="M 54 44.443636 
L 388.8 44.443636 
" style="fill:none;stroke:#b0b0b0;stroke-linecap:square;stroke-width:0.8;"/>
     </g>
     <g id="line2d_20">
      <g>
       <use style="stroke:#000000;stroke-width:0.8;" x="54" xlink:href="#m4b0f2a9b77" y="44.443636"/>
      </g>
     </g>
     <g id="text_11">
      <!-- 1.0 -->
      <g transform="translate(31.096875 48.242855)scale(0.1 -0.1)">
       <defs>
        <path d="M 794 531 
L 1825 531 
L 1825 4091 
L 703 3866 
L 703 4441 
L 1819 4666 
L 2450 4666 
L 2450 531 
L 3481 531 
L 3481 0 
L 794 0 
L 794 531 
z
" id="DejaVuSans-31" transform="scale(0.015625)"/>
       </defs>
       <use xlink:href="#DejaVuSans-31"/>
       <use x="63.623047" xlink:href="#DejaVuSans-2e"/>
       <use x="95.410156" xlink:href="#DejaVuSans-30"/>
      </g>
     </g>
    </g>
    <g id="text_12">
     <!-- Accuracy -->
     <g transform="translate(24.185312 175.239375)rotate(-90)scale(0.14 -0.14)">
      <defs>
       <path d="M 2188 4044 
L 1331 1722 
L 3047 1722 
L 2188 4044 
z
M 1831 4666 
L 2547 4666 
L 4325 0 
L 3669 0 
L 3244 1197 
L 1141 1197 
L 716 0 
L 50 0 
L 1831 4666 
z
" id="DejaVuSans-41" transform="scale(0.015625)"/>
       <path d="M 3122 3366 
L 3122 2828 
Q 2878 2963 2633 3030 
Q 2388 3097 2138 3097 
Q 1578 3097 1268 2742 
Q 959 2388 959 1747 
Q 959 1106 1268 751 
Q 1578 397 2138 397 
Q 2388 397 2633 464 
Q 2878 531 3122 666 
L 3122 134 
Q 2881 22 2623 -34 
Q 2366 -91 2075 -91 
Q 1284 -91 818 406 
Q 353 903 353 1747 
Q 353 2603 823 3093 
Q 1294 3584 2113 3584 
Q 2378 3584 2631 3529 
Q 2884 3475 3122 3366 
z
" id="DejaVuSans-63" transform="scale(0.015625)"/>
       <path d="M 544 1381 
L 544 3500 
L 1119 3500 
L 1119 1403 
Q 1119 906 1312 657 
Q 1506 409 1894 409 
Q 2359 409 2629 706 
Q 2900 1003 2900 1516 
L 2900 3500 
L 3475 3500 
L 3475 0 
L 2900 0 
L 2900 538 
Q 2691 219 2414 64 
Q 2138 -91 1772 -91 
Q 1169 -91 856 284 
Q 544 659 544 1381 
z
M 1991 3584 
L 1991 3584 
z
" id="DejaVuSans-75" transform="scale(0.015625)"/>
       <path d="M 2059 -325 
Q 1816 -950 1584 -1140 
Q 1353 -1331 966 -1331 
L 506 -1331 
L 506 -850 
L 844 -850 
Q 1081 -850 1212 -737 
Q 1344 -625 1503 -206 
L 1606 56 
L 191 3500 
L 800 3500 
L 1894 763 
L 2988 3500 
L 3597 3500 
L 2059 -325 
z
" id="DejaVuSans-79" transform="scale(0.015625)"/>
      </defs>
      <use xlink:href="#DejaVuSans-41"/>
      <use x="66.658203" xlink:href="#DejaVuSans-63"/>
      <use x="121.638672" xlink:href="#DejaVuSans-63"/>
      <use x="176.619141" xlink:href="#DejaVuSans-75"/>
      <use x="239.998047" xlink:href="#DejaVuSans-72"/>
      <use x="281.111328" xlink:href="#DejaVuSans-61"/>
      <use x="342.390625" xlink:href="#DejaVuSans-63"/>
      <use x="397.371094" xlink:href="#DejaVuSans-79"/>
     </g>
    </g>
   </g>
   <g id="line2d_21">
    <path clip-path="url(#pe3de00cd2b)" d="M 69.218182 235.702982 
L 69.55674 236.230109 
L 69.895298 236.339927 
L 70.233856 221.734109 
L 70.572414 221.250909 
L 70.910972 224.479564 
L 71.24953 222.942109 
L 71.588088 223.051927 
L 71.926646 222.414982 
L 72.603762 228.125527 
L 72.94232 227.268945 
L 73.280878 223.996364 
L 73.619436 222.590691 
L 73.957994 216.111418 
L 74.296552 216.374982 
L 74.63511 217.187636 
L 74.973668 215.738036 
L 75.312226 218.351709 
L 75.650784 216.133382 
L 75.989342 215.123055 
L 77.005016 201.637382 
L 77.343574 200.099927 
L 77.682132 199.177455 
L 78.02069 198.628364 
L 78.697806 203.130909 
L 79.036364 207.150255 
L 79.374922 207.106327 
L 79.71348 212.157964 
L 80.052038 211.806545 
L 80.390596 216.594618 
L 81.067712 220.306473 
L 81.40627 220.240582 
L 81.744828 221.009309 
L 82.083386 219.713455 
L 82.421944 220.086836 
L 82.760502 219.669527 
L 83.09906 212.048145 
L 83.437618 209.917673 
L 84.114734 203.043055 
L 84.79185 175.390836 
L 85.130408 173.765527 
L 86.146082 150.637818 
L 86.484639 158.0176 
L 86.823197 144.575855 
L 87.161755 142.5552 
L 87.500313 139.656 
L 87.838871 132.6496 
L 88.177429 120.855127 
L 88.515987 120.152291 
L 88.854545 119.010182 
L 89.193103 110.444364 
L 89.531661 107.720873 
L 89.870219 102.186036 
L 90.208777 100.626618 
L 90.547335 98.386327 
L 90.885893 97.156364 
L 91.224451 90.435491 
L 91.563009 91.050473 
L 91.901567 91.116364 
L 92.240125 93.773964 
L 92.578683 92.434182 
L 92.917241 88.041455 
L 93.255799 88.700364 
L 93.594357 85.296 
L 93.932915 88.019491 
L 94.271473 84.922618 
L 94.610031 84.988509 
L 94.948589 83.187491 
L 95.287147 83.516945 
L 95.625705 82.704291 
L 95.964263 83.912291 
L 96.302821 81.628073 
L 96.641379 84.153891 
L 96.979937 79.7392 
L 97.318495 79.958836 
L 97.657053 81.979491 
L 97.995611 79.387782 
L 98.334169 79.431709 
L 98.672727 80.7056 
L 99.011285 77.960145 
L 99.349843 78.575127 
L 99.688401 77.520873 
L 100.026959 80.134545 
L 100.704075 75.807709 
L 101.042633 78.706909 
L 101.381191 84.000145 
L 101.719749 75.1488 
L 102.058307 77.608727 
L 102.396865 72.557091 
L 102.735423 77.718545 
L 103.073981 74.599709 
L 103.412539 74.555782 
L 103.751097 71.942109 
L 104.089655 72.469236 
L 104.428213 75.236655 
L 104.766771 73.435636 
L 105.105329 72.776727 
L 105.443887 71.5248 
L 105.782445 70.843927 
L 106.121003 70.536436 
L 106.459561 71.568727 
L 106.798119 70.536436 
L 107.136677 70.646255 
L 107.475235 69.064873 
L 107.813793 71.305164 
L 108.152351 69.020945 
L 108.490909 68.252218 
L 108.829467 70.163055 
L 109.168025 68.076509 
L 109.845141 69.438255 
L 110.183699 66.9344 
L 110.522257 66.978327 
L 110.860815 66.495127 
L 111.199373 68.054545 
L 111.537931 66.780655 
L 111.876489 67.725091 
L 112.215047 67.527418 
L 112.553605 67.044218 
L 113.230721 66.648873 
L 113.569279 65.572655 
L 113.907837 66.297455 
L 114.246395 65.880145 
L 114.584953 66.670836 
L 114.923511 66.539055 
L 115.262069 66.736727 
L 115.600627 66.473164 
L 115.939185 65.946036 
L 116.277743 65.704436 
L 116.616301 63.947345 
L 116.954859 63.617891 
L 117.293417 66.187636 
L 117.631975 63.947345 
L 117.970533 63.244509 
L 118.309091 63.3104 
L 118.647649 63.134691 
L 118.986207 62.761309 
L 120.001881 64.430545 
L 120.340439 62.256145 
L 120.678997 62.146327 
L 121.017555 64.0352 
L 121.356113 62.607564 
L 121.694671 63.749673 
L 122.033229 61.157964 
L 122.371787 61.772945 
L 122.710345 61.707055 
L 123.048903 63.266473 
L 123.387461 62.146327 
L 123.726019 64.869818 
L 124.403135 60.718691 
L 124.741693 60.960291 
L 125.080251 60.389236 
L 125.418809 63.134691 
L 125.757367 60.323345 
L 126.095925 60.235491 
L 126.434483 60.433164 
L 126.773041 59.971927 
L 127.450157 59.774255 
L 127.788715 59.928 
L 128.127273 60.564945 
L 128.465831 62.014545 
L 128.804389 59.137309 
L 129.142947 59.400873 
L 129.481505 59.313018 
L 129.820063 61.597236 
L 130.158621 58.939636 
L 130.835737 59.005527 
L 131.174295 59.137309 
L 131.512853 58.390545 
L 131.851411 58.4784 
L 132.189969 58.017164 
L 132.528527 59.071418 
L 132.867085 57.555927 
L 133.205643 60.938327 
L 133.544201 60.608873 
L 133.882759 58.983564 
L 134.221317 57.951273 
L 134.898433 59.422836 
L 135.236991 57.797527 
L 135.575549 58.148945 
L 135.914107 57.577891 
L 136.252665 57.292364 
L 136.591223 58.456436 
L 136.929781 58.083055 
L 137.268339 57.402182 
L 137.606897 57.050764 
L 138.284013 58.148945 
L 138.622571 57.468073 
L 138.961129 60.762618 
L 139.299687 56.260073 
L 139.638245 57.951273 
L 139.976803 58.148945 
L 140.315361 57.160582 
L 140.653918 56.721309 
L 140.992476 56.875055 
L 141.331034 56.677382 
L 141.669592 57.7536 
L 142.00815 56.655418 
L 142.346708 56.589527 
L 142.685266 58.4784 
L 143.023824 56.501673 
L 143.362382 56.457745 
L 143.70094 57.402182 
L 144.039498 56.238109 
L 144.378056 56.940945 
L 144.716614 58.456436 
L 145.055172 55.8208 
L 145.39373 57.006836 
L 145.732288 57.336291 
L 146.070846 56.567564 
L 146.409404 56.347927 
L 146.747962 55.161891 
L 147.08652 55.864727 
L 147.425078 56.282036 
L 147.763636 56.150255 
L 148.102194 56.809164 
L 148.440752 55.381527 
L 148.77931 56.7872 
L 149.117868 56.391855 
L 149.456426 55.601164 
L 149.794984 55.447418 
L 150.133542 56.435782 
L 150.4721 55.732945 
L 150.810658 55.535273 
L 151.149216 56.304 
L 151.487774 55.864727 
L 151.826332 56.677382 
L 152.16489 56.084364 
L 152.503448 55.117964 
L 152.842006 57.094691 
L 153.180564 55.359564 
L 153.519122 56.743273 
L 153.85768 54.832436 
L 154.196238 55.096 
L 154.534796 55.930618 
L 154.873354 54.656727 
L 155.211912 54.788509 
L 155.889028 56.128291 
L 156.566144 54.898327 
L 156.904702 54.656727 
L 157.24326 56.962909 
L 157.581818 54.8544 
L 157.920376 54.634764 
L 158.258934 55.645091 
L 158.597492 55.996509 
L 158.93605 55.096 
L 159.274608 55.293673 
L 159.613166 54.261382 
L 159.951724 55.227782 
L 160.290282 54.239418 
L 160.62884 54.349236 
L 161.305956 55.535273 
L 161.644514 54.349236 
L 161.983072 54.590836 
L 162.32163 53.997818 
L 162.660188 54.107636 
L 162.998746 54.832436 
L 163.337304 54.986182 
L 163.675862 54.283345 
L 164.01442 54.393164 
L 164.352978 54.063709 
L 164.691536 54.3712 
L 165.030094 53.888 
L 165.368652 53.778182 
L 165.70721 54.107636 
L 166.045768 55.161891 
L 166.384326 53.953891 
L 166.722884 54.019782 
L 167.061442 56.940945 
L 167.4 54.305309 
L 167.738558 53.6464 
L 168.077116 53.975855 
L 168.415674 53.602473 
L 168.754232 54.261382 
L 169.09279 53.866036 
L 169.431348 54.063709 
L 169.769906 53.931927 
L 170.108464 54.217455 
L 170.447022 53.734255 
L 171.124138 53.6464 
L 171.801254 53.778182 
L 172.139812 54.107636 
L 172.47837 54.810473 
L 173.155486 53.558545 
L 173.494044 53.448727 
L 173.832602 53.909964 
L 174.17116 53.756218 
L 174.509718 53.185164 
L 174.848276 53.382836 
L 175.186834 54.151564 
L 175.525392 53.536582 
L 175.86395 53.426764 
L 176.202508 53.053382 
L 176.541066 53.316945 
L 176.879624 52.833745 
L 177.218182 53.448727 
L 177.55674 53.712291 
L 177.895298 53.470691 
L 178.233856 53.909964 
L 178.572414 54.041745 
L 178.910972 53.734255 
L 179.24953 53.097309 
L 179.588088 53.053382 
L 179.926646 53.185164 
L 180.265204 53.734255 
L 180.603762 53.558545 
L 180.94232 53.119273 
L 181.957994 53.075345 
L 182.63511 53.668364 
L 183.312226 53.470691 
L 183.650784 53.778182 
L 183.989342 53.207127 
L 184.3279 54.986182 
L 184.666458 54.1296 
L 185.005016 52.723927 
L 185.343574 52.943564 
L 186.02069 52.745891 
L 186.359248 53.097309 
L 187.036364 52.877673 
L 187.374922 52.899636 
L 187.71348 52.614109 
L 188.052038 52.548218 
L 188.390596 52.701964 
L 188.729154 52.394473 
L 189.067712 53.097309 
L 189.40627 52.526255 
L 189.744828 52.284655 
L 190.083386 52.372509 
L 190.421944 52.174836 
L 191.09906 52.4384 
L 191.437618 53.097309 
L 191.776176 52.328582 
L 192.114734 52.526255 
L 192.453292 52.240727 
L 192.79185 53.294982 
L 193.130408 52.548218 
L 193.468966 52.811782 
L 193.807524 51.933236 
L 194.146082 52.899636 
L 194.484639 52.482327 
L 195.161755 53.294982 
L 195.500313 52.811782 
L 196.177429 52.328582 
L 196.515987 52.658036 
L 196.854545 53.316945 
L 197.193103 52.548218 
L 197.531661 52.745891 
L 197.870219 52.570182 
L 198.208777 52.592145 
L 198.547335 52.262691 
L 198.885893 52.262691 
L 199.224451 52.065018 
L 199.563009 52.658036 
L 199.901567 52.526255 
L 200.240125 52.943564 
L 200.578683 52.614109 
L 200.917241 52.855709 
L 201.594357 52.504291 
L 201.932915 52.723927 
L 202.610031 52.504291 
L 203.287147 52.240727 
L 203.625705 52.745891 
L 203.964263 52.152873 
L 204.302821 52.328582 
L 204.641379 52.174836 
L 204.979937 52.482327 
L 205.318495 51.867345 
L 205.657053 52.306618 
L 205.995611 52.548218 
L 206.334169 52.021091 
L 206.672727 51.933236 
L 207.011285 52.021091 
L 207.349843 51.823418 
L 207.688401 52.086982 
L 208.704075 51.735564 
L 209.042633 52.723927 
L 209.381191 52.636073 
L 209.719749 51.845382 
L 210.058307 52.460364 
L 210.396865 52.130909 
L 210.735423 51.384145 
L 211.073981 52.745891 
L 211.412539 51.757527 
L 211.751097 52.130909 
L 212.089655 52.021091 
L 212.428213 52.240727 
L 212.766771 54.3712 
L 213.105329 51.823418 
L 213.443887 51.933236 
L 213.782445 51.735564 
L 214.121003 52.021091 
L 214.459561 51.999127 
L 214.798119 55.623127 
L 215.136677 51.889309 
L 215.813793 51.603782 
L 216.152351 51.142545 
L 216.490909 51.252364 
L 216.829467 51.493964 
L 217.168025 51.493964 
L 217.506583 53.009455 
L 217.845141 51.9552 
L 218.183699 51.977164 
L 218.522257 51.450036 
L 218.860815 51.735564 
L 219.199373 51.779491 
L 219.537931 51.450036 
L 219.876489 51.450036 
L 220.553605 51.999127 
L 220.892163 51.647709 
L 221.230721 51.779491 
L 221.569279 51.384145 
L 221.907837 51.779491 
L 222.246395 52.460364 
L 222.584953 51.581818 
L 222.923511 51.362182 
L 223.262069 51.7136 
L 223.600627 51.823418 
L 223.939185 51.406109 
L 224.277743 53.119273 
L 224.616301 51.472 
L 224.954859 51.428073 
L 225.293417 51.669673 
L 225.631975 51.406109 
L 225.970533 51.362182 
L 226.309091 52.108945 
L 226.647649 51.406109 
L 226.986207 52.065018 
L 227.324765 52.021091 
L 227.663323 51.735564 
L 228.340439 52.394473 
L 229.017555 51.252364 
L 229.356113 52.021091 
L 229.694671 51.296291 
L 230.033229 51.384145 
L 230.371787 51.032727 
L 230.710345 51.691636 
L 231.048903 51.581818 
L 231.387461 51.252364 
L 231.726019 51.625745 
L 232.064577 51.054691 
L 232.403135 51.581818 
L 232.741693 51.493964 
L 233.418809 52.021091 
L 233.757367 51.493964 
L 234.434483 51.098618 
L 234.773041 51.142545 
L 235.111599 51.779491 
L 235.450157 51.010764 
L 236.465831 52.240727 
L 236.804389 52.218764 
L 237.142947 51.537891 
L 237.481505 51.362182 
L 237.820063 51.340218 
L 238.158621 51.603782 
L 238.497179 53.251055 
L 238.835737 51.098618 
L 239.174295 51.076655 
L 239.851411 51.669673 
L 240.189969 51.120582 
L 240.528527 51.559855 
L 240.867085 51.362182 
L 241.205643 51.977164 
L 241.544201 51.384145 
L 241.882759 51.054691 
L 242.221317 51.032727 
L 242.559875 50.791127 
L 242.898433 51.120582 
L 243.914107 51.384145 
L 244.252665 51.010764 
L 244.591223 51.428073 
L 244.929781 51.428073 
L 245.268339 51.010764 
L 245.606897 51.098618 
L 246.284013 51.801455 
L 246.622571 50.878982 
L 246.961129 51.384145 
L 247.638245 51.450036 
L 247.976803 51.252364 
L 248.315361 51.384145 
L 248.653918 51.296291 
L 248.992476 52.1968 
L 249.331034 50.769164 
L 249.669592 51.032727 
L 250.00815 51.450036 
L 250.346708 50.966836 
L 250.685266 50.857018 
L 251.023824 51.164509 
L 251.362382 51.208436 
L 251.70094 51.428073 
L 252.039498 51.142545 
L 252.378056 51.515927 
L 252.716614 50.966836 
L 253.055172 51.274327 
L 253.732288 51.032727 
L 254.409404 51.515927 
L 254.747962 51.054691 
L 255.08652 51.164509 
L 255.425078 51.7136 
L 255.763636 51.010764 
L 256.102194 51.274327 
L 256.440752 50.878982 
L 256.77931 50.878982 
L 257.117868 51.472 
L 257.456426 50.944873 
L 257.794984 51.867345 
L 258.133542 50.944873 
L 258.4721 50.835055 
L 258.810658 51.669673 
L 259.149216 50.922909 
L 259.487774 50.857018 
L 259.826332 51.208436 
L 260.16489 51.120582 
L 260.503448 50.593455 
L 260.842006 51.252364 
L 261.180564 51.296291 
L 261.519122 51.032727 
L 262.196238 51.010764 
L 262.873354 50.966836 
L 263.211912 50.483636 
L 263.55047 50.835055 
L 263.889028 50.725236 
L 264.227586 51.010764 
L 264.566144 50.7472 
L 264.904702 50.725236 
L 265.24326 50.571491 
L 265.581818 51.098618 
L 265.920376 51.032727 
L 266.258934 50.813091 
L 266.597492 50.791127 
L 266.93605 51.208436 
L 267.274608 51.384145 
L 267.613166 50.900945 
L 267.951724 50.725236 
L 268.290282 50.835055 
L 268.62884 50.593455 
L 269.305956 51.142545 
L 269.644514 50.681309 
L 269.983072 50.659345 
L 270.32163 51.362182 
L 270.660188 51.296291 
L 270.998746 51.757527 
L 271.337304 50.769164 
L 271.675862 50.878982 
L 272.352978 50.615418 
L 273.368652 50.813091 
L 273.70721 50.615418 
L 274.045768 50.571491 
L 274.722884 50.944873 
L 275.061442 50.703273 
L 275.4 50.637382 
L 275.738558 51.384145 
L 276.077116 50.7472 
L 276.415674 51.076655 
L 276.754232 50.637382 
L 277.09279 50.593455 
L 277.431348 50.725236 
L 277.769906 50.571491 
L 278.108464 51.757527 
L 278.447022 50.769164 
L 278.78558 51.186473 
L 279.124138 50.835055 
L 279.801254 51.120582 
L 280.139812 50.813091 
L 280.47837 50.878982 
L 280.816928 50.593455 
L 281.155486 51.010764 
L 281.494044 50.615418 
L 282.509718 50.900945 
L 282.848276 51.120582 
L 283.186834 50.857018 
L 284.202508 50.769164 
L 284.879624 50.703273 
L 285.218182 50.900945 
L 285.895298 50.5056 
L 286.572414 50.878982 
L 287.926646 50.395782 
L 288.265204 50.549527 
L 288.603762 50.966836 
L 288.94232 51.032727 
L 289.280878 50.571491 
L 289.619436 50.637382 
L 289.957994 50.900945 
L 290.296552 52.767855 
L 290.63511 50.571491 
L 290.973668 50.725236 
L 291.312226 50.681309 
L 291.650784 50.944873 
L 291.989342 50.549527 
L 292.3279 51.098618 
L 292.666458 50.944873 
L 293.005016 50.5056 
L 293.343574 50.373818 
L 293.682132 50.483636 
L 294.359248 50.922909 
L 294.697806 50.527564 
L 295.71348 50.769164 
L 296.052038 50.154182 
L 296.390596 50.681309 
L 296.729154 50.637382 
L 297.067712 50.966836 
L 297.744828 50.5056 
L 298.083386 50.659345 
L 298.421944 50.637382 
L 298.760502 50.220073 
L 299.09906 50.461673 
L 299.776176 50.659345 
L 300.114734 50.417745 
L 300.453292 50.571491 
L 300.79185 50.593455 
L 301.130408 51.450036 
L 301.807524 50.835055 
L 302.146082 50.944873 
L 302.484639 50.703273 
L 302.823197 50.835055 
L 303.161755 50.483636 
L 303.500313 50.571491 
L 303.838871 51.142545 
L 304.177429 50.461673 
L 304.515987 50.132218 
L 304.854545 50.461673 
L 305.193103 50.593455 
L 305.531661 50.395782 
L 305.870219 50.703273 
L 306.208777 50.7472 
L 306.547335 50.461673 
L 306.885893 50.593455 
L 307.224451 50.571491 
L 307.563009 50.769164 
L 307.901567 50.285964 
L 308.240125 50.527564 
L 308.578683 50.0224 
L 308.917241 50.373818 
L 309.594357 50.417745 
L 309.932915 50.5056 
L 310.271473 50.198109 
L 310.610031 50.5056 
L 311.287147 50.220073 
L 311.625705 50.681309 
L 311.964263 50.5056 
L 312.302821 50.637382 
L 312.641379 50.176145 
L 312.979937 51.164509 
L 313.318495 50.220073 
L 313.657053 50.571491 
L 313.995611 49.956509 
L 314.334169 50.593455 
L 314.672727 50.044364 
L 315.011285 50.307927 
L 315.349843 50.0224 
L 315.688401 50.044364 
L 316.026959 50.198109 
L 316.365517 50.659345 
L 316.704075 50.285964 
L 317.042633 50.198109 
L 317.381191 52.284655 
L 317.719749 49.956509 
L 318.058307 50.857018 
L 318.396865 52.306618 
L 318.735423 50.922909 
L 319.073981 50.461673 
L 319.751097 50.857018 
L 320.089655 50.285964 
L 320.428213 49.978473 
L 320.766771 50.571491 
L 321.105329 50.922909 
L 321.443887 50.285964 
L 321.782445 50.681309 
L 322.121003 50.220073 
L 322.459561 50.813091 
L 322.798119 50.461673 
L 323.136677 50.878982 
L 323.475235 50.373818 
L 323.813793 50.791127 
L 324.152351 50.329891 
L 324.490909 50.373818 
L 324.829467 50.857018 
L 325.168025 51.098618 
L 325.845141 50.220073 
L 326.183699 50.593455 
L 326.522257 50.615418 
L 326.860815 50.483636 
L 328.215047 50.527564 
L 328.553605 50.351855 
L 328.892163 50.307927 
L 329.230721 51.010764 
L 329.569279 50.220073 
L 329.907837 50.395782 
L 330.246395 50.088291 
L 330.584953 50.703273 
L 330.923511 50.264 
L 331.939185 50.439709 
L 332.277743 50.066327 
L 332.616301 50.571491 
L 332.954859 50.066327 
L 333.293417 50.351855 
L 333.631975 50.395782 
L 333.970533 50.132218 
L 334.309091 50.132218 
L 334.647649 50.373818 
L 334.986207 50.373818 
L 335.324765 50.5056 
L 335.663323 50.461673 
L 336.001881 49.934545 
L 336.340439 50.242036 
L 336.678997 50.307927 
L 337.356113 50.285964 
L 337.694671 50.439709 
L 338.033229 50.110255 
L 338.371787 50.0224 
L 339.048903 50.549527 
L 339.387461 50.000436 
L 340.064577 50.703273 
L 340.403135 50.000436 
L 340.741693 50.373818 
L 341.418809 50.110255 
L 341.757367 50.5056 
L 342.095925 50.110255 
L 342.434483 50.000436 
L 342.773041 50.417745 
L 343.111599 50.220073 
L 343.450157 50.395782 
L 343.788715 50.703273 
L 344.127273 50.264 
L 344.465831 50.483636 
L 344.804389 50.088291 
L 345.142947 50.351855 
L 345.481505 50.307927 
L 345.820063 50.769164 
L 346.158621 50.593455 
L 346.497179 50.922909 
L 346.835737 50.242036 
L 347.174295 50.329891 
L 347.512853 50.791127 
L 347.851411 50.329891 
L 348.189969 50.264 
L 348.528527 50.725236 
L 348.867085 50.857018 
L 349.205643 50.791127 
L 349.882759 49.934545 
L 350.221317 50.549527 
L 350.559875 50.044364 
L 350.898433 50.483636 
L 351.236991 50.659345 
L 351.575549 50.417745 
L 351.914107 50.351855 
L 352.252665 49.934545 
L 352.591223 50.285964 
L 352.929781 50.198109 
L 353.268339 50.329891 
L 353.606897 49.978473 
L 353.945455 50.242036 
L 354.284013 49.846691 
L 354.622571 49.868655 
L 355.299687 50.813091 
L 355.638245 50.351855 
L 355.976803 50.373818 
L 356.315361 50.198109 
L 357.331034 50.0224 
L 357.669592 50.307927 
L 358.00815 50.439709 
L 358.346708 50.220073 
L 358.685266 50.5056 
L 359.023824 50.285964 
L 359.362382 50.571491 
L 359.70094 49.912582 
L 360.039498 50.088291 
L 360.378056 50.813091 
L 360.716614 50.220073 
L 361.055172 50.154182 
L 361.39373 50.878982 
L 361.732288 50.110255 
L 362.747962 50.044364 
L 363.08652 50.132218 
L 363.425078 50.483636 
L 363.763636 50.110255 
L 364.102194 50.351855 
L 364.440752 50.066327 
L 364.77931 50.439709 
L 365.456426 50.176145 
L 365.794984 50.264 
L 366.133542 50.483636 
L 366.810658 50.176145 
L 367.487774 50.527564 
L 367.826332 50.439709 
L 368.16489 49.956509 
L 368.503448 50.307927 
L 368.842006 50.198109 
L 369.180564 50.220073 
L 369.519122 49.912582 
L 369.85768 50.351855 
L 370.196238 50.132218 
L 370.534796 50.835055 
L 370.873354 50.351855 
L 371.55047 50.066327 
L 371.889028 50.373818 
L 372.227586 50.242036 
L 372.566144 49.956509 
L 372.904702 50.725236 
L 373.24326 50.242036 
L 373.581818 50.285964 
L 373.581818 50.285964 
" style="fill:none;stroke:#1f77b4;stroke-linecap:square;stroke-width:1.5;"/>
   </g>
   <g id="line2d_22">
    <path clip-path="url(#pe3de00cd2b)" d="M 69.218182 237.723636 
L 69.895298 242.116364 
L 70.233856 228.938182 
L 70.572414 233.330909 
L 70.910972 224.545455 
L 71.24953 204.778182 
L 71.926646 228.938182 
L 72.265204 228.938182 
L 72.603762 222.349091 
L 72.94232 228.938182 
L 73.280878 226.741818 
L 73.619436 226.741818 
L 73.957994 224.545455 
L 74.296552 209.170909 
L 74.63511 217.956364 
L 74.973668 213.563636 
L 75.312226 200.385455 
L 75.650784 228.938182 
L 75.989342 191.6 
L 76.3279 198.189091 
L 76.666458 200.385455 
L 77.005016 189.403636 
L 77.343574 202.581818 
L 77.682132 200.385455 
L 78.02069 206.974545 
L 78.359248 187.207273 
L 78.697806 211.367273 
L 79.036364 202.581818 
L 79.374922 202.581818 
L 79.71348 215.76 
L 80.052038 224.545455 
L 80.390596 226.741818 
L 80.729154 213.563636 
L 81.40627 228.938182 
L 81.744828 206.974545 
L 82.083386 220.152727 
L 82.421944 211.367273 
L 82.760502 215.76 
L 83.09906 217.956364 
L 83.437618 198.189091 
L 83.776176 222.349091 
L 84.114734 202.581818 
L 84.453292 191.6 
L 84.79185 165.243636 
L 85.130408 163.047273 
L 85.468966 158.654545 
L 85.807524 182.814545 
L 86.146082 149.869091 
L 86.484639 165.243636 
L 86.823197 149.869091 
L 87.500313 112.530909 
L 87.838871 130.101818 
L 88.177429 108.138182 
L 88.515987 116.923636 
L 89.193103 101.549091 
L 89.531661 99.352727 
L 89.870219 108.138182 
L 90.208777 101.549091 
L 90.547335 86.174545 
L 90.885893 83.978182 
L 91.224451 97.156364 
L 91.563009 81.781818 
L 91.901567 77.389091 
L 92.240125 79.585455 
L 92.578683 70.8 
L 92.917241 86.174545 
L 93.255799 72.996364 
L 93.594357 79.585455 
L 93.932915 79.585455 
L 94.271473 62.014545 
L 94.610031 90.567273 
L 94.948589 88.370909 
L 95.287147 70.8 
L 95.625705 86.174545 
L 95.964263 53.229091 
L 96.302821 75.192727 
L 96.641379 68.603636 
L 96.979937 83.978182 
L 97.318495 92.763636 
L 97.657053 64.210909 
L 97.995611 66.407273 
L 98.672727 86.174545 
L 99.011285 68.603636 
L 99.349843 64.210909 
L 99.688401 77.389091 
L 100.026959 72.996364 
L 100.704075 72.996364 
L 101.042633 86.174545 
L 101.381191 70.8 
L 101.719749 68.603636 
L 102.058307 79.585455 
L 102.396865 59.818182 
L 102.735423 64.210909 
L 103.412539 79.585455 
L 104.089655 75.192727 
L 104.428213 75.192727 
L 104.766771 62.014545 
L 105.105329 70.8 
L 105.443887 68.603636 
L 105.782445 55.425455 
L 106.121003 66.407273 
L 106.459561 53.229091 
L 107.136677 62.014545 
L 107.475235 57.621818 
L 107.813793 59.818182 
L 108.152351 72.996364 
L 108.490909 57.621818 
L 108.829467 57.621818 
L 109.506583 72.996364 
L 109.845141 62.014545 
L 110.183699 55.425455 
L 110.522257 68.603636 
L 110.860815 62.014545 
L 111.199373 66.407273 
L 111.876489 53.229091 
L 112.215047 57.621818 
L 112.553605 57.621818 
L 112.892163 53.229091 
L 113.230721 64.210909 
L 113.569279 59.818182 
L 113.907837 59.818182 
L 114.246395 53.229091 
L 114.584953 55.425455 
L 114.923511 66.407273 
L 115.262069 70.8 
L 115.600627 68.603636 
L 115.939185 55.425455 
L 116.277743 62.014545 
L 116.616301 57.621818 
L 117.970533 57.621818 
L 118.309091 59.818182 
L 118.647649 57.621818 
L 118.986207 51.032727 
L 119.324765 48.836364 
L 119.663323 57.621818 
L 120.340439 66.407273 
L 120.678997 51.032727 
L 121.017555 57.621818 
L 121.356113 68.603636 
L 121.694671 51.032727 
L 122.033229 59.818182 
L 122.710345 55.425455 
L 123.048903 57.621818 
L 123.726019 57.621818 
L 124.064577 48.836364 
L 124.403135 55.425455 
L 125.080251 55.425455 
L 125.418809 59.818182 
L 125.757367 48.836364 
L 126.095925 59.818182 
L 126.434483 59.818182 
L 126.773041 57.621818 
L 127.111599 46.64 
L 127.450157 46.64 
L 128.127273 51.032727 
L 128.465831 57.621818 
L 128.804389 57.621818 
L 129.142947 51.032727 
L 129.481505 55.425455 
L 129.820063 51.032727 
L 130.497179 55.425455 
L 130.835737 59.818182 
L 131.512853 46.64 
L 131.851411 59.818182 
L 132.189969 46.64 
L 132.528527 57.621818 
L 132.867085 53.229091 
L 133.205643 55.425455 
L 133.544201 53.229091 
L 133.882759 66.407273 
L 134.221317 48.836364 
L 134.559875 48.836364 
L 134.898433 55.425455 
L 135.236991 51.032727 
L 135.575549 51.032727 
L 135.914107 55.425455 
L 136.252665 51.032727 
L 136.591223 53.229091 
L 136.929781 57.621818 
L 137.268339 55.425455 
L 137.606897 44.443636 
L 137.945455 53.229091 
L 138.284013 51.032727 
L 138.622571 55.425455 
L 138.961129 51.032727 
L 139.299687 57.621818 
L 139.638245 59.818182 
L 139.976803 48.836364 
L 140.315361 55.425455 
L 140.653918 53.229091 
L 140.992476 57.621818 
L 141.331034 48.836364 
L 141.669592 53.229091 
L 142.00815 53.229091 
L 142.346708 55.425455 
L 142.685266 51.032727 
L 143.023824 53.229091 
L 143.362382 57.621818 
L 143.70094 55.425455 
L 144.039498 44.443636 
L 144.378056 51.032727 
L 144.716614 48.836364 
L 145.055172 44.443636 
L 145.39373 51.032727 
L 145.732288 48.836364 
L 146.070846 55.425455 
L 146.409404 51.032727 
L 146.747962 48.836364 
L 147.08652 53.229091 
L 147.425078 51.032727 
L 147.763636 44.443636 
L 148.102194 48.836364 
L 148.440752 55.425455 
L 148.77931 53.229091 
L 149.117868 46.64 
L 149.456426 46.64 
L 149.794984 53.229091 
L 150.133542 57.621818 
L 150.4721 46.64 
L 150.810658 53.229091 
L 151.149216 48.836364 
L 151.487774 57.621818 
L 151.826332 51.032727 
L 152.16489 48.836364 
L 152.842006 48.836364 
L 153.180564 44.443636 
L 153.519122 44.443636 
L 153.85768 46.64 
L 154.196238 51.032727 
L 154.534796 48.836364 
L 154.873354 51.032727 
L 155.211912 48.836364 
L 155.55047 48.836364 
L 155.889028 46.64 
L 156.227586 46.64 
L 156.566144 48.836364 
L 156.904702 48.836364 
L 157.24326 57.621818 
L 157.581818 46.64 
L 157.920376 46.64 
L 158.597492 55.425455 
L 158.93605 55.425455 
L 159.274608 66.407273 
L 159.951724 46.64 
L 160.62884 51.032727 
L 160.967398 46.64 
L 161.644514 51.032727 
L 161.983072 51.032727 
L 162.32163 53.229091 
L 162.998746 48.836364 
L 163.675862 48.836364 
L 164.01442 46.64 
L 164.352978 51.032727 
L 164.691536 46.64 
L 165.368652 46.64 
L 165.70721 44.443636 
L 166.045768 51.032727 
L 166.384326 51.032727 
L 166.722884 48.836364 
L 167.4 48.836364 
L 167.738558 46.64 
L 168.077116 48.836364 
L 168.754232 48.836364 
L 169.09279 55.425455 
L 169.431348 51.032727 
L 169.769906 53.229091 
L 170.108464 51.032727 
L 170.447022 44.443636 
L 170.78558 46.64 
L 171.462696 46.64 
L 171.801254 48.836364 
L 172.139812 46.64 
L 172.47837 48.836364 
L 172.816928 53.229091 
L 173.155486 51.032727 
L 173.494044 46.64 
L 173.832602 48.836364 
L 174.17116 48.836364 
L 174.509718 46.64 
L 174.848276 53.229091 
L 175.186834 44.443636 
L 175.525392 51.032727 
L 175.86395 55.425455 
L 176.202508 44.443636 
L 176.541066 48.836364 
L 176.879624 46.64 
L 177.218182 46.64 
L 177.55674 44.443636 
L 177.895298 51.032727 
L 178.233856 48.836364 
L 178.572414 48.836364 
L 178.910972 46.64 
L 179.24953 46.64 
L 179.588088 57.621818 
L 179.926646 46.64 
L 180.94232 46.64 
L 181.280878 51.032727 
L 181.957994 46.64 
L 182.296552 51.032727 
L 182.63511 53.229091 
L 183.312226 44.443636 
L 183.650784 48.836364 
L 183.989342 48.836364 
L 184.3279 53.229091 
L 184.666458 51.032727 
L 185.005016 46.64 
L 185.343574 51.032727 
L 185.682132 44.443636 
L 186.02069 48.836364 
L 186.359248 51.032727 
L 186.697806 46.64 
L 187.374922 46.64 
L 187.71348 53.229091 
L 188.390596 44.443636 
L 188.729154 44.443636 
L 189.067712 48.836364 
L 189.40627 48.836364 
L 189.744828 44.443636 
L 190.083386 46.64 
L 190.421944 51.032727 
L 190.760502 46.64 
L 191.09906 44.443636 
L 191.437618 46.64 
L 192.114734 46.64 
L 192.453292 44.443636 
L 192.79185 48.836364 
L 193.130408 46.64 
L 193.468966 51.032727 
L 193.807524 44.443636 
L 194.484639 48.836364 
L 194.823197 48.836364 
L 195.500313 44.443636 
L 195.838871 51.032727 
L 196.177429 44.443636 
L 196.515987 44.443636 
L 196.854545 46.64 
L 197.193103 46.64 
L 197.531661 51.032727 
L 197.870219 46.64 
L 198.208777 46.64 
L 198.547335 44.443636 
L 198.885893 44.443636 
L 199.224451 46.64 
L 199.563009 51.032727 
L 199.901567 44.443636 
L 200.240125 44.443636 
L 200.917241 48.836364 
L 201.255799 48.836364 
L 201.594357 46.64 
L 201.932915 46.64 
L 202.271473 44.443636 
L 202.610031 46.64 
L 203.625705 46.64 
L 203.964263 44.443636 
L 204.302821 44.443636 
L 204.979937 48.836364 
L 205.318495 44.443636 
L 205.657053 46.64 
L 205.995611 51.032727 
L 206.334169 46.64 
L 206.672727 44.443636 
L 207.349843 44.443636 
L 207.688401 48.836364 
L 208.026959 51.032727 
L 208.365517 44.443636 
L 209.042633 48.836364 
L 209.381191 48.836364 
L 209.719749 46.64 
L 210.058307 46.64 
L 210.396865 44.443636 
L 210.735423 46.64 
L 211.073981 53.229091 
L 211.412539 44.443636 
L 211.751097 44.443636 
L 212.089655 48.836364 
L 212.428213 44.443636 
L 212.766771 53.229091 
L 213.105329 44.443636 
L 213.443887 48.836364 
L 213.782445 44.443636 
L 214.121003 48.836364 
L 214.459561 44.443636 
L 216.490909 44.443636 
L 216.829467 53.229091 
L 217.168025 51.032727 
L 217.506583 44.443636 
L 218.183699 48.836364 
L 218.522257 44.443636 
L 219.199373 44.443636 
L 219.537931 46.64 
L 219.876489 46.64 
L 220.215047 44.443636 
L 220.553605 44.443636 
L 220.892163 46.64 
L 221.230721 44.443636 
L 221.569279 48.836364 
L 221.907837 44.443636 
L 222.246395 46.64 
L 222.584953 51.032727 
L 222.923511 44.443636 
L 223.262069 46.64 
L 223.600627 44.443636 
L 223.939185 44.443636 
L 224.616301 48.836364 
L 224.954859 44.443636 
L 225.293417 51.032727 
L 225.631975 44.443636 
L 225.970533 48.836364 
L 226.309091 46.64 
L 226.986207 46.64 
L 227.324765 44.443636 
L 227.663323 48.836364 
L 228.001881 44.443636 
L 228.678997 48.836364 
L 229.017555 44.443636 
L 230.033229 44.443636 
L 230.371787 51.032727 
L 230.710345 44.443636 
L 231.048903 48.836364 
L 231.726019 44.443636 
L 232.064577 46.64 
L 232.403135 46.64 
L 233.080251 51.032727 
L 233.418809 46.64 
L 233.757367 44.443636 
L 234.095925 48.836364 
L 234.773041 44.443636 
L 235.111599 48.836364 
L 235.788715 44.443636 
L 236.127273 46.64 
L 236.465831 46.64 
L 236.804389 44.443636 
L 237.142947 46.64 
L 237.481505 46.64 
L 237.820063 44.443636 
L 238.497179 48.836364 
L 239.174295 48.836364 
L 239.512853 51.032727 
L 239.851411 46.64 
L 240.189969 44.443636 
L 240.528527 51.032727 
L 240.867085 46.64 
L 241.205643 48.836364 
L 241.544201 44.443636 
L 242.221317 48.836364 
L 242.559875 46.64 
L 243.236991 46.64 
L 243.575549 44.443636 
L 244.252665 44.443636 
L 244.591223 46.64 
L 244.929781 46.64 
L 245.268339 44.443636 
L 245.606897 46.64 
L 245.945455 44.443636 
L 246.622571 48.836364 
L 247.299687 44.443636 
L 247.638245 44.443636 
L 247.976803 46.64 
L 248.315361 44.443636 
L 248.653918 48.836364 
L 248.992476 48.836364 
L 249.331034 44.443636 
L 249.669592 46.64 
L 250.00815 44.443636 
L 250.346708 44.443636 
L 250.685266 46.64 
L 251.70094 46.64 
L 252.039498 48.836364 
L 252.378056 46.64 
L 252.716614 51.032727 
L 253.055172 46.64 
L 253.39373 44.443636 
L 254.070846 44.443636 
L 254.409404 46.64 
L 254.747962 44.443636 
L 255.08652 46.64 
L 255.425078 44.443636 
L 257.456426 44.443636 
L 257.794984 48.836364 
L 258.4721 44.443636 
L 258.810658 48.836364 
L 259.149216 46.64 
L 259.487774 48.836364 
L 259.826332 44.443636 
L 260.16489 48.836364 
L 260.503448 46.64 
L 260.842006 46.64 
L 261.180564 44.443636 
L 261.85768 44.443636 
L 262.196238 46.64 
L 262.534796 44.443636 
L 262.873354 44.443636 
L 263.211912 48.836364 
L 263.55047 46.64 
L 263.889028 46.64 
L 264.227586 44.443636 
L 264.566144 46.64 
L 264.904702 44.443636 
L 266.258934 44.443636 
L 266.597492 46.64 
L 266.93605 46.64 
L 267.274608 44.443636 
L 267.613166 46.64 
L 267.951724 44.443636 
L 268.290282 46.64 
L 268.62884 46.64 
L 268.967398 44.443636 
L 269.305956 46.64 
L 269.644514 44.443636 
L 272.352978 44.443636 
L 272.691536 48.836364 
L 273.030094 44.443636 
L 273.368652 46.64 
L 273.70721 44.443636 
L 275.4 44.443636 
L 275.738558 48.836364 
L 276.077116 44.443636 
L 276.415674 46.64 
L 276.754232 44.443636 
L 277.09279 46.64 
L 277.431348 44.443636 
L 277.769906 46.64 
L 278.108464 44.443636 
L 280.139812 44.443636 
L 280.47837 46.64 
L 281.155486 46.64 
L 281.494044 48.836364 
L 281.832602 46.64 
L 282.17116 46.64 
L 282.509718 44.443636 
L 285.218182 44.443636 
L 285.55674 46.64 
L 285.895298 44.443636 
L 286.572414 44.443636 
L 286.910972 46.64 
L 287.24953 44.443636 
L 288.265204 44.443636 
L 288.603762 46.64 
L 289.280878 46.64 
L 289.619436 48.836364 
L 290.296552 44.443636 
L 290.63511 46.64 
L 290.973668 44.443636 
L 291.312226 44.443636 
L 291.650784 48.836364 
L 291.989342 46.64 
L 292.3279 46.64 
L 292.666458 44.443636 
L 293.005016 46.64 
L 293.343574 46.64 
L 293.682132 44.443636 
L 294.02069 44.443636 
L 294.359248 46.64 
L 294.697806 46.64 
L 295.036364 44.443636 
L 297.067712 44.443636 
L 297.40627 46.64 
L 297.744828 44.443636 
L 298.083386 46.64 
L 298.421944 44.443636 
L 298.760502 46.64 
L 299.09906 44.443636 
L 299.437618 44.443636 
L 299.776176 46.64 
L 300.114734 44.443636 
L 300.453292 46.64 
L 300.79185 44.443636 
L 301.468966 48.836364 
L 301.807524 48.836364 
L 302.146082 44.443636 
L 303.838871 44.443636 
L 304.177429 46.64 
L 304.515987 46.64 
L 304.854545 48.836364 
L 305.193103 44.443636 
L 305.870219 44.443636 
L 306.208777 48.836364 
L 306.547335 44.443636 
L 306.885893 46.64 
L 307.224451 46.64 
L 307.563009 44.443636 
L 307.901567 46.64 
L 308.578683 46.64 
L 308.917241 48.836364 
L 309.255799 44.443636 
L 310.271473 44.443636 
L 310.610031 46.64 
L 311.287147 46.64 
L 311.625705 44.443636 
L 312.302821 44.443636 
L 312.641379 46.64 
L 312.979937 46.64 
L 313.318495 44.443636 
L 313.657053 44.443636 
L 313.995611 46.64 
L 314.334169 51.032727 
L 314.672727 44.443636 
L 317.042633 44.443636 
L 317.381191 48.836364 
L 317.719749 44.443636 
L 318.058307 48.836364 
L 318.396865 44.443636 
L 321.443887 44.443636 
L 321.782445 46.64 
L 322.121003 44.443636 
L 323.475235 44.443636 
L 323.813793 46.64 
L 324.152351 44.443636 
L 324.829467 44.443636 
L 325.168025 46.64 
L 325.845141 46.64 
L 326.183699 44.443636 
L 327.537931 44.443636 
L 327.876489 46.64 
L 328.215047 44.443636 
L 332.616301 44.443636 
L 332.954859 46.64 
L 333.293417 44.443636 
L 333.631975 44.443636 
L 333.970533 46.64 
L 334.309091 44.443636 
L 337.694671 44.443636 
L 338.033229 46.64 
L 338.371787 44.443636 
L 338.710345 44.443636 
L 339.048903 46.64 
L 339.387461 44.443636 
L 340.403135 44.443636 
L 340.741693 46.64 
L 341.080251 44.443636 
L 341.418809 46.64 
L 341.757367 44.443636 
L 342.095925 46.64 
L 342.434483 44.443636 
L 343.111599 44.443636 
L 343.450157 46.64 
L 343.788715 44.443636 
L 349.544201 44.443636 
L 349.882759 46.64 
L 350.221317 46.64 
L 350.559875 44.443636 
L 351.914107 44.443636 
L 352.252665 46.64 
L 352.591223 44.443636 
L 354.284013 44.443636 
L 354.622571 46.64 
L 354.961129 44.443636 
L 355.299687 46.64 
L 355.638245 44.443636 
L 356.653918 44.443636 
L 356.992476 46.64 
L 357.331034 44.443636 
L 358.685266 44.443636 
L 359.023824 46.64 
L 359.70094 46.64 
L 360.039498 44.443636 
L 360.716614 44.443636 
L 361.055172 46.64 
L 361.39373 44.443636 
L 366.133542 44.443636 
L 366.4721 46.64 
L 366.810658 44.443636 
L 370.196238 44.443636 
L 370.534796 48.836364 
L 370.873354 44.443636 
L 371.55047 44.443636 
L 371.889028 46.64 
L 372.566144 46.64 
L 372.904702 44.443636 
L 373.581818 44.443636 
L 373.581818 44.443636 
" style="fill:none;stroke:#ff7f0e;stroke-linecap:square;stroke-width:1.5;"/>
   </g>
   <g id="patch_3">
    <path d="M 54 252 
L 54 34.56 
" style="fill:none;stroke:#000000;stroke-linecap:square;stroke-linejoin:miter;stroke-width:0.8;"/>
   </g>
   <g id="patch_4">
    <path d="M 388.8 252 
L 388.8 34.56 
" style="fill:none;stroke:#000000;stroke-linecap:square;stroke-linejoin:miter;stroke-width:0.8;"/>
   </g>
   <g id="patch_5">
    <path d="M 54 252 
L 388.8 252 
" style="fill:none;stroke:#000000;stroke-linecap:square;stroke-linejoin:miter;stroke-width:0.8;"/>
   </g>
   <g id="patch_6">
    <path d="M 54 34.56 
L 388.8 34.56 
" style="fill:none;stroke:#000000;stroke-linecap:square;stroke-linejoin:miter;stroke-width:0.8;"/>
   </g>
   <g id="text_13">
    <!-- Model accuracy -->
    <g transform="translate(158.74125 28.56)scale(0.16 -0.16)">
     <defs>
      <path d="M 628 4666 
L 1569 4666 
L 2759 1491 
L 3956 4666 
L 4897 4666 
L 4897 0 
L 4281 0 
L 4281 4097 
L 3078 897 
L 2444 897 
L 1241 4097 
L 1241 0 
L 628 0 
L 628 4666 
z
" id="DejaVuSans-4d" transform="scale(0.015625)"/>
      <path d="M 1959 3097 
Q 1497 3097 1228 2736 
Q 959 2375 959 1747 
Q 959 1119 1226 758 
Q 1494 397 1959 397 
Q 2419 397 2687 759 
Q 2956 1122 2956 1747 
Q 2956 2369 2687 2733 
Q 2419 3097 1959 3097 
z
M 1959 3584 
Q 2709 3584 3137 3096 
Q 3566 2609 3566 1747 
Q 3566 888 3137 398 
Q 2709 -91 1959 -91 
Q 1206 -91 779 398 
Q 353 888 353 1747 
Q 353 2609 779 3096 
Q 1206 3584 1959 3584 
z
" id="DejaVuSans-6f" transform="scale(0.015625)"/>
      <path d="M 2906 2969 
L 2906 4863 
L 3481 4863 
L 3481 0 
L 2906 0 
L 2906 525 
Q 2725 213 2448 61 
Q 2172 -91 1784 -91 
Q 1150 -91 751 415 
Q 353 922 353 1747 
Q 353 2572 751 3078 
Q 1150 3584 1784 3584 
Q 2172 3584 2448 3432 
Q 2725 3281 2906 2969 
z
M 947 1747 
Q 947 1113 1208 752 
Q 1469 391 1925 391 
Q 2381 391 2643 752 
Q 2906 1113 2906 1747 
Q 2906 2381 2643 2742 
Q 2381 3103 1925 3103 
Q 1469 3103 1208 2742 
Q 947 2381 947 1747 
z
" id="DejaVuSans-64" transform="scale(0.015625)"/>
     </defs>
     <use xlink:href="#DejaVuSans-4d"/>
     <use x="86.279297" xlink:href="#DejaVuSans-6f"/>
     <use x="147.460938" xlink:href="#DejaVuSans-64"/>
     <use x="210.9375" xlink:href="#DejaVuSans-65"/>
     <use x="272.460938" xlink:href="#DejaVuSans-6c"/>
     <use x="300.244141" xlink:href="#DejaVuSans-20"/>
     <use x="332.03125" xlink:href="#DejaVuSans-61"/>
     <use x="393.310547" xlink:href="#DejaVuSans-63"/>
     <use x="448.291016" xlink:href="#DejaVuSans-63"/>
     <use x="503.271484" xlink:href="#DejaVuSans-75"/>
     <use x="566.650391" xlink:href="#DejaVuSans-72"/>
     <use x="607.763672" xlink:href="#DejaVuSans-61"/>
     <use x="669.042969" xlink:href="#DejaVuSans-63"/>
     <use x="724.023438" xlink:href="#DejaVuSans-79"/>
    </g>
   </g>
   <g id="legend_1">
    <g id="patch_7">
     <path d="M 220.889062 247 
L 381.8 247 
Q 383.8 247 383.8 245 
L 383.8 216.64375 
Q 383.8 214.64375 381.8 214.64375 
L 220.889062 214.64375 
Q 218.889062 214.64375 218.889062 216.64375 
L 218.889062 245 
Q 218.889062 247 220.889062 247 
z
" style="fill:#ffffff;opacity:0.8;stroke:#cccccc;stroke-linejoin:miter;"/>
    </g>
    <g id="line2d_23">
     <path d="M 222.889062 222.742188 
L 242.889062 222.742188 
" style="fill:none;stroke:#1f77b4;stroke-linecap:square;stroke-width:1.5;"/>
    </g>
    <g id="line2d_24"/>
    <g id="text_14">
     <!-- Accuracy on test data -->
     <g transform="translate(250.889062 226.242188)scale(0.1 -0.1)">
      <defs>
       <path d="M 1172 4494 
L 1172 3500 
L 2356 3500 
L 2356 3053 
L 1172 3053 
L 1172 1153 
Q 1172 725 1289 603 
Q 1406 481 1766 481 
L 2356 481 
L 2356 0 
L 1766 0 
Q 1100 0 847 248 
Q 594 497 594 1153 
L 594 3053 
L 172 3053 
L 172 3500 
L 594 3500 
L 594 4494 
L 1172 4494 
z
" id="DejaVuSans-74" transform="scale(0.015625)"/>
      </defs>
      <use xlink:href="#DejaVuSans-41"/>
      <use x="66.658203" xlink:href="#DejaVuSans-63"/>
      <use x="121.638672" xlink:href="#DejaVuSans-63"/>
      <use x="176.619141" xlink:href="#DejaVuSans-75"/>
      <use x="239.998047" xlink:href="#DejaVuSans-72"/>
      <use x="281.111328" xlink:href="#DejaVuSans-61"/>
      <use x="342.390625" xlink:href="#DejaVuSans-63"/>
      <use x="397.371094" xlink:href="#DejaVuSans-79"/>
      <use x="456.550781" xlink:href="#DejaVuSans-20"/>
      <use x="488.337891" xlink:href="#DejaVuSans-6f"/>
      <use x="549.519531" xlink:href="#DejaVuSans-6e"/>
      <use x="612.898438" xlink:href="#DejaVuSans-20"/>
      <use x="644.685547" xlink:href="#DejaVuSans-74"/>
      <use x="683.894531" xlink:href="#DejaVuSans-65"/>
      <use x="745.417969" xlink:href="#DejaVuSans-73"/>
      <use x="797.517578" xlink:href="#DejaVuSans-74"/>
      <use x="836.726562" xlink:href="#DejaVuSans-20"/>
      <use x="868.513672" xlink:href="#DejaVuSans-64"/>
      <use x="931.990234" xlink:href="#DejaVuSans-61"/>
      <use x="993.269531" xlink:href="#DejaVuSans-74"/>
      <use x="1032.478516" xlink:href="#DejaVuSans-61"/>
     </g>
    </g>
    <g id="line2d_25">
     <path d="M 222.889062 237.420312 
L 242.889062 237.420312 
" style="fill:none;stroke:#ff7f0e;stroke-linecap:square;stroke-width:1.5;"/>
    </g>
    <g id="line2d_26"/>
    <g id="text_15">
     <!-- Accuracy on training data -->
     <g transform="translate(250.889062 240.920312)scale(0.1 -0.1)">
      <use xlink:href="#DejaVuSans-41"/>
      <use x="66.658203" xlink:href="#DejaVuSans-63"/>
      <use x="121.638672" xlink:href="#DejaVuSans-63"/>
      <use x="176.619141" xlink:href="#DejaVuSans-75"/>
      <use x="239.998047" xlink:href="#DejaVuSans-72"/>
      <use x="281.111328" xlink:href="#DejaVuSans-61"/>
      <use x="342.390625" xlink:href="#DejaVuSans-63"/>
      <use x="397.371094" xlink:href="#DejaVuSans-79"/>
      <use x="456.550781" xlink:href="#DejaVuSans-20"/>
      <use x="488.337891" xlink:href="#DejaVuSans-6f"/>
      <use x="549.519531" xlink:href="#DejaVuSans-6e"/>
      <use x="612.898438" xlink:href="#DejaVuSans-20"/>
      <use x="644.685547" xlink:href="#DejaVuSans-74"/>
      <use x="683.894531" xlink:href="#DejaVuSans-72"/>
      <use x="725.007812" xlink:href="#DejaVuSans-61"/>
      <use x="786.287109" xlink:href="#DejaVuSans-69"/>
      <use x="814.070312" xlink:href="#DejaVuSans-6e"/>
      <use x="877.449219" xlink:href="#DejaVuSans-69"/>
      <use x="905.232422" xlink:href="#DejaVuSans-6e"/>
      <use x="968.611328" xlink:href="#DejaVuSans-67"/>
      <use x="1032.087891" xlink:href="#DejaVuSans-20"/>
      <use x="1063.875" xlink:href="#DejaVuSans-64"/>
      <use x="1127.351562" xlink:href="#DejaVuSans-61"/>
      <use x="1188.630859" xlink:href="#DejaVuSans-74"/>
      <use x="1227.839844" xlink:href="#DejaVuSans-61"/>
     </g>
    </g>
   </g>
  </g>
 </g>
 <defs>
  <clipPath id="pe3de00cd2b">
   <rect height="217.44" width="334.8" x="54" y="34.56"/>
  </clipPath>
 </defs>
</svg>
