<?xml version="1.0" encoding="utf-8" standalone="no"?>
<!DOCTYPE svg PUBLIC "-//W3C//DTD SVG 1.1//EN"
  "http://www.w3.org/Graphics/SVG/1.1/DTD/svg11.dtd">
<svg height="288pt" version="1.1" viewBox="0 0 432 288" width="432pt" xmlns="http://www.w3.org/2000/svg" xmlns:xlink="http://www.w3.org/1999/xlink">
 <metadata>
  <rdf:RDF xmlns:cc="http://creativecommons.org/ns#" xmlns:dc="http://purl.org/dc/elements/1.1/" xmlns:rdf="http://www.w3.org/1999/02/22-rdf-syntax-ns#">
   <cc:Work>
    <dc:type rdf:resource="http://purl.org/dc/dcmitype/StillImage"/>
    <dc:date>2023-04-09T12:09:36.278074</dc:date>
    <dc:format>image/svg+xml</dc:format>
    <dc:creator>
     <cc:Agent>
      <dc:title>Matplotlib v3.4.3, https://matplotlib.org/</dc:title>
     </cc:Agent>
    </dc:creator>
   </cc:Work>
  </rdf:RDF>
 </metadata>
 <defs>
  <style type="text/css">*{stroke-linecap:butt;stroke-linejoin:round;}</style>
 </defs>
 <g id="figure_1">
  <g id="patch_1">
   <path d="M 0 288 
L 432 288 
L 432 0 
L 0 0 
z
" style="fill:none;"/>
  </g>
  <g id="axes_1">
   <g id="patch_2">
    <path d="M 54 252 
L 388.8 252 
L 388.8 34.56 
L 54 34.56 
z
" style="fill:#ffffff;"/>
   </g>
   <g id="matplotlib.axis_1">
    <g id="xtick_1">
     <g id="line2d_1">
      <path clip-path="url(#pd1eac245df)" d="M 69.218182 252 
L 69.218182 34.56 
" style="fill:none;stroke:#b0b0b0;stroke-linecap:square;stroke-width:0.8;"/>
     </g>
     <g id="line2d_2">
      <defs>
       <path d="M 0 0 
L 0 3.5 
" id="m7eaab34ed1" style="stroke:#000000;stroke-width:0.8;"/>
      </defs>
      <g>
       <use style="stroke:#000000;stroke-width:0.8;" x="69.218182" xlink:href="#m7eaab34ed1" y="252"/>
      </g>
     </g>
     <g id="text_1">
      <!-- 0 -->
      <g transform="translate(66.036932 266.598437)scale(0.1 -0.1)">
       <defs>
        <path d="M 2034 4250 
Q 1547 4250 1301 3770 
Q 1056 3291 1056 2328 
Q 1056 1369 1301 889 
Q 1547 409 2034 409 
Q 2525 409 2770 889 
Q 3016 1369 3016 2328 
Q 3016 3291 2770 3770 
Q 2525 4250 2034 4250 
z
M 2034 4750 
Q 2819 4750 3233 4129 
Q 3647 3509 3647 2328 
Q 3647 1150 3233 529 
Q 2819 -91 2034 -91 
Q 1250 -91 836 529 
Q 422 1150 422 2328 
Q 422 3509 836 4129 
Q 1250 4750 2034 4750 
z
" id="DejaVuSans-30" transform="scale(0.015625)"/>
       </defs>
       <use xlink:href="#DejaVuSans-30"/>
      </g>
     </g>
    </g>
    <g id="xtick_2">
     <g id="line2d_3">
      <path clip-path="url(#pd1eac245df)" d="M 120.157703 252 
L 120.157703 34.56 
" style="fill:none;stroke:#b0b0b0;stroke-linecap:square;stroke-width:0.8;"/>
     </g>
     <g id="line2d_4">
      <g>
       <use style="stroke:#000000;stroke-width:0.8;" x="120.157703" xlink:href="#m7eaab34ed1" y="252"/>
      </g>
     </g>
     <g id="text_2">
      <!-- 20000 -->
      <g transform="translate(104.251453 266.598437)scale(0.1 -0.1)">
       <defs>
        <path d="M 1228 531 
L 3431 531 
L 3431 0 
L 469 0 
L 469 531 
Q 828 903 1448 1529 
Q 2069 2156 2228 2338 
Q 2531 2678 2651 2914 
Q 2772 3150 2772 3378 
Q 2772 3750 2511 3984 
Q 2250 4219 1831 4219 
Q 1534 4219 1204 4116 
Q 875 4013 500 3803 
L 500 4441 
Q 881 4594 1212 4672 
Q 1544 4750 1819 4750 
Q 2544 4750 2975 4387 
Q 3406 4025 3406 3419 
Q 3406 3131 3298 2873 
Q 3191 2616 2906 2266 
Q 2828 2175 2409 1742 
Q 1991 1309 1228 531 
z
" id="DejaVuSans-32" transform="scale(0.015625)"/>
       </defs>
       <use xlink:href="#DejaVuSans-32"/>
       <use x="63.623047" xlink:href="#DejaVuSans-30"/>
       <use x="127.246094" xlink:href="#DejaVuSans-30"/>
       <use x="190.869141" xlink:href="#DejaVuSans-30"/>
       <use x="254.492188" xlink:href="#DejaVuSans-30"/>
      </g>
     </g>
    </g>
    <g id="xtick_3">
     <g id="line2d_5">
      <path clip-path="url(#pd1eac245df)" d="M 171.097223 252 
L 171.097223 34.56 
" style="fill:none;stroke:#b0b0b0;stroke-linecap:square;stroke-width:0.8;"/>
     </g>
     <g id="line2d_6">
      <g>
       <use style="stroke:#000000;stroke-width:0.8;" x="171.097223" xlink:href="#m7eaab34ed1" y="252"/>
      </g>
     </g>
     <g id="text_3">
      <!-- 40000 -->
      <g transform="translate(155.190973 266.598437)scale(0.1 -0.1)">
       <defs>
        <path d="M 2419 4116 
L 825 1625 
L 2419 1625 
L 2419 4116 
z
M 2253 4666 
L 3047 4666 
L 3047 1625 
L 3713 1625 
L 3713 1100 
L 3047 1100 
L 3047 0 
L 2419 0 
L 2419 1100 
L 313 1100 
L 313 1709 
L 2253 4666 
z
" id="DejaVuSans-34" transform="scale(0.015625)"/>
       </defs>
       <use xlink:href="#DejaVuSans-34"/>
       <use x="63.623047" xlink:href="#DejaVuSans-30"/>
       <use x="127.246094" xlink:href="#DejaVuSans-30"/>
       <use x="190.869141" xlink:href="#DejaVuSans-30"/>
       <use x="254.492188" xlink:href="#DejaVuSans-30"/>
      </g>
     </g>
    </g>
    <g id="xtick_4">
     <g id="line2d_7">
      <path clip-path="url(#pd1eac245df)" d="M 222.036744 252 
L 222.036744 34.56 
" style="fill:none;stroke:#b0b0b0;stroke-linecap:square;stroke-width:0.8;"/>
     </g>
     <g id="line2d_8">
      <g>
       <use style="stroke:#000000;stroke-width:0.8;" x="222.036744" xlink:href="#m7eaab34ed1" y="252"/>
      </g>
     </g>
     <g id="text_4">
      <!-- 60000 -->
      <g transform="translate(206.130494 266.598437)scale(0.1 -0.1)">
       <defs>
        <path d="M 2113 2584 
Q 1688 2584 1439 2293 
Q 1191 2003 1191 1497 
Q 1191 994 1439 701 
Q 1688 409 2113 409 
Q 2538 409 2786 701 
Q 3034 994 3034 1497 
Q 3034 2003 2786 2293 
Q 2538 2584 2113 2584 
z
M 3366 4563 
L 3366 3988 
Q 3128 4100 2886 4159 
Q 2644 4219 2406 4219 
Q 1781 4219 1451 3797 
Q 1122 3375 1075 2522 
Q 1259 2794 1537 2939 
Q 1816 3084 2150 3084 
Q 2853 3084 3261 2657 
Q 3669 2231 3669 1497 
Q 3669 778 3244 343 
Q 2819 -91 2113 -91 
Q 1303 -91 875 529 
Q 447 1150 447 2328 
Q 447 3434 972 4092 
Q 1497 4750 2381 4750 
Q 2619 4750 2861 4703 
Q 3103 4656 3366 4563 
z
" id="DejaVuSans-36" transform="scale(0.015625)"/>
       </defs>
       <use xlink:href="#DejaVuSans-36"/>
       <use x="63.623047" xlink:href="#DejaVuSans-30"/>
       <use x="127.246094" xlink:href="#DejaVuSans-30"/>
       <use x="190.869141" xlink:href="#DejaVuSans-30"/>
       <use x="254.492188" xlink:href="#DejaVuSans-30"/>
      </g>
     </g>
    </g>
    <g id="xtick_5">
     <g id="line2d_9">
      <path clip-path="url(#pd1eac245df)" d="M 272.976265 252 
L 272.976265 34.56 
" style="fill:none;stroke:#b0b0b0;stroke-linecap:square;stroke-width:0.8;"/>
     </g>
     <g id="line2d_10">
      <g>
       <use style="stroke:#000000;stroke-width:0.8;" x="272.976265" xlink:href="#m7eaab34ed1" y="252"/>
      </g>
     </g>
     <g id="text_5">
      <!-- 80000 -->
      <g transform="translate(257.070015 266.598437)scale(0.1 -0.1)">
       <defs>
        <path d="M 2034 2216 
Q 1584 2216 1326 1975 
Q 1069 1734 1069 1313 
Q 1069 891 1326 650 
Q 1584 409 2034 409 
Q 2484 409 2743 651 
Q 3003 894 3003 1313 
Q 3003 1734 2745 1975 
Q 2488 2216 2034 2216 
z
M 1403 2484 
Q 997 2584 770 2862 
Q 544 3141 544 3541 
Q 544 4100 942 4425 
Q 1341 4750 2034 4750 
Q 2731 4750 3128 4425 
Q 3525 4100 3525 3541 
Q 3525 3141 3298 2862 
Q 3072 2584 2669 2484 
Q 3125 2378 3379 2068 
Q 3634 1759 3634 1313 
Q 3634 634 3220 271 
Q 2806 -91 2034 -91 
Q 1263 -91 848 271 
Q 434 634 434 1313 
Q 434 1759 690 2068 
Q 947 2378 1403 2484 
z
M 1172 3481 
Q 1172 3119 1398 2916 
Q 1625 2713 2034 2713 
Q 2441 2713 2670 2916 
Q 2900 3119 2900 3481 
Q 2900 3844 2670 4047 
Q 2441 4250 2034 4250 
Q 1625 4250 1398 4047 
Q 1172 3844 1172 3481 
z
" id="DejaVuSans-38" transform="scale(0.015625)"/>
       </defs>
       <use xlink:href="#DejaVuSans-38"/>
       <use x="63.623047" xlink:href="#DejaVuSans-30"/>
       <use x="127.246094" xlink:href="#DejaVuSans-30"/>
       <use x="190.869141" xlink:href="#DejaVuSans-30"/>
       <use x="254.492188" xlink:href="#DejaVuSans-30"/>
      </g>
     </g>
    </g>
    <g id="xtick_6">
     <g id="line2d_11">
      <path clip-path="url(#pd1eac245df)" d="M 323.915785 252 
L 323.915785 34.56 
" style="fill:none;stroke:#b0b0b0;stroke-linecap:square;stroke-width:0.8;"/>
     </g>
     <g id="line2d_12">
      <g>
       <use style="stroke:#000000;stroke-width:0.8;" x="323.915785" xlink:href="#m7eaab34ed1" y="252"/>
      </g>
     </g>
     <g id="text_6">
      <!-- 100000 -->
      <g transform="translate(304.828285 266.598437)scale(0.1 -0.1)">
       <defs>
        <path d="M 794 531 
L 1825 531 
L 1825 4091 
L 703 3866 
L 703 4441 
L 1819 4666 
L 2450 4666 
L 2450 531 
L 3481 531 
L 3481 0 
L 794 0 
L 794 531 
z
" id="DejaVuSans-31" transform="scale(0.015625)"/>
       </defs>
       <use xlink:href="#DejaVuSans-31"/>
       <use x="63.623047" xlink:href="#DejaVuSans-30"/>
       <use x="127.246094" xlink:href="#DejaVuSans-30"/>
       <use x="190.869141" xlink:href="#DejaVuSans-30"/>
       <use x="254.492188" xlink:href="#DejaVuSans-30"/>
       <use x="318.115234" xlink:href="#DejaVuSans-30"/>
      </g>
     </g>
    </g>
    <g id="xtick_7">
     <g id="line2d_13">
      <path clip-path="url(#pd1eac245df)" d="M 374.855306 252 
L 374.855306 34.56 
" style="fill:none;stroke:#b0b0b0;stroke-linecap:square;stroke-width:0.8;"/>
     </g>
     <g id="line2d_14">
      <g>
       <use style="stroke:#000000;stroke-width:0.8;" x="374.855306" xlink:href="#m7eaab34ed1" y="252"/>
      </g>
     </g>
     <g id="text_7">
      <!-- 120000 -->
      <g transform="translate(355.767806 266.598437)scale(0.1 -0.1)">
       <use xlink:href="#DejaVuSans-31"/>
       <use x="63.623047" xlink:href="#DejaVuSans-32"/>
       <use x="127.246094" xlink:href="#DejaVuSans-30"/>
       <use x="190.869141" xlink:href="#DejaVuSans-30"/>
       <use x="254.492188" xlink:href="#DejaVuSans-30"/>
       <use x="318.115234" xlink:href="#DejaVuSans-30"/>
      </g>
     </g>
    </g>
    <g id="text_8">
     <!-- Training examples -->
     <g transform="translate(157.780937 283.315938)scale(0.14 -0.14)">
      <defs>
       <path d="M -19 4666 
L 3928 4666 
L 3928 4134 
L 2272 4134 
L 2272 0 
L 1638 0 
L 1638 4134 
L -19 4134 
L -19 4666 
z
" id="DejaVuSans-54" transform="scale(0.015625)"/>
       <path d="M 2631 2963 
Q 2534 3019 2420 3045 
Q 2306 3072 2169 3072 
Q 1681 3072 1420 2755 
Q 1159 2438 1159 1844 
L 1159 0 
L 581 0 
L 581 3500 
L 1159 3500 
L 1159 2956 
Q 1341 3275 1631 3429 
Q 1922 3584 2338 3584 
Q 2397 3584 2469 3576 
Q 2541 3569 2628 3553 
L 2631 2963 
z
" id="DejaVuSans-72" transform="scale(0.015625)"/>
       <path d="M 2194 1759 
Q 1497 1759 1228 1600 
Q 959 1441 959 1056 
Q 959 750 1161 570 
Q 1363 391 1709 391 
Q 2188 391 2477 730 
Q 2766 1069 2766 1631 
L 2766 1759 
L 2194 1759 
z
M 3341 1997 
L 3341 0 
L 2766 0 
L 2766 531 
Q 2569 213 2275 61 
Q 1981 -91 1556 -91 
Q 1019 -91 701 211 
Q 384 513 384 1019 
Q 384 1609 779 1909 
Q 1175 2209 1959 2209 
L 2766 2209 
L 2766 2266 
Q 2766 2663 2505 2880 
Q 2244 3097 1772 3097 
Q 1472 3097 1187 3025 
Q 903 2953 641 2809 
L 641 3341 
Q 956 3463 1253 3523 
Q 1550 3584 1831 3584 
Q 2591 3584 2966 3190 
Q 3341 2797 3341 1997 
z
" id="DejaVuSans-61" transform="scale(0.015625)"/>
       <path d="M 603 3500 
L 1178 3500 
L 1178 0 
L 603 0 
L 603 3500 
z
M 603 4863 
L 1178 4863 
L 1178 4134 
L 603 4134 
L 603 4863 
z
" id="DejaVuSans-69" transform="scale(0.015625)"/>
       <path d="M 3513 2113 
L 3513 0 
L 2938 0 
L 2938 2094 
Q 2938 2591 2744 2837 
Q 2550 3084 2163 3084 
Q 1697 3084 1428 2787 
Q 1159 2491 1159 1978 
L 1159 0 
L 581 0 
L 581 3500 
L 1159 3500 
L 1159 2956 
Q 1366 3272 1645 3428 
Q 1925 3584 2291 3584 
Q 2894 3584 3203 3211 
Q 3513 2838 3513 2113 
z
" id="DejaVuSans-6e" transform="scale(0.015625)"/>
       <path d="M 2906 1791 
Q 2906 2416 2648 2759 
Q 2391 3103 1925 3103 
Q 1463 3103 1205 2759 
Q 947 2416 947 1791 
Q 947 1169 1205 825 
Q 1463 481 1925 481 
Q 2391 481 2648 825 
Q 2906 1169 2906 1791 
z
M 3481 434 
Q 3481 -459 3084 -895 
Q 2688 -1331 1869 -1331 
Q 1566 -1331 1297 -1286 
Q 1028 -1241 775 -1147 
L 775 -588 
Q 1028 -725 1275 -790 
Q 1522 -856 1778 -856 
Q 2344 -856 2625 -561 
Q 2906 -266 2906 331 
L 2906 616 
Q 2728 306 2450 153 
Q 2172 0 1784 0 
Q 1141 0 747 490 
Q 353 981 353 1791 
Q 353 2603 747 3093 
Q 1141 3584 1784 3584 
Q 2172 3584 2450 3431 
Q 2728 3278 2906 2969 
L 2906 3500 
L 3481 3500 
L 3481 434 
z
" id="DejaVuSans-67" transform="scale(0.015625)"/>
       <path id="DejaVuSans-20" transform="scale(0.015625)"/>
       <path d="M 3597 1894 
L 3597 1613 
L 953 1613 
Q 991 1019 1311 708 
Q 1631 397 2203 397 
Q 2534 397 2845 478 
Q 3156 559 3463 722 
L 3463 178 
Q 3153 47 2828 -22 
Q 2503 -91 2169 -91 
Q 1331 -91 842 396 
Q 353 884 353 1716 
Q 353 2575 817 3079 
Q 1281 3584 2069 3584 
Q 2775 3584 3186 3129 
Q 3597 2675 3597 1894 
z
M 3022 2063 
Q 3016 2534 2758 2815 
Q 2500 3097 2075 3097 
Q 1594 3097 1305 2825 
Q 1016 2553 972 2059 
L 3022 2063 
z
" id="DejaVuSans-65" transform="scale(0.015625)"/>
       <path d="M 3513 3500 
L 2247 1797 
L 3578 0 
L 2900 0 
L 1881 1375 
L 863 0 
L 184 0 
L 1544 1831 
L 300 3500 
L 978 3500 
L 1906 2253 
L 2834 3500 
L 3513 3500 
z
" id="DejaVuSans-78" transform="scale(0.015625)"/>
       <path d="M 3328 2828 
Q 3544 3216 3844 3400 
Q 4144 3584 4550 3584 
Q 5097 3584 5394 3201 
Q 5691 2819 5691 2113 
L 5691 0 
L 5113 0 
L 5113 2094 
Q 5113 2597 4934 2840 
Q 4756 3084 4391 3084 
Q 3944 3084 3684 2787 
Q 3425 2491 3425 1978 
L 3425 0 
L 2847 0 
L 2847 2094 
Q 2847 2600 2669 2842 
Q 2491 3084 2119 3084 
Q 1678 3084 1418 2786 
Q 1159 2488 1159 1978 
L 1159 0 
L 581 0 
L 581 3500 
L 1159 3500 
L 1159 2956 
Q 1356 3278 1631 3431 
Q 1906 3584 2284 3584 
Q 2666 3584 2933 3390 
Q 3200 3197 3328 2828 
z
" id="DejaVuSans-6d" transform="scale(0.015625)"/>
       <path d="M 1159 525 
L 1159 -1331 
L 581 -1331 
L 581 3500 
L 1159 3500 
L 1159 2969 
Q 1341 3281 1617 3432 
Q 1894 3584 2278 3584 
Q 2916 3584 3314 3078 
Q 3713 2572 3713 1747 
Q 3713 922 3314 415 
Q 2916 -91 2278 -91 
Q 1894 -91 1617 61 
Q 1341 213 1159 525 
z
M 3116 1747 
Q 3116 2381 2855 2742 
Q 2594 3103 2138 3103 
Q 1681 3103 1420 2742 
Q 1159 2381 1159 1747 
Q 1159 1113 1420 752 
Q 1681 391 2138 391 
Q 2594 391 2855 752 
Q 3116 1113 3116 1747 
z
" id="DejaVuSans-70" transform="scale(0.015625)"/>
       <path d="M 603 4863 
L 1178 4863 
L 1178 0 
L 603 0 
L 603 4863 
z
" id="DejaVuSans-6c" transform="scale(0.015625)"/>
       <path d="M 2834 3397 
L 2834 2853 
Q 2591 2978 2328 3040 
Q 2066 3103 1784 3103 
Q 1356 3103 1142 2972 
Q 928 2841 928 2578 
Q 928 2378 1081 2264 
Q 1234 2150 1697 2047 
L 1894 2003 
Q 2506 1872 2764 1633 
Q 3022 1394 3022 966 
Q 3022 478 2636 193 
Q 2250 -91 1575 -91 
Q 1294 -91 989 -36 
Q 684 19 347 128 
L 347 722 
Q 666 556 975 473 
Q 1284 391 1588 391 
Q 1994 391 2212 530 
Q 2431 669 2431 922 
Q 2431 1156 2273 1281 
Q 2116 1406 1581 1522 
L 1381 1569 
Q 847 1681 609 1914 
Q 372 2147 372 2553 
Q 372 3047 722 3315 
Q 1072 3584 1716 3584 
Q 2034 3584 2315 3537 
Q 2597 3491 2834 3397 
z
" id="DejaVuSans-73" transform="scale(0.015625)"/>
      </defs>
      <use xlink:href="#DejaVuSans-54"/>
      <use x="46.333984" xlink:href="#DejaVuSans-72"/>
      <use x="87.447266" xlink:href="#DejaVuSans-61"/>
      <use x="148.726562" xlink:href="#DejaVuSans-69"/>
      <use x="176.509766" xlink:href="#DejaVuSans-6e"/>
      <use x="239.888672" xlink:href="#DejaVuSans-69"/>
      <use x="267.671875" xlink:href="#DejaVuSans-6e"/>
      <use x="331.050781" xlink:href="#DejaVuSans-67"/>
      <use x="394.527344" xlink:href="#DejaVuSans-20"/>
      <use x="426.314453" xlink:href="#DejaVuSans-65"/>
      <use x="486.087891" xlink:href="#DejaVuSans-78"/>
      <use x="545.267578" xlink:href="#DejaVuSans-61"/>
      <use x="606.546875" xlink:href="#DejaVuSans-6d"/>
      <use x="703.958984" xlink:href="#DejaVuSans-70"/>
      <use x="767.435547" xlink:href="#DejaVuSans-6c"/>
      <use x="795.21875" xlink:href="#DejaVuSans-65"/>
      <use x="856.742188" xlink:href="#DejaVuSans-73"/>
     </g>
    </g>
   </g>
   <g id="matplotlib.axis_2">
    <g id="ytick_1">
     <g id="line2d_15">
      <path clip-path="url(#pd1eac245df)" d="M 54 241.374306 
L 388.8 241.374306 
" style="fill:none;stroke:#b0b0b0;stroke-linecap:square;stroke-width:0.8;"/>
     </g>
     <g id="line2d_16">
      <defs>
       <path d="M 0 0 
L -3.5 0 
" id="m724211efaa" style="stroke:#000000;stroke-width:0.8;"/>
      </defs>
      <g>
       <use style="stroke:#000000;stroke-width:0.8;" x="54" xlink:href="#m724211efaa" y="241.374306"/>
      </g>
     </g>
     <g id="text_9">
      <!-- 0.3 -->
      <g transform="translate(31.096875 245.173525)scale(0.1 -0.1)">
       <defs>
        <path d="M 684 794 
L 1344 794 
L 1344 0 
L 684 0 
L 684 794 
z
" id="DejaVuSans-2e" transform="scale(0.015625)"/>
        <path d="M 2597 2516 
Q 3050 2419 3304 2112 
Q 3559 1806 3559 1356 
Q 3559 666 3084 287 
Q 2609 -91 1734 -91 
Q 1441 -91 1130 -33 
Q 819 25 488 141 
L 488 750 
Q 750 597 1062 519 
Q 1375 441 1716 441 
Q 2309 441 2620 675 
Q 2931 909 2931 1356 
Q 2931 1769 2642 2001 
Q 2353 2234 1838 2234 
L 1294 2234 
L 1294 2753 
L 1863 2753 
Q 2328 2753 2575 2939 
Q 2822 3125 2822 3475 
Q 2822 3834 2567 4026 
Q 2313 4219 1838 4219 
Q 1578 4219 1281 4162 
Q 984 4106 628 3988 
L 628 4550 
Q 988 4650 1302 4700 
Q 1616 4750 1894 4750 
Q 2613 4750 3031 4423 
Q 3450 4097 3450 3541 
Q 3450 3153 3228 2886 
Q 3006 2619 2597 2516 
z
" id="DejaVuSans-33" transform="scale(0.015625)"/>
       </defs>
       <use xlink:href="#DejaVuSans-30"/>
       <use x="63.623047" xlink:href="#DejaVuSans-2e"/>
       <use x="95.410156" xlink:href="#DejaVuSans-33"/>
      </g>
     </g>
    </g>
    <g id="ytick_2">
     <g id="line2d_17">
      <path clip-path="url(#pd1eac245df)" d="M 54 212.833629 
L 388.8 212.833629 
" style="fill:none;stroke:#b0b0b0;stroke-linecap:square;stroke-width:0.8;"/>
     </g>
     <g id="line2d_18">
      <g>
       <use style="stroke:#000000;stroke-width:0.8;" x="54" xlink:href="#m724211efaa" y="212.833629"/>
      </g>
     </g>
     <g id="text_10">
      <!-- 0.4 -->
      <g transform="translate(31.096875 216.632848)scale(0.1 -0.1)">
       <use xlink:href="#DejaVuSans-30"/>
       <use x="63.623047" xlink:href="#DejaVuSans-2e"/>
       <use x="95.410156" xlink:href="#DejaVuSans-34"/>
      </g>
     </g>
    </g>
    <g id="ytick_3">
     <g id="line2d_19">
      <path clip-path="url(#pd1eac245df)" d="M 54 184.292953 
L 388.8 184.292953 
" style="fill:none;stroke:#b0b0b0;stroke-linecap:square;stroke-width:0.8;"/>
     </g>
     <g id="line2d_20">
      <g>
       <use style="stroke:#000000;stroke-width:0.8;" x="54" xlink:href="#m724211efaa" y="184.292953"/>
      </g>
     </g>
     <g id="text_11">
      <!-- 0.5 -->
      <g transform="translate(31.096875 188.092171)scale(0.1 -0.1)">
       <defs>
        <path d="M 691 4666 
L 3169 4666 
L 3169 4134 
L 1269 4134 
L 1269 2991 
Q 1406 3038 1543 3061 
Q 1681 3084 1819 3084 
Q 2600 3084 3056 2656 
Q 3513 2228 3513 1497 
Q 3513 744 3044 326 
Q 2575 -91 1722 -91 
Q 1428 -91 1123 -41 
Q 819 9 494 109 
L 494 744 
Q 775 591 1075 516 
Q 1375 441 1709 441 
Q 2250 441 2565 725 
Q 2881 1009 2881 1497 
Q 2881 1984 2565 2268 
Q 2250 2553 1709 2553 
Q 1456 2553 1204 2497 
Q 953 2441 691 2322 
L 691 4666 
z
" id="DejaVuSans-35" transform="scale(0.015625)"/>
       </defs>
       <use xlink:href="#DejaVuSans-30"/>
       <use x="63.623047" xlink:href="#DejaVuSans-2e"/>
       <use x="95.410156" xlink:href="#DejaVuSans-35"/>
      </g>
     </g>
    </g>
    <g id="ytick_4">
     <g id="line2d_21">
      <path clip-path="url(#pd1eac245df)" d="M 54 155.752276 
L 388.8 155.752276 
" style="fill:none;stroke:#b0b0b0;stroke-linecap:square;stroke-width:0.8;"/>
     </g>
     <g id="line2d_22">
      <g>
       <use style="stroke:#000000;stroke-width:0.8;" x="54" xlink:href="#m724211efaa" y="155.752276"/>
      </g>
     </g>
     <g id="text_12">
      <!-- 0.6 -->
      <g transform="translate(31.096875 159.551494)scale(0.1 -0.1)">
       <use xlink:href="#DejaVuSans-30"/>
       <use x="63.623047" xlink:href="#DejaVuSans-2e"/>
       <use x="95.410156" xlink:href="#DejaVuSans-36"/>
      </g>
     </g>
    </g>
    <g id="ytick_5">
     <g id="line2d_23">
      <path clip-path="url(#pd1eac245df)" d="M 54 127.211599 
L 388.8 127.211599 
" style="fill:none;stroke:#b0b0b0;stroke-linecap:square;stroke-width:0.8;"/>
     </g>
     <g id="line2d_24">
      <g>
       <use style="stroke:#000000;stroke-width:0.8;" x="54" xlink:href="#m724211efaa" y="127.211599"/>
      </g>
     </g>
     <g id="text_13">
      <!-- 0.7 -->
      <g transform="translate(31.096875 131.010818)scale(0.1 -0.1)">
       <defs>
        <path d="M 525 4666 
L 3525 4666 
L 3525 4397 
L 1831 0 
L 1172 0 
L 2766 4134 
L 525 4134 
L 525 4666 
z
" id="DejaVuSans-37" transform="scale(0.015625)"/>
       </defs>
       <use xlink:href="#DejaVuSans-30"/>
       <use x="63.623047" xlink:href="#DejaVuSans-2e"/>
       <use x="95.410156" xlink:href="#DejaVuSans-37"/>
      </g>
     </g>
    </g>
    <g id="ytick_6">
     <g id="line2d_25">
      <path clip-path="url(#pd1eac245df)" d="M 54 98.670922 
L 388.8 98.670922 
" style="fill:none;stroke:#b0b0b0;stroke-linecap:square;stroke-width:0.8;"/>
     </g>
     <g id="line2d_26">
      <g>
       <use style="stroke:#000000;stroke-width:0.8;" x="54" xlink:href="#m724211efaa" y="98.670922"/>
      </g>
     </g>
     <g id="text_14">
      <!-- 0.8 -->
      <g transform="translate(31.096875 102.470141)scale(0.1 -0.1)">
       <use xlink:href="#DejaVuSans-30"/>
       <use x="63.623047" xlink:href="#DejaVuSans-2e"/>
       <use x="95.410156" xlink:href="#DejaVuSans-38"/>
      </g>
     </g>
    </g>
    <g id="ytick_7">
     <g id="line2d_27">
      <path clip-path="url(#pd1eac245df)" d="M 54 70.130245 
L 388.8 70.130245 
" style="fill:none;stroke:#b0b0b0;stroke-linecap:square;stroke-width:0.8;"/>
     </g>
     <g id="line2d_28">
      <g>
       <use style="stroke:#000000;stroke-width:0.8;" x="54" xlink:href="#m724211efaa" y="70.130245"/>
      </g>
     </g>
     <g id="text_15">
      <!-- 0.9 -->
      <g transform="translate(31.096875 73.929464)scale(0.1 -0.1)">
       <defs>
        <path d="M 703 97 
L 703 672 
Q 941 559 1184 500 
Q 1428 441 1663 441 
Q 2288 441 2617 861 
Q 2947 1281 2994 2138 
Q 2813 1869 2534 1725 
Q 2256 1581 1919 1581 
Q 1219 1581 811 2004 
Q 403 2428 403 3163 
Q 403 3881 828 4315 
Q 1253 4750 1959 4750 
Q 2769 4750 3195 4129 
Q 3622 3509 3622 2328 
Q 3622 1225 3098 567 
Q 2575 -91 1691 -91 
Q 1453 -91 1209 -44 
Q 966 3 703 97 
z
M 1959 2075 
Q 2384 2075 2632 2365 
Q 2881 2656 2881 3163 
Q 2881 3666 2632 3958 
Q 2384 4250 1959 4250 
Q 1534 4250 1286 3958 
Q 1038 3666 1038 3163 
Q 1038 2656 1286 2365 
Q 1534 2075 1959 2075 
z
" id="DejaVuSans-39" transform="scale(0.015625)"/>
       </defs>
       <use xlink:href="#DejaVuSans-30"/>
       <use x="63.623047" xlink:href="#DejaVuSans-2e"/>
       <use x="95.410156" xlink:href="#DejaVuSans-39"/>
      </g>
     </g>
    </g>
    <g id="ytick_8">
     <g id="line2d_29">
      <path clip-path="url(#pd1eac245df)" d="M 54 41.589569 
L 388.8 41.589569 
" style="fill:none;stroke:#b0b0b0;stroke-linecap:square;stroke-width:0.8;"/>
     </g>
     <g id="line2d_30">
      <g>
       <use style="stroke:#000000;stroke-width:0.8;" x="54" xlink:href="#m724211efaa" y="41.589569"/>
      </g>
     </g>
     <g id="text_16">
      <!-- 1.0 -->
      <g transform="translate(31.096875 45.388787)scale(0.1 -0.1)">
       <use xlink:href="#DejaVuSans-31"/>
       <use x="63.623047" xlink:href="#DejaVuSans-2e"/>
       <use x="95.410156" xlink:href="#DejaVuSans-30"/>
      </g>
     </g>
    </g>
    <g id="text_17">
     <!-- Accuracy -->
     <g transform="translate(24.185312 175.239375)rotate(-90)scale(0.14 -0.14)">
      <defs>
       <path d="M 2188 4044 
L 1331 1722 
L 3047 1722 
L 2188 4044 
z
M 1831 4666 
L 2547 4666 
L 4325 0 
L 3669 0 
L 3244 1197 
L 1141 1197 
L 716 0 
L 50 0 
L 1831 4666 
z
" id="DejaVuSans-41" transform="scale(0.015625)"/>
       <path d="M 3122 3366 
L 3122 2828 
Q 2878 2963 2633 3030 
Q 2388 3097 2138 3097 
Q 1578 3097 1268 2742 
Q 959 2388 959 1747 
Q 959 1106 1268 751 
Q 1578 397 2138 397 
Q 2388 397 2633 464 
Q 2878 531 3122 666 
L 3122 134 
Q 2881 22 2623 -34 
Q 2366 -91 2075 -91 
Q 1284 -91 818 406 
Q 353 903 353 1747 
Q 353 2603 823 3093 
Q 1294 3584 2113 3584 
Q 2378 3584 2631 3529 
Q 2884 3475 3122 3366 
z
" id="DejaVuSans-63" transform="scale(0.015625)"/>
       <path d="M 544 1381 
L 544 3500 
L 1119 3500 
L 1119 1403 
Q 1119 906 1312 657 
Q 1506 409 1894 409 
Q 2359 409 2629 706 
Q 2900 1003 2900 1516 
L 2900 3500 
L 3475 3500 
L 3475 0 
L 2900 0 
L 2900 538 
Q 2691 219 2414 64 
Q 2138 -91 1772 -91 
Q 1169 -91 856 284 
Q 544 659 544 1381 
z
M 1991 3584 
L 1991 3584 
z
" id="DejaVuSans-75" transform="scale(0.015625)"/>
       <path d="M 2059 -325 
Q 1816 -950 1584 -1140 
Q 1353 -1331 966 -1331 
L 506 -1331 
L 506 -850 
L 844 -850 
Q 1081 -850 1212 -737 
Q 1344 -625 1503 -206 
L 1606 56 
L 191 3500 
L 800 3500 
L 1894 763 
L 2988 3500 
L 3597 3500 
L 2059 -325 
z
" id="DejaVuSans-79" transform="scale(0.015625)"/>
      </defs>
      <use xlink:href="#DejaVuSans-41"/>
      <use x="66.658203" xlink:href="#DejaVuSans-63"/>
      <use x="121.638672" xlink:href="#DejaVuSans-63"/>
      <use x="176.619141" xlink:href="#DejaVuSans-75"/>
      <use x="239.998047" xlink:href="#DejaVuSans-72"/>
      <use x="281.111328" xlink:href="#DejaVuSans-61"/>
      <use x="342.390625" xlink:href="#DejaVuSans-63"/>
      <use x="397.371094" xlink:href="#DejaVuSans-79"/>
     </g>
    </g>
   </g>
   <g id="line2d_31">
    <path clip-path="url(#pd1eac245df)" d="M 69.218182 242.116364 
L 70.49167 151.870744 
L 71.765158 105.920254 
L 73.038646 109.659083 
L 74.312134 89.423743 
L 75.585622 86.569675 
L 76.85911 105.863173 
L 78.132598 85.08556 
L 79.406086 80.86154 
L 80.679574 120.10497 
L 81.953062 78.007472 
L 83.22655 75.010701 
L 84.500038 80.090942 
L 85.773526 78.863693 
L 87.047014 77.008549 
L 88.320502 96.130802 
L 89.59399 75.581515 
L 92.140966 70.900844 
L 93.414454 70.75814 
L 94.687942 73.412423 
L 95.96143 74.268644 
L 97.234918 73.954696 
L 99.781894 71.300413 
L 101.055382 78.578286 
L 102.32887 82.174411 
L 103.602358 68.988618 
L 104.875846 72.299337 
L 106.149334 69.673595 
L 107.422822 70.672518 
L 108.69631 68.817374 
L 109.969798 71.15771 
L 111.243286 70.073164 
L 112.516774 71.271873 
L 113.790262 71.899767 
L 115.06375 73.954696 
L 116.337238 68.845915 
L 117.610727 70.044623 
L 118.884215 82.830847 
L 120.157703 71.871227 
L 121.431191 73.811993 
L 122.704679 69.188403 
L 123.978167 72.128093 
L 125.251655 70.900844 
L 127.798631 68.132398 
L 129.072119 69.530891 
L 130.345607 73.184098 
L 131.619095 69.959001 
L 132.892583 70.872303 
L 134.166071 70.701059 
L 135.439559 72.242256 
L 136.713047 67.989695 
L 137.986535 68.988618 
L 139.260023 69.502351 
L 140.533511 68.018235 
L 141.806999 67.104934 
L 143.080487 66.876608 
L 144.353975 68.902996 
L 145.627463 68.589049 
L 146.900951 74.183022 
L 148.174439 67.447422 
L 149.447927 67.904073 
L 150.721415 67.447422 
L 151.994903 68.64613 
L 153.268391 68.64613 
L 154.541879 67.761369 
L 155.815367 68.417805 
L 157.088855 68.332183 
L 158.362343 66.53412 
L 159.635831 67.304718 
L 160.909319 66.705364 
L 162.182807 68.731752 
L 163.456295 66.305795 
L 164.729783 66.191632 
L 166.003271 67.276178 
L 167.276759 67.961154 
L 168.550247 67.104934 
L 169.823735 69.331107 
L 171.097223 67.019312 
L 173.644199 69.730676 
L 174.917687 76.152328 
L 176.191175 67.276178 
L 177.464663 67.875532 
L 178.738151 68.960078 
L 180.011639 68.446346 
L 181.285127 68.389264 
L 182.558615 66.648283 
L 183.832103 67.818451 
L 185.105591 68.275101 
L 186.379079 66.50558 
L 187.652568 66.93369 
L 188.926056 66.876608 
L 190.199544 67.78991 
L 191.473032 68.246561 
L 192.74652 67.447422 
L 194.020008 67.076393 
L 195.293496 68.103857 
L 196.566984 70.986466 
L 197.840472 66.248713 
L 199.11396 67.104934 
L 200.387448 67.447422 
L 201.660936 67.104934 
L 202.934424 67.104934 
L 204.207912 65.335412 
L 205.4814 67.276178 
L 206.754888 68.018235 
L 209.301864 66.53412 
L 210.575352 66.96223 
L 211.84884 72.641825 
L 213.122328 68.61759 
L 214.395816 67.561585 
L 215.669304 65.24979 
L 216.942792 66.619742 
L 220.763256 67.447422 
L 222.036744 68.817374 
L 223.310232 66.305795 
L 224.58372 68.332183 
L 225.857208 66.419957 
L 227.130696 69.759217 
L 228.404184 66.10601 
L 229.677672 66.334335 
L 230.95116 66.419957 
L 232.224648 65.734981 
L 233.498136 70.529815 
L 234.771624 72.071011 
L 236.045112 69.873379 
L 237.3186 67.219096 
L 238.592088 67.39034 
L 239.865576 68.61759 
L 241.139064 65.849144 
L 242.412552 66.048929 
L 243.68604 66.53412 
L 244.959528 66.676824 
L 246.233016 65.478115 
L 247.506504 66.10601 
L 248.779992 69.388188 
L 250.05348 67.818451 
L 251.326968 65.392493 
L 252.600456 65.877685 
L 253.873944 66.077469 
L 255.147432 65.820603 
L 256.420921 65.192708 
L 257.694409 67.247637 
L 258.967897 66.53412 
L 260.241385 65.991847 
L 261.514873 68.902996 
L 262.788361 66.562661 
L 264.061849 65.27833 
L 265.335337 66.048929 
L 266.608825 66.191632 
L 267.882313 66.619742 
L 270.429289 70.272949 
L 271.702777 68.075317 
L 272.976265 71.928308 
L 274.249753 66.619742 
L 275.523241 65.506656 
L 276.796729 77.750606 
L 278.070217 69.645054 
L 279.343705 71.899767 
L 280.617193 66.248713 
L 281.890681 67.190556 
L 283.164169 66.362876 
L 284.437657 69.0457 
L 285.711145 69.445269 
L 286.984633 67.190556 
L 288.258121 65.934766 
L 289.531609 66.93369 
L 290.805097 67.732829 
L 292.078585 66.477039 
L 293.352073 66.53412 
L 294.625561 67.447422 
L 295.899049 66.020388 
L 297.172537 66.790986 
L 299.719513 66.248713 
L 300.993001 66.790986 
L 302.266489 66.591202 
L 303.539977 72.813069 
L 304.813465 66.591202 
L 306.086953 67.133474 
L 307.360441 66.077469 
L 308.633929 65.535196 
L 309.907417 67.047852 
L 311.180905 65.963307 
L 312.454393 74.382806 
L 313.727881 67.561585 
L 315.001369 68.303642 
L 316.274857 66.191632 
L 317.548345 66.876608 
L 318.821833 65.24979 
L 320.095321 66.591202 
L 321.368809 66.391417 
L 322.642297 66.848068 
L 323.915785 66.790986 
L 325.189273 68.046776 
L 326.462762 65.363952 
L 327.73625 66.220173 
L 329.009738 65.563737 
L 330.283226 66.248713 
L 331.556714 64.650436 
L 332.830202 69.302566 
L 334.10369 66.448498 
L 335.377178 67.675747 
L 336.650666 65.649359 
L 339.197642 67.447422 
L 340.47113 65.6779 
L 341.744618 65.849144 
L 343.018106 65.763522 
L 344.291594 67.475963 
L 345.565082 65.164168 
L 346.83857 66.591202 
L 348.112058 65.24979 
L 349.385546 66.733905 
L 350.659034 74.240103 
L 351.932522 65.192708 
L 353.20601 67.590125 
L 354.479498 68.474886 
L 355.752986 65.306871 
L 357.026474 65.535196 
L 358.299962 66.10601 
L 359.57345 65.991847 
L 360.846938 66.10601 
L 362.120426 67.561585 
L 363.393914 70.872303 
L 364.667402 69.559432 
L 365.94089 66.048929 
L 367.214378 64.593354 
L 368.487866 64.564813 
L 369.761354 67.162015 
L 371.034842 66.305795 
L 372.30833 66.905149 
L 373.581818 65.6779 
L 373.581818 65.6779 
" style="fill:none;stroke:#1f77b4;stroke-linecap:square;stroke-width:1.5;"/>
   </g>
   <g id="line2d_32">
    <path clip-path="url(#pd1eac245df)" d="M 69.218182 195.709223 
L 70.49167 147.190073 
L 71.765158 92.962787 
L 73.038646 127.211599 
L 74.312134 72.984313 
L 75.585622 75.838381 
L 76.85911 75.838381 
L 78.132598 78.692448 
L 79.406086 61.568042 
L 80.679574 112.941261 
L 81.953062 75.838381 
L 83.22655 53.005839 
L 84.500038 58.713975 
L 85.773526 67.276178 
L 87.047014 70.130245 
L 88.320502 78.692448 
L 89.59399 67.276178 
L 90.867478 53.005839 
L 92.140966 61.568042 
L 93.414454 53.005839 
L 94.687942 61.568042 
L 95.96143 64.42211 
L 97.234918 70.130245 
L 98.508406 64.42211 
L 99.781894 53.005839 
L 101.055382 78.692448 
L 102.32887 58.713975 
L 103.602358 64.42211 
L 104.875846 64.42211 
L 107.422822 53.005839 
L 108.69631 55.859907 
L 109.969798 78.692448 
L 111.243286 72.984313 
L 113.790262 67.276178 
L 115.06375 53.005839 
L 116.337238 72.984313 
L 117.610727 64.42211 
L 118.884215 78.692448 
L 120.157703 67.276178 
L 121.431191 72.984313 
L 122.704679 61.568042 
L 123.978167 61.568042 
L 125.251655 58.713975 
L 126.525143 75.838381 
L 127.798631 53.005839 
L 130.345607 47.297704 
L 131.619095 58.713975 
L 132.892583 58.713975 
L 134.166071 64.42211 
L 135.439559 55.859907 
L 136.713047 50.151772 
L 139.260023 55.859907 
L 140.533511 47.297704 
L 141.806999 64.42211 
L 143.080487 50.151772 
L 144.353975 67.276178 
L 145.627463 55.859907 
L 146.900951 67.276178 
L 148.174439 72.984313 
L 149.447927 44.443636 
L 150.721415 58.713975 
L 151.994903 70.130245 
L 153.268391 61.568042 
L 154.541879 58.713975 
L 157.088855 58.713975 
L 158.362343 50.151772 
L 159.635831 61.568042 
L 160.909319 53.005839 
L 163.456295 64.42211 
L 164.729783 64.42211 
L 166.003271 61.568042 
L 167.276759 61.568042 
L 168.550247 58.713975 
L 169.823735 64.42211 
L 171.097223 58.713975 
L 172.370711 58.713975 
L 173.644199 64.42211 
L 174.917687 78.692448 
L 176.191175 50.151772 
L 177.464663 72.984313 
L 178.738151 55.859907 
L 180.011639 70.130245 
L 181.285127 70.130245 
L 182.558615 58.713975 
L 183.832103 53.005839 
L 185.105591 50.151772 
L 186.379079 50.151772 
L 187.652568 55.859907 
L 188.926056 58.713975 
L 190.199544 55.859907 
L 191.473032 55.859907 
L 192.74652 75.838381 
L 194.020008 61.568042 
L 195.293496 64.42211 
L 196.566984 72.984313 
L 197.840472 50.151772 
L 199.11396 61.568042 
L 200.387448 67.276178 
L 201.660936 58.713975 
L 202.934424 58.713975 
L 204.207912 53.005839 
L 206.754888 64.42211 
L 209.301864 53.005839 
L 210.575352 55.859907 
L 211.84884 78.692448 
L 213.122328 70.130245 
L 214.395816 53.005839 
L 215.669304 58.713975 
L 218.21628 58.713975 
L 219.489768 50.151772 
L 220.763256 67.276178 
L 222.036744 58.713975 
L 223.310232 55.859907 
L 224.58372 64.42211 
L 225.857208 55.859907 
L 227.130696 61.568042 
L 228.404184 44.443636 
L 229.677672 67.276178 
L 230.95116 58.713975 
L 232.224648 55.859907 
L 233.498136 64.42211 
L 234.771624 50.151772 
L 236.045112 55.859907 
L 237.3186 70.130245 
L 238.592088 55.859907 
L 239.865576 50.151772 
L 241.139064 58.713975 
L 242.412552 58.713975 
L 243.68604 47.297704 
L 244.959528 53.005839 
L 246.233016 44.443636 
L 247.506504 61.568042 
L 250.05348 50.151772 
L 251.326968 61.568042 
L 252.600456 58.713975 
L 253.873944 50.151772 
L 257.694409 67.276178 
L 258.967897 55.859907 
L 260.241385 47.297704 
L 261.514873 55.859907 
L 262.788361 50.151772 
L 264.061849 67.276178 
L 265.335337 75.838381 
L 266.608825 58.713975 
L 269.155801 64.42211 
L 270.429289 70.130245 
L 271.702777 64.42211 
L 274.249753 58.713975 
L 275.523241 58.713975 
L 276.796729 70.130245 
L 280.617193 53.005839 
L 281.890681 58.713975 
L 283.164169 70.130245 
L 284.437657 64.42211 
L 285.711145 70.130245 
L 286.984633 53.005839 
L 289.531609 70.130245 
L 290.805097 58.713975 
L 292.078585 53.005839 
L 293.352073 55.859907 
L 294.625561 50.151772 
L 295.899049 67.276178 
L 297.172537 61.568042 
L 298.446025 58.713975 
L 299.719513 53.005839 
L 300.993001 58.713975 
L 302.266489 58.713975 
L 303.539977 78.692448 
L 304.813465 55.859907 
L 306.086953 53.005839 
L 307.360441 53.005839 
L 308.633929 55.859907 
L 309.907417 67.276178 
L 311.180905 55.859907 
L 312.454393 78.692448 
L 313.727881 50.151772 
L 315.001369 58.713975 
L 316.274857 53.005839 
L 317.548345 53.005839 
L 318.821833 58.713975 
L 320.095321 55.859907 
L 321.368809 61.568042 
L 322.642297 64.42211 
L 325.189273 64.42211 
L 326.462762 61.568042 
L 327.73625 70.130245 
L 329.009738 53.005839 
L 330.283226 58.713975 
L 331.556714 58.713975 
L 332.830202 53.005839 
L 334.10369 58.713975 
L 335.377178 47.297704 
L 336.650666 53.005839 
L 337.924154 55.859907 
L 339.197642 55.859907 
L 340.47113 50.151772 
L 341.744618 67.276178 
L 343.018106 53.005839 
L 344.291594 53.005839 
L 345.565082 58.713975 
L 346.83857 58.713975 
L 348.112058 55.859907 
L 349.385546 58.713975 
L 350.659034 70.130245 
L 353.20601 53.005839 
L 354.479498 67.276178 
L 355.752986 55.859907 
L 358.299962 44.443636 
L 359.57345 53.005839 
L 360.846938 58.713975 
L 362.120426 55.859907 
L 363.393914 55.859907 
L 364.667402 61.568042 
L 367.214378 55.859907 
L 368.487866 50.151772 
L 369.761354 58.713975 
L 371.034842 55.859907 
L 372.30833 44.443636 
L 373.581818 64.42211 
L 373.581818 64.42211 
" style="fill:none;stroke:#ff7f0e;stroke-linecap:square;stroke-width:1.5;"/>
   </g>
   <g id="patch_3">
    <path d="M 54 252 
L 54 34.56 
" style="fill:none;stroke:#000000;stroke-linecap:square;stroke-linejoin:miter;stroke-width:0.8;"/>
   </g>
   <g id="patch_4">
    <path d="M 388.8 252 
L 388.8 34.56 
" style="fill:none;stroke:#000000;stroke-linecap:square;stroke-linejoin:miter;stroke-width:0.8;"/>
   </g>
   <g id="patch_5">
    <path d="M 54 252 
L 388.8 252 
" style="fill:none;stroke:#000000;stroke-linecap:square;stroke-linejoin:miter;stroke-width:0.8;"/>
   </g>
   <g id="patch_6">
    <path d="M 54 34.56 
L 388.8 34.56 
" style="fill:none;stroke:#000000;stroke-linecap:square;stroke-linejoin:miter;stroke-width:0.8;"/>
   </g>
   <g id="text_18">
    <!-- Model accuracy -->
    <g transform="translate(158.74125 28.56)scale(0.16 -0.16)">
     <defs>
      <path d="M 628 4666 
L 1569 4666 
L 2759 1491 
L 3956 4666 
L 4897 4666 
L 4897 0 
L 4281 0 
L 4281 4097 
L 3078 897 
L 2444 897 
L 1241 4097 
L 1241 0 
L 628 0 
L 628 4666 
z
" id="DejaVuSans-4d" transform="scale(0.015625)"/>
      <path d="M 1959 3097 
Q 1497 3097 1228 2736 
Q 959 2375 959 1747 
Q 959 1119 1226 758 
Q 1494 397 1959 397 
Q 2419 397 2687 759 
Q 2956 1122 2956 1747 
Q 2956 2369 2687 2733 
Q 2419 3097 1959 3097 
z
M 1959 3584 
Q 2709 3584 3137 3096 
Q 3566 2609 3566 1747 
Q 3566 888 3137 398 
Q 2709 -91 1959 -91 
Q 1206 -91 779 398 
Q 353 888 353 1747 
Q 353 2609 779 3096 
Q 1206 3584 1959 3584 
z
" id="DejaVuSans-6f" transform="scale(0.015625)"/>
      <path d="M 2906 2969 
L 2906 4863 
L 3481 4863 
L 3481 0 
L 2906 0 
L 2906 525 
Q 2725 213 2448 61 
Q 2172 -91 1784 -91 
Q 1150 -91 751 415 
Q 353 922 353 1747 
Q 353 2572 751 3078 
Q 1150 3584 1784 3584 
Q 2172 3584 2448 3432 
Q 2725 3281 2906 2969 
z
M 947 1747 
Q 947 1113 1208 752 
Q 1469 391 1925 391 
Q 2381 391 2643 752 
Q 2906 1113 2906 1747 
Q 2906 2381 2643 2742 
Q 2381 3103 1925 3103 
Q 1469 3103 1208 2742 
Q 947 2381 947 1747 
z
" id="DejaVuSans-64" transform="scale(0.015625)"/>
     </defs>
     <use xlink:href="#DejaVuSans-4d"/>
     <use x="86.279297" xlink:href="#DejaVuSans-6f"/>
     <use x="147.460938" xlink:href="#DejaVuSans-64"/>
     <use x="210.9375" xlink:href="#DejaVuSans-65"/>
     <use x="272.460938" xlink:href="#DejaVuSans-6c"/>
     <use x="300.244141" xlink:href="#DejaVuSans-20"/>
     <use x="332.03125" xlink:href="#DejaVuSans-61"/>
     <use x="393.310547" xlink:href="#DejaVuSans-63"/>
     <use x="448.291016" xlink:href="#DejaVuSans-63"/>
     <use x="503.271484" xlink:href="#DejaVuSans-75"/>
     <use x="566.650391" xlink:href="#DejaVuSans-72"/>
     <use x="607.763672" xlink:href="#DejaVuSans-61"/>
     <use x="669.042969" xlink:href="#DejaVuSans-63"/>
     <use x="724.023438" xlink:href="#DejaVuSans-79"/>
    </g>
   </g>
   <g id="legend_1">
    <g id="patch_7">
     <path d="M 220.889062 247 
L 381.8 247 
Q 383.8 247 383.8 245 
L 383.8 216.64375 
Q 383.8 214.64375 381.8 214.64375 
L 220.889062 214.64375 
Q 218.889062 214.64375 218.889062 216.64375 
L 218.889062 245 
Q 218.889062 247 220.889062 247 
z
" style="fill:#ffffff;opacity:0.8;stroke:#cccccc;stroke-linejoin:miter;"/>
    </g>
    <g id="line2d_33">
     <path d="M 222.889062 222.742188 
L 242.889062 222.742188 
" style="fill:none;stroke:#1f77b4;stroke-linecap:square;stroke-width:1.5;"/>
    </g>
    <g id="line2d_34"/>
    <g id="text_19">
     <!-- Accuracy on test data -->
     <g transform="translate(250.889062 226.242188)scale(0.1 -0.1)">
      <defs>
       <path d="M 1172 4494 
L 1172 3500 
L 2356 3500 
L 2356 3053 
L 1172 3053 
L 1172 1153 
Q 1172 725 1289 603 
Q 1406 481 1766 481 
L 2356 481 
L 2356 0 
L 1766 0 
Q 1100 0 847 248 
Q 594 497 594 1153 
L 594 3053 
L 172 3053 
L 172 3500 
L 594 3500 
L 594 4494 
L 1172 4494 
z
" id="DejaVuSans-74" transform="scale(0.015625)"/>
      </defs>
      <use xlink:href="#DejaVuSans-41"/>
      <use x="66.658203" xlink:href="#DejaVuSans-63"/>
      <use x="121.638672" xlink:href="#DejaVuSans-63"/>
      <use x="176.619141" xlink:href="#DejaVuSans-75"/>
      <use x="239.998047" xlink:href="#DejaVuSans-72"/>
      <use x="281.111328" xlink:href="#DejaVuSans-61"/>
      <use x="342.390625" xlink:href="#DejaVuSans-63"/>
      <use x="397.371094" xlink:href="#DejaVuSans-79"/>
      <use x="456.550781" xlink:href="#DejaVuSans-20"/>
      <use x="488.337891" xlink:href="#DejaVuSans-6f"/>
      <use x="549.519531" xlink:href="#DejaVuSans-6e"/>
      <use x="612.898438" xlink:href="#DejaVuSans-20"/>
      <use x="644.685547" xlink:href="#DejaVuSans-74"/>
      <use x="683.894531" xlink:href="#DejaVuSans-65"/>
      <use x="745.417969" xlink:href="#DejaVuSans-73"/>
      <use x="797.517578" xlink:href="#DejaVuSans-74"/>
      <use x="836.726562" xlink:href="#DejaVuSans-20"/>
      <use x="868.513672" xlink:href="#DejaVuSans-64"/>
      <use x="931.990234" xlink:href="#DejaVuSans-61"/>
      <use x="993.269531" xlink:href="#DejaVuSans-74"/>
      <use x="1032.478516" xlink:href="#DejaVuSans-61"/>
     </g>
    </g>
    <g id="line2d_35">
     <path d="M 222.889062 237.420312 
L 242.889062 237.420312 
" style="fill:none;stroke:#ff7f0e;stroke-linecap:square;stroke-width:1.5;"/>
    </g>
    <g id="line2d_36"/>
    <g id="text_20">
     <!-- Accuracy on training data -->
     <g transform="translate(250.889062 240.920312)scale(0.1 -0.1)">
      <use xlink:href="#DejaVuSans-41"/>
      <use x="66.658203" xlink:href="#DejaVuSans-63"/>
      <use x="121.638672" xlink:href="#DejaVuSans-63"/>
      <use x="176.619141" xlink:href="#DejaVuSans-75"/>
      <use x="239.998047" xlink:href="#DejaVuSans-72"/>
      <use x="281.111328" xlink:href="#DejaVuSans-61"/>
      <use x="342.390625" xlink:href="#DejaVuSans-63"/>
      <use x="397.371094" xlink:href="#DejaVuSans-79"/>
      <use x="456.550781" xlink:href="#DejaVuSans-20"/>
      <use x="488.337891" xlink:href="#DejaVuSans-6f"/>
      <use x="549.519531" xlink:href="#DejaVuSans-6e"/>
      <use x="612.898438" xlink:href="#DejaVuSans-20"/>
      <use x="644.685547" xlink:href="#DejaVuSans-74"/>
      <use x="683.894531" xlink:href="#DejaVuSans-72"/>
      <use x="725.007812" xlink:href="#DejaVuSans-61"/>
      <use x="786.287109" xlink:href="#DejaVuSans-69"/>
      <use x="814.070312" xlink:href="#DejaVuSans-6e"/>
      <use x="877.449219" xlink:href="#DejaVuSans-69"/>
      <use x="905.232422" xlink:href="#DejaVuSans-6e"/>
      <use x="968.611328" xlink:href="#DejaVuSans-67"/>
      <use x="1032.087891" xlink:href="#DejaVuSans-20"/>
      <use x="1063.875" xlink:href="#DejaVuSans-64"/>
      <use x="1127.351562" xlink:href="#DejaVuSans-61"/>
      <use x="1188.630859" xlink:href="#DejaVuSans-74"/>
      <use x="1227.839844" xlink:href="#DejaVuSans-61"/>
     </g>
    </g>
   </g>
  </g>
 </g>
 <defs>
  <clipPath id="pd1eac245df">
   <rect height="217.44" width="334.8" x="54" y="34.56"/>
  </clipPath>
 </defs>
</svg>
