<?xml version="1.0" encoding="utf-8" standalone="no"?>
<!DOCTYPE svg PUBLIC "-//W3C//DTD SVG 1.1//EN"
  "http://www.w3.org/Graphics/SVG/1.1/DTD/svg11.dtd">
<svg height="288pt" version="1.1" viewBox="0 0 432 288" width="432pt" xmlns="http://www.w3.org/2000/svg" xmlns:xlink="http://www.w3.org/1999/xlink">
 <metadata>
  <rdf:RDF xmlns:cc="http://creativecommons.org/ns#" xmlns:dc="http://purl.org/dc/elements/1.1/" xmlns:rdf="http://www.w3.org/1999/02/22-rdf-syntax-ns#">
   <cc:Work>
    <dc:type rdf:resource="http://purl.org/dc/dcmitype/StillImage"/>
    <dc:date>2023-04-09T12:09:36.210126</dc:date>
    <dc:format>image/svg+xml</dc:format>
    <dc:creator>
     <cc:Agent>
      <dc:title>Matplotlib v3.4.3, https://matplotlib.org/</dc:title>
     </cc:Agent>
    </dc:creator>
   </cc:Work>
  </rdf:RDF>
 </metadata>
 <defs>
  <style type="text/css">*{stroke-linecap:butt;stroke-linejoin:round;}</style>
 </defs>
 <g id="figure_1">
  <g id="patch_1">
   <path d="M 0 288 
L 432 288 
L 432 0 
L 0 0 
z
" style="fill:none;"/>
  </g>
  <g id="axes_1">
   <g id="patch_2">
    <path d="M 54 252 
L 388.8 252 
L 388.8 34.56 
L 54 34.56 
z
" style="fill:#ffffff;"/>
   </g>
   <g id="matplotlib.axis_1">
    <g id="xtick_1">
     <g id="line2d_1">
      <path clip-path="url(#pf8312fd084)" d="M 69.218182 252 
L 69.218182 34.56 
" style="fill:none;stroke:#b0b0b0;stroke-linecap:square;stroke-width:0.8;"/>
     </g>
     <g id="line2d_2">
      <defs>
       <path d="M 0 0 
L 0 3.5 
" id="mb2bbf527b2" style="stroke:#000000;stroke-width:0.8;"/>
      </defs>
      <g>
       <use style="stroke:#000000;stroke-width:0.8;" x="69.218182" xlink:href="#mb2bbf527b2" y="252"/>
      </g>
     </g>
     <g id="text_1">
      <!-- 0 -->
      <g transform="translate(66.036932 266.598437)scale(0.1 -0.1)">
       <defs>
        <path d="M 2034 4250 
Q 1547 4250 1301 3770 
Q 1056 3291 1056 2328 
Q 1056 1369 1301 889 
Q 1547 409 2034 409 
Q 2525 409 2770 889 
Q 3016 1369 3016 2328 
Q 3016 3291 2770 3770 
Q 2525 4250 2034 4250 
z
M 2034 4750 
Q 2819 4750 3233 4129 
Q 3647 3509 3647 2328 
Q 3647 1150 3233 529 
Q 2819 -91 2034 -91 
Q 1250 -91 836 529 
Q 422 1150 422 2328 
Q 422 3509 836 4129 
Q 1250 4750 2034 4750 
z
" id="DejaVuSans-30" transform="scale(0.015625)"/>
       </defs>
       <use xlink:href="#DejaVuSans-30"/>
      </g>
     </g>
    </g>
    <g id="xtick_2">
     <g id="line2d_3">
      <path clip-path="url(#pf8312fd084)" d="M 120.157703 252 
L 120.157703 34.56 
" style="fill:none;stroke:#b0b0b0;stroke-linecap:square;stroke-width:0.8;"/>
     </g>
     <g id="line2d_4">
      <g>
       <use style="stroke:#000000;stroke-width:0.8;" x="120.157703" xlink:href="#mb2bbf527b2" y="252"/>
      </g>
     </g>
     <g id="text_2">
      <!-- 20000 -->
      <g transform="translate(104.251453 266.598437)scale(0.1 -0.1)">
       <defs>
        <path d="M 1228 531 
L 3431 531 
L 3431 0 
L 469 0 
L 469 531 
Q 828 903 1448 1529 
Q 2069 2156 2228 2338 
Q 2531 2678 2651 2914 
Q 2772 3150 2772 3378 
Q 2772 3750 2511 3984 
Q 2250 4219 1831 4219 
Q 1534 4219 1204 4116 
Q 875 4013 500 3803 
L 500 4441 
Q 881 4594 1212 4672 
Q 1544 4750 1819 4750 
Q 2544 4750 2975 4387 
Q 3406 4025 3406 3419 
Q 3406 3131 3298 2873 
Q 3191 2616 2906 2266 
Q 2828 2175 2409 1742 
Q 1991 1309 1228 531 
z
" id="DejaVuSans-32" transform="scale(0.015625)"/>
       </defs>
       <use xlink:href="#DejaVuSans-32"/>
       <use x="63.623047" xlink:href="#DejaVuSans-30"/>
       <use x="127.246094" xlink:href="#DejaVuSans-30"/>
       <use x="190.869141" xlink:href="#DejaVuSans-30"/>
       <use x="254.492188" xlink:href="#DejaVuSans-30"/>
      </g>
     </g>
    </g>
    <g id="xtick_3">
     <g id="line2d_5">
      <path clip-path="url(#pf8312fd084)" d="M 171.097223 252 
L 171.097223 34.56 
" style="fill:none;stroke:#b0b0b0;stroke-linecap:square;stroke-width:0.8;"/>
     </g>
     <g id="line2d_6">
      <g>
       <use style="stroke:#000000;stroke-width:0.8;" x="171.097223" xlink:href="#mb2bbf527b2" y="252"/>
      </g>
     </g>
     <g id="text_3">
      <!-- 40000 -->
      <g transform="translate(155.190973 266.598437)scale(0.1 -0.1)">
       <defs>
        <path d="M 2419 4116 
L 825 1625 
L 2419 1625 
L 2419 4116 
z
M 2253 4666 
L 3047 4666 
L 3047 1625 
L 3713 1625 
L 3713 1100 
L 3047 1100 
L 3047 0 
L 2419 0 
L 2419 1100 
L 313 1100 
L 313 1709 
L 2253 4666 
z
" id="DejaVuSans-34" transform="scale(0.015625)"/>
       </defs>
       <use xlink:href="#DejaVuSans-34"/>
       <use x="63.623047" xlink:href="#DejaVuSans-30"/>
       <use x="127.246094" xlink:href="#DejaVuSans-30"/>
       <use x="190.869141" xlink:href="#DejaVuSans-30"/>
       <use x="254.492188" xlink:href="#DejaVuSans-30"/>
      </g>
     </g>
    </g>
    <g id="xtick_4">
     <g id="line2d_7">
      <path clip-path="url(#pf8312fd084)" d="M 222.036744 252 
L 222.036744 34.56 
" style="fill:none;stroke:#b0b0b0;stroke-linecap:square;stroke-width:0.8;"/>
     </g>
     <g id="line2d_8">
      <g>
       <use style="stroke:#000000;stroke-width:0.8;" x="222.036744" xlink:href="#mb2bbf527b2" y="252"/>
      </g>
     </g>
     <g id="text_4">
      <!-- 60000 -->
      <g transform="translate(206.130494 266.598437)scale(0.1 -0.1)">
       <defs>
        <path d="M 2113 2584 
Q 1688 2584 1439 2293 
Q 1191 2003 1191 1497 
Q 1191 994 1439 701 
Q 1688 409 2113 409 
Q 2538 409 2786 701 
Q 3034 994 3034 1497 
Q 3034 2003 2786 2293 
Q 2538 2584 2113 2584 
z
M 3366 4563 
L 3366 3988 
Q 3128 4100 2886 4159 
Q 2644 4219 2406 4219 
Q 1781 4219 1451 3797 
Q 1122 3375 1075 2522 
Q 1259 2794 1537 2939 
Q 1816 3084 2150 3084 
Q 2853 3084 3261 2657 
Q 3669 2231 3669 1497 
Q 3669 778 3244 343 
Q 2819 -91 2113 -91 
Q 1303 -91 875 529 
Q 447 1150 447 2328 
Q 447 3434 972 4092 
Q 1497 4750 2381 4750 
Q 2619 4750 2861 4703 
Q 3103 4656 3366 4563 
z
" id="DejaVuSans-36" transform="scale(0.015625)"/>
       </defs>
       <use xlink:href="#DejaVuSans-36"/>
       <use x="63.623047" xlink:href="#DejaVuSans-30"/>
       <use x="127.246094" xlink:href="#DejaVuSans-30"/>
       <use x="190.869141" xlink:href="#DejaVuSans-30"/>
       <use x="254.492188" xlink:href="#DejaVuSans-30"/>
      </g>
     </g>
    </g>
    <g id="xtick_5">
     <g id="line2d_9">
      <path clip-path="url(#pf8312fd084)" d="M 272.976265 252 
L 272.976265 34.56 
" style="fill:none;stroke:#b0b0b0;stroke-linecap:square;stroke-width:0.8;"/>
     </g>
     <g id="line2d_10">
      <g>
       <use style="stroke:#000000;stroke-width:0.8;" x="272.976265" xlink:href="#mb2bbf527b2" y="252"/>
      </g>
     </g>
     <g id="text_5">
      <!-- 80000 -->
      <g transform="translate(257.070015 266.598437)scale(0.1 -0.1)">
       <defs>
        <path d="M 2034 2216 
Q 1584 2216 1326 1975 
Q 1069 1734 1069 1313 
Q 1069 891 1326 650 
Q 1584 409 2034 409 
Q 2484 409 2743 651 
Q 3003 894 3003 1313 
Q 3003 1734 2745 1975 
Q 2488 2216 2034 2216 
z
M 1403 2484 
Q 997 2584 770 2862 
Q 544 3141 544 3541 
Q 544 4100 942 4425 
Q 1341 4750 2034 4750 
Q 2731 4750 3128 4425 
Q 3525 4100 3525 3541 
Q 3525 3141 3298 2862 
Q 3072 2584 2669 2484 
Q 3125 2378 3379 2068 
Q 3634 1759 3634 1313 
Q 3634 634 3220 271 
Q 2806 -91 2034 -91 
Q 1263 -91 848 271 
Q 434 634 434 1313 
Q 434 1759 690 2068 
Q 947 2378 1403 2484 
z
M 1172 3481 
Q 1172 3119 1398 2916 
Q 1625 2713 2034 2713 
Q 2441 2713 2670 2916 
Q 2900 3119 2900 3481 
Q 2900 3844 2670 4047 
Q 2441 4250 2034 4250 
Q 1625 4250 1398 4047 
Q 1172 3844 1172 3481 
z
" id="DejaVuSans-38" transform="scale(0.015625)"/>
       </defs>
       <use xlink:href="#DejaVuSans-38"/>
       <use x="63.623047" xlink:href="#DejaVuSans-30"/>
       <use x="127.246094" xlink:href="#DejaVuSans-30"/>
       <use x="190.869141" xlink:href="#DejaVuSans-30"/>
       <use x="254.492188" xlink:href="#DejaVuSans-30"/>
      </g>
     </g>
    </g>
    <g id="xtick_6">
     <g id="line2d_11">
      <path clip-path="url(#pf8312fd084)" d="M 323.915785 252 
L 323.915785 34.56 
" style="fill:none;stroke:#b0b0b0;stroke-linecap:square;stroke-width:0.8;"/>
     </g>
     <g id="line2d_12">
      <g>
       <use style="stroke:#000000;stroke-width:0.8;" x="323.915785" xlink:href="#mb2bbf527b2" y="252"/>
      </g>
     </g>
     <g id="text_6">
      <!-- 100000 -->
      <g transform="translate(304.828285 266.598437)scale(0.1 -0.1)">
       <defs>
        <path d="M 794 531 
L 1825 531 
L 1825 4091 
L 703 3866 
L 703 4441 
L 1819 4666 
L 2450 4666 
L 2450 531 
L 3481 531 
L 3481 0 
L 794 0 
L 794 531 
z
" id="DejaVuSans-31" transform="scale(0.015625)"/>
       </defs>
       <use xlink:href="#DejaVuSans-31"/>
       <use x="63.623047" xlink:href="#DejaVuSans-30"/>
       <use x="127.246094" xlink:href="#DejaVuSans-30"/>
       <use x="190.869141" xlink:href="#DejaVuSans-30"/>
       <use x="254.492188" xlink:href="#DejaVuSans-30"/>
       <use x="318.115234" xlink:href="#DejaVuSans-30"/>
      </g>
     </g>
    </g>
    <g id="xtick_7">
     <g id="line2d_13">
      <path clip-path="url(#pf8312fd084)" d="M 374.855306 252 
L 374.855306 34.56 
" style="fill:none;stroke:#b0b0b0;stroke-linecap:square;stroke-width:0.8;"/>
     </g>
     <g id="line2d_14">
      <g>
       <use style="stroke:#000000;stroke-width:0.8;" x="374.855306" xlink:href="#mb2bbf527b2" y="252"/>
      </g>
     </g>
     <g id="text_7">
      <!-- 120000 -->
      <g transform="translate(355.767806 266.598437)scale(0.1 -0.1)">
       <use xlink:href="#DejaVuSans-31"/>
       <use x="63.623047" xlink:href="#DejaVuSans-32"/>
       <use x="127.246094" xlink:href="#DejaVuSans-30"/>
       <use x="190.869141" xlink:href="#DejaVuSans-30"/>
       <use x="254.492188" xlink:href="#DejaVuSans-30"/>
       <use x="318.115234" xlink:href="#DejaVuSans-30"/>
      </g>
     </g>
    </g>
    <g id="text_8">
     <!-- Training examples -->
     <g transform="translate(157.780937 283.315938)scale(0.14 -0.14)">
      <defs>
       <path d="M -19 4666 
L 3928 4666 
L 3928 4134 
L 2272 4134 
L 2272 0 
L 1638 0 
L 1638 4134 
L -19 4134 
L -19 4666 
z
" id="DejaVuSans-54" transform="scale(0.015625)"/>
       <path d="M 2631 2963 
Q 2534 3019 2420 3045 
Q 2306 3072 2169 3072 
Q 1681 3072 1420 2755 
Q 1159 2438 1159 1844 
L 1159 0 
L 581 0 
L 581 3500 
L 1159 3500 
L 1159 2956 
Q 1341 3275 1631 3429 
Q 1922 3584 2338 3584 
Q 2397 3584 2469 3576 
Q 2541 3569 2628 3553 
L 2631 2963 
z
" id="DejaVuSans-72" transform="scale(0.015625)"/>
       <path d="M 2194 1759 
Q 1497 1759 1228 1600 
Q 959 1441 959 1056 
Q 959 750 1161 570 
Q 1363 391 1709 391 
Q 2188 391 2477 730 
Q 2766 1069 2766 1631 
L 2766 1759 
L 2194 1759 
z
M 3341 1997 
L 3341 0 
L 2766 0 
L 2766 531 
Q 2569 213 2275 61 
Q 1981 -91 1556 -91 
Q 1019 -91 701 211 
Q 384 513 384 1019 
Q 384 1609 779 1909 
Q 1175 2209 1959 2209 
L 2766 2209 
L 2766 2266 
Q 2766 2663 2505 2880 
Q 2244 3097 1772 3097 
Q 1472 3097 1187 3025 
Q 903 2953 641 2809 
L 641 3341 
Q 956 3463 1253 3523 
Q 1550 3584 1831 3584 
Q 2591 3584 2966 3190 
Q 3341 2797 3341 1997 
z
" id="DejaVuSans-61" transform="scale(0.015625)"/>
       <path d="M 603 3500 
L 1178 3500 
L 1178 0 
L 603 0 
L 603 3500 
z
M 603 4863 
L 1178 4863 
L 1178 4134 
L 603 4134 
L 603 4863 
z
" id="DejaVuSans-69" transform="scale(0.015625)"/>
       <path d="M 3513 2113 
L 3513 0 
L 2938 0 
L 2938 2094 
Q 2938 2591 2744 2837 
Q 2550 3084 2163 3084 
Q 1697 3084 1428 2787 
Q 1159 2491 1159 1978 
L 1159 0 
L 581 0 
L 581 3500 
L 1159 3500 
L 1159 2956 
Q 1366 3272 1645 3428 
Q 1925 3584 2291 3584 
Q 2894 3584 3203 3211 
Q 3513 2838 3513 2113 
z
" id="DejaVuSans-6e" transform="scale(0.015625)"/>
       <path d="M 2906 1791 
Q 2906 2416 2648 2759 
Q 2391 3103 1925 3103 
Q 1463 3103 1205 2759 
Q 947 2416 947 1791 
Q 947 1169 1205 825 
Q 1463 481 1925 481 
Q 2391 481 2648 825 
Q 2906 1169 2906 1791 
z
M 3481 434 
Q 3481 -459 3084 -895 
Q 2688 -1331 1869 -1331 
Q 1566 -1331 1297 -1286 
Q 1028 -1241 775 -1147 
L 775 -588 
Q 1028 -725 1275 -790 
Q 1522 -856 1778 -856 
Q 2344 -856 2625 -561 
Q 2906 -266 2906 331 
L 2906 616 
Q 2728 306 2450 153 
Q 2172 0 1784 0 
Q 1141 0 747 490 
Q 353 981 353 1791 
Q 353 2603 747 3093 
Q 1141 3584 1784 3584 
Q 2172 3584 2450 3431 
Q 2728 3278 2906 2969 
L 2906 3500 
L 3481 3500 
L 3481 434 
z
" id="DejaVuSans-67" transform="scale(0.015625)"/>
       <path id="DejaVuSans-20" transform="scale(0.015625)"/>
       <path d="M 3597 1894 
L 3597 1613 
L 953 1613 
Q 991 1019 1311 708 
Q 1631 397 2203 397 
Q 2534 397 2845 478 
Q 3156 559 3463 722 
L 3463 178 
Q 3153 47 2828 -22 
Q 2503 -91 2169 -91 
Q 1331 -91 842 396 
Q 353 884 353 1716 
Q 353 2575 817 3079 
Q 1281 3584 2069 3584 
Q 2775 3584 3186 3129 
Q 3597 2675 3597 1894 
z
M 3022 2063 
Q 3016 2534 2758 2815 
Q 2500 3097 2075 3097 
Q 1594 3097 1305 2825 
Q 1016 2553 972 2059 
L 3022 2063 
z
" id="DejaVuSans-65" transform="scale(0.015625)"/>
       <path d="M 3513 3500 
L 2247 1797 
L 3578 0 
L 2900 0 
L 1881 1375 
L 863 0 
L 184 0 
L 1544 1831 
L 300 3500 
L 978 3500 
L 1906 2253 
L 2834 3500 
L 3513 3500 
z
" id="DejaVuSans-78" transform="scale(0.015625)"/>
       <path d="M 3328 2828 
Q 3544 3216 3844 3400 
Q 4144 3584 4550 3584 
Q 5097 3584 5394 3201 
Q 5691 2819 5691 2113 
L 5691 0 
L 5113 0 
L 5113 2094 
Q 5113 2597 4934 2840 
Q 4756 3084 4391 3084 
Q 3944 3084 3684 2787 
Q 3425 2491 3425 1978 
L 3425 0 
L 2847 0 
L 2847 2094 
Q 2847 2600 2669 2842 
Q 2491 3084 2119 3084 
Q 1678 3084 1418 2786 
Q 1159 2488 1159 1978 
L 1159 0 
L 581 0 
L 581 3500 
L 1159 3500 
L 1159 2956 
Q 1356 3278 1631 3431 
Q 1906 3584 2284 3584 
Q 2666 3584 2933 3390 
Q 3200 3197 3328 2828 
z
" id="DejaVuSans-6d" transform="scale(0.015625)"/>
       <path d="M 1159 525 
L 1159 -1331 
L 581 -1331 
L 581 3500 
L 1159 3500 
L 1159 2969 
Q 1341 3281 1617 3432 
Q 1894 3584 2278 3584 
Q 2916 3584 3314 3078 
Q 3713 2572 3713 1747 
Q 3713 922 3314 415 
Q 2916 -91 2278 -91 
Q 1894 -91 1617 61 
Q 1341 213 1159 525 
z
M 3116 1747 
Q 3116 2381 2855 2742 
Q 2594 3103 2138 3103 
Q 1681 3103 1420 2742 
Q 1159 2381 1159 1747 
Q 1159 1113 1420 752 
Q 1681 391 2138 391 
Q 2594 391 2855 752 
Q 3116 1113 3116 1747 
z
" id="DejaVuSans-70" transform="scale(0.015625)"/>
       <path d="M 603 4863 
L 1178 4863 
L 1178 0 
L 603 0 
L 603 4863 
z
" id="DejaVuSans-6c" transform="scale(0.015625)"/>
       <path d="M 2834 3397 
L 2834 2853 
Q 2591 2978 2328 3040 
Q 2066 3103 1784 3103 
Q 1356 3103 1142 2972 
Q 928 2841 928 2578 
Q 928 2378 1081 2264 
Q 1234 2150 1697 2047 
L 1894 2003 
Q 2506 1872 2764 1633 
Q 3022 1394 3022 966 
Q 3022 478 2636 193 
Q 2250 -91 1575 -91 
Q 1294 -91 989 -36 
Q 684 19 347 128 
L 347 722 
Q 666 556 975 473 
Q 1284 391 1588 391 
Q 1994 391 2212 530 
Q 2431 669 2431 922 
Q 2431 1156 2273 1281 
Q 2116 1406 1581 1522 
L 1381 1569 
Q 847 1681 609 1914 
Q 372 2147 372 2553 
Q 372 3047 722 3315 
Q 1072 3584 1716 3584 
Q 2034 3584 2315 3537 
Q 2597 3491 2834 3397 
z
" id="DejaVuSans-73" transform="scale(0.015625)"/>
      </defs>
      <use xlink:href="#DejaVuSans-54"/>
      <use x="46.333984" xlink:href="#DejaVuSans-72"/>
      <use x="87.447266" xlink:href="#DejaVuSans-61"/>
      <use x="148.726562" xlink:href="#DejaVuSans-69"/>
      <use x="176.509766" xlink:href="#DejaVuSans-6e"/>
      <use x="239.888672" xlink:href="#DejaVuSans-69"/>
      <use x="267.671875" xlink:href="#DejaVuSans-6e"/>
      <use x="331.050781" xlink:href="#DejaVuSans-67"/>
      <use x="394.527344" xlink:href="#DejaVuSans-20"/>
      <use x="426.314453" xlink:href="#DejaVuSans-65"/>
      <use x="486.087891" xlink:href="#DejaVuSans-78"/>
      <use x="545.267578" xlink:href="#DejaVuSans-61"/>
      <use x="606.546875" xlink:href="#DejaVuSans-6d"/>
      <use x="703.958984" xlink:href="#DejaVuSans-70"/>
      <use x="767.435547" xlink:href="#DejaVuSans-6c"/>
      <use x="795.21875" xlink:href="#DejaVuSans-65"/>
      <use x="856.742188" xlink:href="#DejaVuSans-73"/>
     </g>
    </g>
   </g>
   <g id="matplotlib.axis_2">
    <g id="ytick_1">
     <g id="line2d_15">
      <path clip-path="url(#pf8312fd084)" d="M 54 248.384828 
L 388.8 248.384828 
" style="fill:none;stroke:#b0b0b0;stroke-linecap:square;stroke-width:0.8;"/>
     </g>
     <g id="line2d_16">
      <defs>
       <path d="M 0 0 
L -3.5 0 
" id="m9d0f5000b3" style="stroke:#000000;stroke-width:0.8;"/>
      </defs>
      <g>
       <use style="stroke:#000000;stroke-width:0.8;" x="54" xlink:href="#m9d0f5000b3" y="248.384828"/>
      </g>
     </g>
     <g id="text_9">
      <!-- 0.0 -->
      <g transform="translate(31.096875 252.184047)scale(0.1 -0.1)">
       <defs>
        <path d="M 684 794 
L 1344 794 
L 1344 0 
L 684 0 
L 684 794 
z
" id="DejaVuSans-2e" transform="scale(0.015625)"/>
       </defs>
       <use xlink:href="#DejaVuSans-30"/>
       <use x="63.623047" xlink:href="#DejaVuSans-2e"/>
       <use x="95.410156" xlink:href="#DejaVuSans-30"/>
      </g>
     </g>
    </g>
    <g id="ytick_2">
     <g id="line2d_17">
      <path clip-path="url(#pf8312fd084)" d="M 54 208.418796 
L 388.8 208.418796 
" style="fill:none;stroke:#b0b0b0;stroke-linecap:square;stroke-width:0.8;"/>
     </g>
     <g id="line2d_18">
      <g>
       <use style="stroke:#000000;stroke-width:0.8;" x="54" xlink:href="#m9d0f5000b3" y="208.418796"/>
      </g>
     </g>
     <g id="text_10">
      <!-- 0.5 -->
      <g transform="translate(31.096875 212.218015)scale(0.1 -0.1)">
       <defs>
        <path d="M 691 4666 
L 3169 4666 
L 3169 4134 
L 1269 4134 
L 1269 2991 
Q 1406 3038 1543 3061 
Q 1681 3084 1819 3084 
Q 2600 3084 3056 2656 
Q 3513 2228 3513 1497 
Q 3513 744 3044 326 
Q 2575 -91 1722 -91 
Q 1428 -91 1123 -41 
Q 819 9 494 109 
L 494 744 
Q 775 591 1075 516 
Q 1375 441 1709 441 
Q 2250 441 2565 725 
Q 2881 1009 2881 1497 
Q 2881 1984 2565 2268 
Q 2250 2553 1709 2553 
Q 1456 2553 1204 2497 
Q 953 2441 691 2322 
L 691 4666 
z
" id="DejaVuSans-35" transform="scale(0.015625)"/>
       </defs>
       <use xlink:href="#DejaVuSans-30"/>
       <use x="63.623047" xlink:href="#DejaVuSans-2e"/>
       <use x="95.410156" xlink:href="#DejaVuSans-35"/>
      </g>
     </g>
    </g>
    <g id="ytick_3">
     <g id="line2d_19">
      <path clip-path="url(#pf8312fd084)" d="M 54 168.452765 
L 388.8 168.452765 
" style="fill:none;stroke:#b0b0b0;stroke-linecap:square;stroke-width:0.8;"/>
     </g>
     <g id="line2d_20">
      <g>
       <use style="stroke:#000000;stroke-width:0.8;" x="54" xlink:href="#m9d0f5000b3" y="168.452765"/>
      </g>
     </g>
     <g id="text_11">
      <!-- 1.0 -->
      <g transform="translate(31.096875 172.251983)scale(0.1 -0.1)">
       <use xlink:href="#DejaVuSans-31"/>
       <use x="63.623047" xlink:href="#DejaVuSans-2e"/>
       <use x="95.410156" xlink:href="#DejaVuSans-30"/>
      </g>
     </g>
    </g>
    <g id="ytick_4">
     <g id="line2d_21">
      <path clip-path="url(#pf8312fd084)" d="M 54 128.486733 
L 388.8 128.486733 
" style="fill:none;stroke:#b0b0b0;stroke-linecap:square;stroke-width:0.8;"/>
     </g>
     <g id="line2d_22">
      <g>
       <use style="stroke:#000000;stroke-width:0.8;" x="54" xlink:href="#m9d0f5000b3" y="128.486733"/>
      </g>
     </g>
     <g id="text_12">
      <!-- 1.5 -->
      <g transform="translate(31.096875 132.285952)scale(0.1 -0.1)">
       <use xlink:href="#DejaVuSans-31"/>
       <use x="63.623047" xlink:href="#DejaVuSans-2e"/>
       <use x="95.410156" xlink:href="#DejaVuSans-35"/>
      </g>
     </g>
    </g>
    <g id="ytick_5">
     <g id="line2d_23">
      <path clip-path="url(#pf8312fd084)" d="M 54 88.520701 
L 388.8 88.520701 
" style="fill:none;stroke:#b0b0b0;stroke-linecap:square;stroke-width:0.8;"/>
     </g>
     <g id="line2d_24">
      <g>
       <use style="stroke:#000000;stroke-width:0.8;" x="54" xlink:href="#m9d0f5000b3" y="88.520701"/>
      </g>
     </g>
     <g id="text_13">
      <!-- 2.0 -->
      <g transform="translate(31.096875 92.31992)scale(0.1 -0.1)">
       <use xlink:href="#DejaVuSans-32"/>
       <use x="63.623047" xlink:href="#DejaVuSans-2e"/>
       <use x="95.410156" xlink:href="#DejaVuSans-30"/>
      </g>
     </g>
    </g>
    <g id="ytick_6">
     <g id="line2d_25">
      <path clip-path="url(#pf8312fd084)" d="M 54 48.55467 
L 388.8 48.55467 
" style="fill:none;stroke:#b0b0b0;stroke-linecap:square;stroke-width:0.8;"/>
     </g>
     <g id="line2d_26">
      <g>
       <use style="stroke:#000000;stroke-width:0.8;" x="54" xlink:href="#m9d0f5000b3" y="48.55467"/>
      </g>
     </g>
     <g id="text_14">
      <!-- 2.5 -->
      <g transform="translate(31.096875 52.353888)scale(0.1 -0.1)">
       <use xlink:href="#DejaVuSans-32"/>
       <use x="63.623047" xlink:href="#DejaVuSans-2e"/>
       <use x="95.410156" xlink:href="#DejaVuSans-35"/>
      </g>
     </g>
    </g>
    <g id="text_15">
     <!-- Cost -->
     <g transform="translate(24.185312 158.841875)rotate(-90)scale(0.14 -0.14)">
      <defs>
       <path d="M 4122 4306 
L 4122 3641 
Q 3803 3938 3442 4084 
Q 3081 4231 2675 4231 
Q 1875 4231 1450 3742 
Q 1025 3253 1025 2328 
Q 1025 1406 1450 917 
Q 1875 428 2675 428 
Q 3081 428 3442 575 
Q 3803 722 4122 1019 
L 4122 359 
Q 3791 134 3420 21 
Q 3050 -91 2638 -91 
Q 1578 -91 968 557 
Q 359 1206 359 2328 
Q 359 3453 968 4101 
Q 1578 4750 2638 4750 
Q 3056 4750 3426 4639 
Q 3797 4528 4122 4306 
z
" id="DejaVuSans-43" transform="scale(0.015625)"/>
       <path d="M 1959 3097 
Q 1497 3097 1228 2736 
Q 959 2375 959 1747 
Q 959 1119 1226 758 
Q 1494 397 1959 397 
Q 2419 397 2687 759 
Q 2956 1122 2956 1747 
Q 2956 2369 2687 2733 
Q 2419 3097 1959 3097 
z
M 1959 3584 
Q 2709 3584 3137 3096 
Q 3566 2609 3566 1747 
Q 3566 888 3137 398 
Q 2709 -91 1959 -91 
Q 1206 -91 779 398 
Q 353 888 353 1747 
Q 353 2609 779 3096 
Q 1206 3584 1959 3584 
z
" id="DejaVuSans-6f" transform="scale(0.015625)"/>
       <path d="M 1172 4494 
L 1172 3500 
L 2356 3500 
L 2356 3053 
L 1172 3053 
L 1172 1153 
Q 1172 725 1289 603 
Q 1406 481 1766 481 
L 2356 481 
L 2356 0 
L 1766 0 
Q 1100 0 847 248 
Q 594 497 594 1153 
L 594 3053 
L 172 3053 
L 172 3500 
L 594 3500 
L 594 4494 
L 1172 4494 
z
" id="DejaVuSans-74" transform="scale(0.015625)"/>
      </defs>
      <use xlink:href="#DejaVuSans-43"/>
      <use x="69.824219" xlink:href="#DejaVuSans-6f"/>
      <use x="131.005859" xlink:href="#DejaVuSans-73"/>
      <use x="183.105469" xlink:href="#DejaVuSans-74"/>
     </g>
    </g>
   </g>
   <g id="line2d_27">
    <path clip-path="url(#pf8312fd084)" d="M 69.218182 44.443636 
L 70.49167 143.078017 
L 71.765158 195.353112 
L 73.038646 160.748335 
L 74.312134 206.027437 
L 75.585622 207.879048 
L 76.85911 185.417043 
L 78.132598 209.375178 
L 79.406086 211.298831 
L 80.679574 181.967879 
L 81.953062 215.228464 
L 83.22655 216.457207 
L 84.500038 213.927286 
L 85.773526 214.511012 
L 87.047014 215.462424 
L 88.320502 201.406296 
L 89.59399 216.630553 
L 90.867478 218.579379 
L 92.140966 219.862547 
L 93.414454 220.425404 
L 94.687942 218.291307 
L 95.96143 217.474963 
L 97.234918 218.502799 
L 98.508406 218.773061 
L 99.781894 220.020398 
L 101.055382 214.679803 
L 102.32887 212.038371 
L 103.602358 221.178062 
L 104.875846 218.036339 
L 106.149334 221.182783 
L 107.422822 220.26364 
L 108.69631 222.011479 
L 109.969798 219.866209 
L 111.243286 220.192952 
L 112.516774 220.060283 
L 113.790262 219.269261 
L 115.06375 217.648555 
L 116.337238 221.111874 
L 117.610727 220.70955 
L 118.884215 210.485638 
L 120.157703 219.195845 
L 121.431191 217.646695 
L 122.704679 221.218974 
L 123.978167 219.555804 
L 125.251655 220.257343 
L 126.525143 221.452425 
L 127.798631 221.527389 
L 129.072119 220.985834 
L 130.345607 219.266727 
L 131.619095 221.354072 
L 132.892583 220.778216 
L 134.166071 220.501206 
L 135.439559 218.964887 
L 136.713047 222.279896 
L 139.260023 221.174872 
L 140.533511 222.192862 
L 141.806999 223.563596 
L 143.080487 223.330649 
L 144.353975 222.326686 
L 145.627463 222.386322 
L 146.900951 217.448782 
L 148.174439 222.033104 
L 149.447927 222.522424 
L 150.721415 222.885494 
L 151.994903 222.546287 
L 153.268391 221.875822 
L 154.541879 222.151226 
L 155.815367 222.215725 
L 157.088855 222.035849 
L 158.362343 223.546024 
L 159.635831 223.149575 
L 160.909319 223.45608 
L 162.182807 222.244189 
L 163.456295 223.720186 
L 166.003271 223.184271 
L 167.276759 222.729763 
L 168.550247 223.266016 
L 169.823735 221.620778 
L 171.097223 223.919677 
L 172.370711 222.051873 
L 173.644199 220.987613 
L 174.917687 216.926145 
L 176.191175 223.226293 
L 178.738151 221.597695 
L 180.011639 222.109938 
L 181.285127 222.990126 
L 182.558615 223.588822 
L 183.832103 222.641128 
L 185.105591 222.1331 
L 186.379079 223.214867 
L 187.652568 222.896766 
L 188.926056 223.212422 
L 190.199544 222.973405 
L 191.473032 222.010077 
L 192.74652 222.51382 
L 195.293496 222.351915 
L 196.566984 219.741687 
L 197.840472 223.775806 
L 199.11396 223.162853 
L 201.660936 222.949421 
L 202.934424 223.142156 
L 204.207912 224.141099 
L 205.4814 223.338592 
L 206.754888 222.041259 
L 208.028376 223.483177 
L 209.301864 224.273125 
L 210.575352 223.882752 
L 211.84884 218.675904 
L 213.122328 222.767781 
L 214.395816 223.433738 
L 215.669304 224.585753 
L 216.942792 223.659448 
L 218.21628 223.282116 
L 220.763256 222.929141 
L 222.036744 222.844855 
L 223.310232 223.742044 
L 224.58372 222.066406 
L 225.857208 223.503222 
L 227.130696 221.896456 
L 228.404184 223.751436 
L 229.677672 224.127109 
L 230.95116 223.886773 
L 232.224648 223.779893 
L 233.498136 221.010279 
L 234.771624 220.432044 
L 236.045112 222.007277 
L 237.3186 223.15117 
L 238.592088 222.717973 
L 239.865576 222.664588 
L 241.139064 224.369303 
L 242.412552 224.102965 
L 243.68604 223.675206 
L 244.959528 223.873771 
L 246.233016 224.380773 
L 247.506504 223.71588 
L 248.779992 222.691465 
L 250.05348 223.441958 
L 251.326968 224.712825 
L 253.873944 224.428879 
L 255.147432 224.886635 
L 256.420921 224.890565 
L 257.694409 222.878186 
L 258.967897 223.784569 
L 260.241385 224.502634 
L 261.514873 222.15422 
L 262.788361 224.006775 
L 264.061849 224.971563 
L 265.335337 224.437524 
L 266.608825 223.640214 
L 267.882313 223.599061 
L 269.155801 222.88525 
L 270.429289 221.520192 
L 271.702777 222.463898 
L 272.976265 220.499535 
L 274.249753 224.029132 
L 275.523241 224.633101 
L 276.796729 214.946807 
L 278.070217 222.168077 
L 279.343705 218.849209 
L 280.617193 224.342423 
L 281.890681 222.698526 
L 283.164169 224.122988 
L 284.437657 221.919002 
L 285.711145 221.268061 
L 286.984633 223.852748 
L 288.258121 224.071614 
L 289.531609 223.096473 
L 292.078585 223.420559 
L 294.625561 223.374624 
L 295.899049 223.651854 
L 297.172537 223.061366 
L 298.446025 223.870543 
L 299.719513 223.774989 
L 300.993001 223.535104 
L 302.266489 224.039989 
L 303.539977 218.815478 
L 304.813465 224.262287 
L 306.086953 222.567205 
L 307.360441 224.015783 
L 308.633929 224.151479 
L 309.907417 223.65139 
L 311.180905 223.632403 
L 312.454393 217.655394 
L 313.727881 223.102907 
L 315.001369 222.566038 
L 316.274857 223.944455 
L 317.548345 222.364036 
L 318.821833 224.45373 
L 320.095321 223.907449 
L 321.368809 223.769749 
L 322.642297 223.385873 
L 323.915785 223.332854 
L 325.189273 222.780758 
L 326.462762 224.636919 
L 327.73625 223.880047 
L 329.009738 224.48997 
L 330.283226 223.9848 
L 331.556714 224.718876 
L 332.830202 221.526843 
L 334.10369 223.622111 
L 335.377178 222.88362 
L 336.650666 224.27664 
L 337.924154 223.829975 
L 339.197642 222.802976 
L 340.47113 224.463322 
L 341.744618 224.527779 
L 343.018106 224.372155 
L 344.291594 223.44869 
L 345.565082 224.816324 
L 346.83857 223.756413 
L 348.112058 224.56476 
L 349.385546 223.972536 
L 350.659034 217.667425 
L 351.932522 224.543755 
L 353.20601 223.311581 
L 354.479498 221.922694 
L 355.752986 224.405997 
L 357.026474 224.444524 
L 358.299962 223.580406 
L 359.57345 223.857846 
L 360.846938 224.010889 
L 362.120426 223.443141 
L 363.393914 220.130389 
L 364.667402 220.891941 
L 365.94089 224.096082 
L 367.214378 224.43562 
L 368.487866 224.550601 
L 369.761354 223.371259 
L 371.034842 224.331332 
L 372.30833 223.595356 
L 373.581818 224.088977 
L 373.581818 224.088977 
" style="fill:none;stroke:#1f77b4;stroke-linecap:square;stroke-width:1.5;"/>
   </g>
   <g id="line2d_28">
    <path clip-path="url(#pf8312fd084)" d="M 69.218182 107.5779 
L 70.49167 152.574711 
L 71.765158 204.368487 
L 73.038646 149.415755 
L 74.312134 213.190619 
L 75.585622 215.951583 
L 76.85911 205.149531 
L 78.132598 217.476811 
L 79.406086 217.239231 
L 80.679574 183.576339 
L 81.953062 224.740657 
L 83.22655 232.081598 
L 84.500038 229.902771 
L 87.047014 214.510117 
L 88.320502 213.170326 
L 89.59399 215.70964 
L 90.867478 231.343074 
L 92.140966 222.976781 
L 93.414454 234.714865 
L 94.687942 229.146052 
L 95.96143 225.592676 
L 97.234918 229.165385 
L 98.508406 231.460566 
L 99.781894 231.42366 
L 101.055382 215.775711 
L 102.32887 230.254069 
L 103.602358 227.866108 
L 104.875846 225.180344 
L 106.149334 225.915362 
L 107.422822 233.133447 
L 108.69631 228.16736 
L 109.969798 226.702101 
L 111.243286 209.827068 
L 112.516774 219.023616 
L 113.790262 224.929546 
L 115.06375 218.563986 
L 116.337238 219.706326 
L 117.610727 231.200864 
L 118.884215 223.616016 
L 120.157703 223.946531 
L 121.431191 219.03049 
L 122.704679 216.816531 
L 123.978167 219.746852 
L 125.251655 229.566423 
L 126.525143 223.917998 
L 127.798631 235.811783 
L 129.072119 235.966246 
L 130.345607 236.703136 
L 131.619095 233.07465 
L 134.166071 223.259138 
L 135.439559 234.349584 
L 136.713047 235.629778 
L 137.986535 234.654536 
L 139.260023 230.988426 
L 140.533511 237.170215 
L 141.806999 222.269506 
L 143.080487 231.686395 
L 144.353975 230.416865 
L 145.627463 235.088414 
L 146.900951 228.655031 
L 148.174439 216.030552 
L 149.447927 239.316776 
L 150.721415 236.175674 
L 151.994903 218.768836 
L 153.268391 224.084567 
L 154.541879 235.373705 
L 155.815367 233.780401 
L 157.088855 226.842347 
L 158.362343 235.290239 
L 159.635831 224.668826 
L 160.909319 232.472767 
L 162.182807 229.258131 
L 163.456295 224.293399 
L 164.729783 216.89923 
L 166.003271 228.374374 
L 167.276759 215.41212 
L 168.550247 229.456058 
L 169.823735 222.307092 
L 171.097223 234.866534 
L 172.370711 233.415779 
L 173.644199 232.56578 
L 174.917687 226.334422 
L 176.191175 241.338204 
L 177.464663 224.595087 
L 178.738151 227.668223 
L 180.011639 229.768636 
L 181.285127 219.804582 
L 182.558615 236.411479 
L 183.832103 235.926135 
L 185.105591 238.268984 
L 186.379079 235.230535 
L 187.652568 234.04445 
L 188.926056 230.980344 
L 190.199544 237.209615 
L 191.473032 231.050884 
L 192.74652 215.236742 
L 194.020008 230.674172 
L 195.293496 227.811423 
L 196.566984 216.94044 
L 197.840472 234.694377 
L 200.387448 228.842739 
L 201.660936 231.926934 
L 202.934424 234.367775 
L 204.207912 235.933935 
L 205.4814 219.130994 
L 206.754888 213.755132 
L 208.028376 231.149039 
L 209.301864 235.622317 
L 210.575352 232.757517 
L 211.84884 221.357734 
L 213.122328 226.173721 
L 214.395816 239.493527 
L 215.669304 229.823064 
L 216.942792 233.050388 
L 218.21628 231.802837 
L 219.489768 242.019814 
L 220.763256 219.394426 
L 222.036744 225.606201 
L 223.310232 235.734375 
L 224.58372 227.87818 
L 225.857208 235.758208 
L 227.130696 230.135722 
L 228.404184 240.459875 
L 229.677672 225.700447 
L 230.95116 230.179205 
L 232.224648 232.490919 
L 233.498136 219.158847 
L 234.771624 237.491986 
L 236.045112 236.039305 
L 237.3186 225.631924 
L 238.592088 233.793028 
L 239.865576 235.244714 
L 241.139064 235.825964 
L 242.412552 227.470521 
L 243.68604 239.204558 
L 244.959528 236.876799 
L 246.233016 239.661178 
L 247.506504 229.884612 
L 248.779992 232.734802 
L 250.05348 238.461149 
L 251.326968 233.653946 
L 252.600456 227.682478 
L 253.873944 234.643036 
L 255.147432 230.139599 
L 256.420921 233.152137 
L 257.694409 228.673399 
L 258.967897 232.305261 
L 260.241385 238.630188 
L 261.514873 235.004617 
L 262.788361 239.001039 
L 264.061849 228.44938 
L 265.335337 219.912985 
L 266.608825 234.134406 
L 267.882313 229.13538 
L 269.155801 228.861707 
L 270.429289 224.513341 
L 271.702777 228.862579 
L 272.976265 227.88999 
L 274.249753 224.615412 
L 275.523241 226.354186 
L 276.796729 222.596999 
L 278.070217 230.575027 
L 279.343705 225.166191 
L 280.617193 238.831292 
L 281.890681 228.602783 
L 283.164169 224.05213 
L 284.437657 225.761934 
L 285.711145 227.778444 
L 286.984633 239.095616 
L 288.258121 224.171641 
L 289.531609 225.892623 
L 290.805097 235.226089 
L 292.078585 233.795338 
L 293.352073 235.320399 
L 294.625561 236.488902 
L 295.899049 218.638247 
L 297.172537 235.302212 
L 298.446025 222.746563 
L 299.719513 234.815308 
L 300.993001 236.524873 
L 302.266489 227.097433 
L 303.539977 221.760985 
L 304.813465 227.11574 
L 306.086953 230.756491 
L 307.360441 228.755091 
L 308.633929 235.219413 
L 309.907417 225.902904 
L 311.180905 233.854279 
L 312.454393 228.350358 
L 313.727881 239.521699 
L 315.001369 224.973289 
L 316.274857 236.595099 
L 317.548345 234.931513 
L 318.821833 234.861198 
L 320.095321 226.620473 
L 321.368809 230.962181 
L 322.642297 230.247893 
L 323.915785 226.725366 
L 325.189273 232.073206 
L 326.462762 226.677844 
L 327.73625 222.376058 
L 329.009738 236.420261 
L 330.283226 231.035787 
L 331.556714 235.944193 
L 332.830202 236.373679 
L 334.10369 232.03558 
L 335.377178 237.463719 
L 336.650666 235.552937 
L 337.924154 228.168751 
L 339.197642 231.744999 
L 340.47113 236.962492 
L 341.744618 226.569988 
L 343.018106 236.784112 
L 344.291594 236.14337 
L 345.565082 236.069043 
L 346.83857 230.538627 
L 348.112058 233.850217 
L 349.385546 234.13276 
L 350.659034 221.827977 
L 351.932522 217.666297 
L 353.20601 236.121009 
L 354.479498 232.59797 
L 355.752986 228.614144 
L 357.026474 236.352626 
L 358.299962 241.489268 
L 359.57345 233.387235 
L 360.846938 230.658729 
L 362.120426 230.652581 
L 363.393914 233.289772 
L 364.667402 225.01679 
L 365.94089 231.676086 
L 367.214378 234.764182 
L 368.487866 238.811531 
L 369.761354 223.482253 
L 371.034842 232.34349 
L 372.30833 242.116364 
L 373.581818 227.316929 
L 373.581818 227.316929 
" style="fill:none;stroke:#ff7f0e;stroke-linecap:square;stroke-width:1.5;"/>
   </g>
   <g id="patch_3">
    <path d="M 54 252 
L 54 34.56 
" style="fill:none;stroke:#000000;stroke-linecap:square;stroke-linejoin:miter;stroke-width:0.8;"/>
   </g>
   <g id="patch_4">
    <path d="M 388.8 252 
L 388.8 34.56 
" style="fill:none;stroke:#000000;stroke-linecap:square;stroke-linejoin:miter;stroke-width:0.8;"/>
   </g>
   <g id="patch_5">
    <path d="M 54 252 
L 388.8 252 
" style="fill:none;stroke:#000000;stroke-linecap:square;stroke-linejoin:miter;stroke-width:0.8;"/>
   </g>
   <g id="patch_6">
    <path d="M 54 34.56 
L 388.8 34.56 
" style="fill:none;stroke:#000000;stroke-linecap:square;stroke-linejoin:miter;stroke-width:0.8;"/>
   </g>
   <g id="text_16">
    <!-- Model cost -->
    <g transform="translate(178.23875 28.56)scale(0.16 -0.16)">
     <defs>
      <path d="M 628 4666 
L 1569 4666 
L 2759 1491 
L 3956 4666 
L 4897 4666 
L 4897 0 
L 4281 0 
L 4281 4097 
L 3078 897 
L 2444 897 
L 1241 4097 
L 1241 0 
L 628 0 
L 628 4666 
z
" id="DejaVuSans-4d" transform="scale(0.015625)"/>
      <path d="M 2906 2969 
L 2906 4863 
L 3481 4863 
L 3481 0 
L 2906 0 
L 2906 525 
Q 2725 213 2448 61 
Q 2172 -91 1784 -91 
Q 1150 -91 751 415 
Q 353 922 353 1747 
Q 353 2572 751 3078 
Q 1150 3584 1784 3584 
Q 2172 3584 2448 3432 
Q 2725 3281 2906 2969 
z
M 947 1747 
Q 947 1113 1208 752 
Q 1469 391 1925 391 
Q 2381 391 2643 752 
Q 2906 1113 2906 1747 
Q 2906 2381 2643 2742 
Q 2381 3103 1925 3103 
Q 1469 3103 1208 2742 
Q 947 2381 947 1747 
z
" id="DejaVuSans-64" transform="scale(0.015625)"/>
      <path d="M 3122 3366 
L 3122 2828 
Q 2878 2963 2633 3030 
Q 2388 3097 2138 3097 
Q 1578 3097 1268 2742 
Q 959 2388 959 1747 
Q 959 1106 1268 751 
Q 1578 397 2138 397 
Q 2388 397 2633 464 
Q 2878 531 3122 666 
L 3122 134 
Q 2881 22 2623 -34 
Q 2366 -91 2075 -91 
Q 1284 -91 818 406 
Q 353 903 353 1747 
Q 353 2603 823 3093 
Q 1294 3584 2113 3584 
Q 2378 3584 2631 3529 
Q 2884 3475 3122 3366 
z
" id="DejaVuSans-63" transform="scale(0.015625)"/>
     </defs>
     <use xlink:href="#DejaVuSans-4d"/>
     <use x="86.279297" xlink:href="#DejaVuSans-6f"/>
     <use x="147.460938" xlink:href="#DejaVuSans-64"/>
     <use x="210.9375" xlink:href="#DejaVuSans-65"/>
     <use x="272.460938" xlink:href="#DejaVuSans-6c"/>
     <use x="300.244141" xlink:href="#DejaVuSans-20"/>
     <use x="332.03125" xlink:href="#DejaVuSans-63"/>
     <use x="387.011719" xlink:href="#DejaVuSans-6f"/>
     <use x="448.193359" xlink:href="#DejaVuSans-73"/>
     <use x="500.292969" xlink:href="#DejaVuSans-74"/>
    </g>
   </g>
   <g id="legend_1">
    <g id="patch_7">
     <path d="M 259.778125 71.91625 
L 381.8 71.91625 
Q 383.8 71.91625 383.8 69.91625 
L 383.8 41.56 
Q 383.8 39.56 381.8 39.56 
L 259.778125 39.56 
Q 257.778125 39.56 257.778125 41.56 
L 257.778125 69.91625 
Q 257.778125 71.91625 259.778125 71.91625 
z
" style="fill:#ffffff;opacity:0.8;stroke:#cccccc;stroke-linejoin:miter;"/>
    </g>
    <g id="line2d_29">
     <path d="M 261.778125 47.658437 
L 281.778125 47.658437 
" style="fill:none;stroke:#1f77b4;stroke-linecap:square;stroke-width:1.5;"/>
    </g>
    <g id="line2d_30"/>
    <g id="text_17">
     <!-- Cost on test data -->
     <g transform="translate(289.778125 51.158437)scale(0.1 -0.1)">
      <use xlink:href="#DejaVuSans-43"/>
      <use x="69.824219" xlink:href="#DejaVuSans-6f"/>
      <use x="131.005859" xlink:href="#DejaVuSans-73"/>
      <use x="183.105469" xlink:href="#DejaVuSans-74"/>
      <use x="222.314453" xlink:href="#DejaVuSans-20"/>
      <use x="254.101562" xlink:href="#DejaVuSans-6f"/>
      <use x="315.283203" xlink:href="#DejaVuSans-6e"/>
      <use x="378.662109" xlink:href="#DejaVuSans-20"/>
      <use x="410.449219" xlink:href="#DejaVuSans-74"/>
      <use x="449.658203" xlink:href="#DejaVuSans-65"/>
      <use x="511.181641" xlink:href="#DejaVuSans-73"/>
      <use x="563.28125" xlink:href="#DejaVuSans-74"/>
      <use x="602.490234" xlink:href="#DejaVuSans-20"/>
      <use x="634.277344" xlink:href="#DejaVuSans-64"/>
      <use x="697.753906" xlink:href="#DejaVuSans-61"/>
      <use x="759.033203" xlink:href="#DejaVuSans-74"/>
      <use x="798.242188" xlink:href="#DejaVuSans-61"/>
     </g>
    </g>
    <g id="line2d_31">
     <path d="M 261.778125 62.336562 
L 281.778125 62.336562 
" style="fill:none;stroke:#ff7f0e;stroke-linecap:square;stroke-width:1.5;"/>
    </g>
    <g id="line2d_32"/>
    <g id="text_18">
     <!-- Cost on train data -->
     <g transform="translate(289.778125 65.836562)scale(0.1 -0.1)">
      <use xlink:href="#DejaVuSans-43"/>
      <use x="69.824219" xlink:href="#DejaVuSans-6f"/>
      <use x="131.005859" xlink:href="#DejaVuSans-73"/>
      <use x="183.105469" xlink:href="#DejaVuSans-74"/>
      <use x="222.314453" xlink:href="#DejaVuSans-20"/>
      <use x="254.101562" xlink:href="#DejaVuSans-6f"/>
      <use x="315.283203" xlink:href="#DejaVuSans-6e"/>
      <use x="378.662109" xlink:href="#DejaVuSans-20"/>
      <use x="410.449219" xlink:href="#DejaVuSans-74"/>
      <use x="449.658203" xlink:href="#DejaVuSans-72"/>
      <use x="490.771484" xlink:href="#DejaVuSans-61"/>
      <use x="552.050781" xlink:href="#DejaVuSans-69"/>
      <use x="579.833984" xlink:href="#DejaVuSans-6e"/>
      <use x="643.212891" xlink:href="#DejaVuSans-20"/>
      <use x="675" xlink:href="#DejaVuSans-64"/>
      <use x="738.476562" xlink:href="#DejaVuSans-61"/>
      <use x="799.755859" xlink:href="#DejaVuSans-74"/>
      <use x="838.964844" xlink:href="#DejaVuSans-61"/>
     </g>
    </g>
   </g>
  </g>
 </g>
 <defs>
  <clipPath id="pf8312fd084">
   <rect height="217.44" width="334.8" x="54" y="34.56"/>
  </clipPath>
 </defs>
</svg>
