<?xml version="1.0" encoding="utf-8" standalone="no"?>
<!DOCTYPE svg PUBLIC "-//W3C//DTD SVG 1.1//EN"
  "http://www.w3.org/Graphics/SVG/1.1/DTD/svg11.dtd">
<svg height="288pt" version="1.1" viewBox="0 0 432 288" width="432pt" xmlns="http://www.w3.org/2000/svg" xmlns:xlink="http://www.w3.org/1999/xlink">
 <metadata>
  <rdf:RDF xmlns:cc="http://creativecommons.org/ns#" xmlns:dc="http://purl.org/dc/elements/1.1/" xmlns:rdf="http://www.w3.org/1999/02/22-rdf-syntax-ns#">
   <cc:Work>
    <dc:type rdf:resource="http://purl.org/dc/dcmitype/StillImage"/>
    <dc:date>2023-04-13T11:26:09.922850</dc:date>
    <dc:format>image/svg+xml</dc:format>
    <dc:creator>
     <cc:Agent>
      <dc:title>Matplotlib v3.4.3, https://matplotlib.org/</dc:title>
     </cc:Agent>
    </dc:creator>
   </cc:Work>
  </rdf:RDF>
 </metadata>
 <defs>
  <style type="text/css">*{stroke-linecap:butt;stroke-linejoin:round;}</style>
 </defs>
 <g id="figure_1">
  <g id="patch_1">
   <path d="M 0 288 
L 432 288 
L 432 0 
L 0 0 
z
" style="fill:none;"/>
  </g>
  <g id="axes_1">
   <g id="patch_2">
    <path d="M 54 252 
L 388.8 252 
L 388.8 34.56 
L 54 34.56 
z
" style="fill:#ffffff;"/>
   </g>
   <g id="matplotlib.axis_1">
    <g id="xtick_1">
     <g id="line2d_1">
      <path clip-path="url(#pb6f8f5efe2)" d="M 69.218182 252 
L 69.218182 34.56 
" style="fill:none;stroke:#b0b0b0;stroke-linecap:square;stroke-width:0.8;"/>
     </g>
     <g id="line2d_2">
      <defs>
       <path d="M 0 0 
L 0 3.5 
" id="m97aa2059f1" style="stroke:#000000;stroke-width:0.8;"/>
      </defs>
      <g>
       <use style="stroke:#000000;stroke-width:0.8;" x="69.218182" xlink:href="#m97aa2059f1" y="252"/>
      </g>
     </g>
     <g id="text_1">
      <!-- 0 -->
      <g transform="translate(66.036932 266.598437)scale(0.1 -0.1)">
       <defs>
        <path d="M 2034 4250 
Q 1547 4250 1301 3770 
Q 1056 3291 1056 2328 
Q 1056 1369 1301 889 
Q 1547 409 2034 409 
Q 2525 409 2770 889 
Q 3016 1369 3016 2328 
Q 3016 3291 2770 3770 
Q 2525 4250 2034 4250 
z
M 2034 4750 
Q 2819 4750 3233 4129 
Q 3647 3509 3647 2328 
Q 3647 1150 3233 529 
Q 2819 -91 2034 -91 
Q 1250 -91 836 529 
Q 422 1150 422 2328 
Q 422 3509 836 4129 
Q 1250 4750 2034 4750 
z
" id="DejaVuSans-30" transform="scale(0.015625)"/>
       </defs>
       <use xlink:href="#DejaVuSans-30"/>
      </g>
     </g>
    </g>
    <g id="xtick_2">
     <g id="line2d_3">
      <path clip-path="url(#pb6f8f5efe2)" d="M 136.929781 252 
L 136.929781 34.56 
" style="fill:none;stroke:#b0b0b0;stroke-linecap:square;stroke-width:0.8;"/>
     </g>
     <g id="line2d_4">
      <g>
       <use style="stroke:#000000;stroke-width:0.8;" x="136.929781" xlink:href="#m97aa2059f1" y="252"/>
      </g>
     </g>
     <g id="text_2">
      <!-- 200000 -->
      <g transform="translate(117.842281 266.598437)scale(0.1 -0.1)">
       <defs>
        <path d="M 1228 531 
L 3431 531 
L 3431 0 
L 469 0 
L 469 531 
Q 828 903 1448 1529 
Q 2069 2156 2228 2338 
Q 2531 2678 2651 2914 
Q 2772 3150 2772 3378 
Q 2772 3750 2511 3984 
Q 2250 4219 1831 4219 
Q 1534 4219 1204 4116 
Q 875 4013 500 3803 
L 500 4441 
Q 881 4594 1212 4672 
Q 1544 4750 1819 4750 
Q 2544 4750 2975 4387 
Q 3406 4025 3406 3419 
Q 3406 3131 3298 2873 
Q 3191 2616 2906 2266 
Q 2828 2175 2409 1742 
Q 1991 1309 1228 531 
z
" id="DejaVuSans-32" transform="scale(0.015625)"/>
       </defs>
       <use xlink:href="#DejaVuSans-32"/>
       <use x="63.623047" xlink:href="#DejaVuSans-30"/>
       <use x="127.246094" xlink:href="#DejaVuSans-30"/>
       <use x="190.869141" xlink:href="#DejaVuSans-30"/>
       <use x="254.492188" xlink:href="#DejaVuSans-30"/>
       <use x="318.115234" xlink:href="#DejaVuSans-30"/>
      </g>
     </g>
    </g>
    <g id="xtick_3">
     <g id="line2d_5">
      <path clip-path="url(#pb6f8f5efe2)" d="M 204.641379 252 
L 204.641379 34.56 
" style="fill:none;stroke:#b0b0b0;stroke-linecap:square;stroke-width:0.8;"/>
     </g>
     <g id="line2d_6">
      <g>
       <use style="stroke:#000000;stroke-width:0.8;" x="204.641379" xlink:href="#m97aa2059f1" y="252"/>
      </g>
     </g>
     <g id="text_3">
      <!-- 400000 -->
      <g transform="translate(185.553879 266.598437)scale(0.1 -0.1)">
       <defs>
        <path d="M 2419 4116 
L 825 1625 
L 2419 1625 
L 2419 4116 
z
M 2253 4666 
L 3047 4666 
L 3047 1625 
L 3713 1625 
L 3713 1100 
L 3047 1100 
L 3047 0 
L 2419 0 
L 2419 1100 
L 313 1100 
L 313 1709 
L 2253 4666 
z
" id="DejaVuSans-34" transform="scale(0.015625)"/>
       </defs>
       <use xlink:href="#DejaVuSans-34"/>
       <use x="63.623047" xlink:href="#DejaVuSans-30"/>
       <use x="127.246094" xlink:href="#DejaVuSans-30"/>
       <use x="190.869141" xlink:href="#DejaVuSans-30"/>
       <use x="254.492188" xlink:href="#DejaVuSans-30"/>
       <use x="318.115234" xlink:href="#DejaVuSans-30"/>
      </g>
     </g>
    </g>
    <g id="xtick_4">
     <g id="line2d_7">
      <path clip-path="url(#pb6f8f5efe2)" d="M 272.352978 252 
L 272.352978 34.56 
" style="fill:none;stroke:#b0b0b0;stroke-linecap:square;stroke-width:0.8;"/>
     </g>
     <g id="line2d_8">
      <g>
       <use style="stroke:#000000;stroke-width:0.8;" x="272.352978" xlink:href="#m97aa2059f1" y="252"/>
      </g>
     </g>
     <g id="text_4">
      <!-- 600000 -->
      <g transform="translate(253.265478 266.598437)scale(0.1 -0.1)">
       <defs>
        <path d="M 2113 2584 
Q 1688 2584 1439 2293 
Q 1191 2003 1191 1497 
Q 1191 994 1439 701 
Q 1688 409 2113 409 
Q 2538 409 2786 701 
Q 3034 994 3034 1497 
Q 3034 2003 2786 2293 
Q 2538 2584 2113 2584 
z
M 3366 4563 
L 3366 3988 
Q 3128 4100 2886 4159 
Q 2644 4219 2406 4219 
Q 1781 4219 1451 3797 
Q 1122 3375 1075 2522 
Q 1259 2794 1537 2939 
Q 1816 3084 2150 3084 
Q 2853 3084 3261 2657 
Q 3669 2231 3669 1497 
Q 3669 778 3244 343 
Q 2819 -91 2113 -91 
Q 1303 -91 875 529 
Q 447 1150 447 2328 
Q 447 3434 972 4092 
Q 1497 4750 2381 4750 
Q 2619 4750 2861 4703 
Q 3103 4656 3366 4563 
z
" id="DejaVuSans-36" transform="scale(0.015625)"/>
       </defs>
       <use xlink:href="#DejaVuSans-36"/>
       <use x="63.623047" xlink:href="#DejaVuSans-30"/>
       <use x="127.246094" xlink:href="#DejaVuSans-30"/>
       <use x="190.869141" xlink:href="#DejaVuSans-30"/>
       <use x="254.492188" xlink:href="#DejaVuSans-30"/>
       <use x="318.115234" xlink:href="#DejaVuSans-30"/>
      </g>
     </g>
    </g>
    <g id="xtick_5">
     <g id="line2d_9">
      <path clip-path="url(#pb6f8f5efe2)" d="M 340.064577 252 
L 340.064577 34.56 
" style="fill:none;stroke:#b0b0b0;stroke-linecap:square;stroke-width:0.8;"/>
     </g>
     <g id="line2d_10">
      <g>
       <use style="stroke:#000000;stroke-width:0.8;" x="340.064577" xlink:href="#m97aa2059f1" y="252"/>
      </g>
     </g>
     <g id="text_5">
      <!-- 800000 -->
      <g transform="translate(320.977077 266.598437)scale(0.1 -0.1)">
       <defs>
        <path d="M 2034 2216 
Q 1584 2216 1326 1975 
Q 1069 1734 1069 1313 
Q 1069 891 1326 650 
Q 1584 409 2034 409 
Q 2484 409 2743 651 
Q 3003 894 3003 1313 
Q 3003 1734 2745 1975 
Q 2488 2216 2034 2216 
z
M 1403 2484 
Q 997 2584 770 2862 
Q 544 3141 544 3541 
Q 544 4100 942 4425 
Q 1341 4750 2034 4750 
Q 2731 4750 3128 4425 
Q 3525 4100 3525 3541 
Q 3525 3141 3298 2862 
Q 3072 2584 2669 2484 
Q 3125 2378 3379 2068 
Q 3634 1759 3634 1313 
Q 3634 634 3220 271 
Q 2806 -91 2034 -91 
Q 1263 -91 848 271 
Q 434 634 434 1313 
Q 434 1759 690 2068 
Q 947 2378 1403 2484 
z
M 1172 3481 
Q 1172 3119 1398 2916 
Q 1625 2713 2034 2713 
Q 2441 2713 2670 2916 
Q 2900 3119 2900 3481 
Q 2900 3844 2670 4047 
Q 2441 4250 2034 4250 
Q 1625 4250 1398 4047 
Q 1172 3844 1172 3481 
z
" id="DejaVuSans-38" transform="scale(0.015625)"/>
       </defs>
       <use xlink:href="#DejaVuSans-38"/>
       <use x="63.623047" xlink:href="#DejaVuSans-30"/>
       <use x="127.246094" xlink:href="#DejaVuSans-30"/>
       <use x="190.869141" xlink:href="#DejaVuSans-30"/>
       <use x="254.492188" xlink:href="#DejaVuSans-30"/>
       <use x="318.115234" xlink:href="#DejaVuSans-30"/>
      </g>
     </g>
    </g>
    <g id="text_6">
     <!-- Training examples -->
     <g transform="translate(157.780937 283.315938)scale(0.14 -0.14)">
      <defs>
       <path d="M -19 4666 
L 3928 4666 
L 3928 4134 
L 2272 4134 
L 2272 0 
L 1638 0 
L 1638 4134 
L -19 4134 
L -19 4666 
z
" id="DejaVuSans-54" transform="scale(0.015625)"/>
       <path d="M 2631 2963 
Q 2534 3019 2420 3045 
Q 2306 3072 2169 3072 
Q 1681 3072 1420 2755 
Q 1159 2438 1159 1844 
L 1159 0 
L 581 0 
L 581 3500 
L 1159 3500 
L 1159 2956 
Q 1341 3275 1631 3429 
Q 1922 3584 2338 3584 
Q 2397 3584 2469 3576 
Q 2541 3569 2628 3553 
L 2631 2963 
z
" id="DejaVuSans-72" transform="scale(0.015625)"/>
       <path d="M 2194 1759 
Q 1497 1759 1228 1600 
Q 959 1441 959 1056 
Q 959 750 1161 570 
Q 1363 391 1709 391 
Q 2188 391 2477 730 
Q 2766 1069 2766 1631 
L 2766 1759 
L 2194 1759 
z
M 3341 1997 
L 3341 0 
L 2766 0 
L 2766 531 
Q 2569 213 2275 61 
Q 1981 -91 1556 -91 
Q 1019 -91 701 211 
Q 384 513 384 1019 
Q 384 1609 779 1909 
Q 1175 2209 1959 2209 
L 2766 2209 
L 2766 2266 
Q 2766 2663 2505 2880 
Q 2244 3097 1772 3097 
Q 1472 3097 1187 3025 
Q 903 2953 641 2809 
L 641 3341 
Q 956 3463 1253 3523 
Q 1550 3584 1831 3584 
Q 2591 3584 2966 3190 
Q 3341 2797 3341 1997 
z
" id="DejaVuSans-61" transform="scale(0.015625)"/>
       <path d="M 603 3500 
L 1178 3500 
L 1178 0 
L 603 0 
L 603 3500 
z
M 603 4863 
L 1178 4863 
L 1178 4134 
L 603 4134 
L 603 4863 
z
" id="DejaVuSans-69" transform="scale(0.015625)"/>
       <path d="M 3513 2113 
L 3513 0 
L 2938 0 
L 2938 2094 
Q 2938 2591 2744 2837 
Q 2550 3084 2163 3084 
Q 1697 3084 1428 2787 
Q 1159 2491 1159 1978 
L 1159 0 
L 581 0 
L 581 3500 
L 1159 3500 
L 1159 2956 
Q 1366 3272 1645 3428 
Q 1925 3584 2291 3584 
Q 2894 3584 3203 3211 
Q 3513 2838 3513 2113 
z
" id="DejaVuSans-6e" transform="scale(0.015625)"/>
       <path d="M 2906 1791 
Q 2906 2416 2648 2759 
Q 2391 3103 1925 3103 
Q 1463 3103 1205 2759 
Q 947 2416 947 1791 
Q 947 1169 1205 825 
Q 1463 481 1925 481 
Q 2391 481 2648 825 
Q 2906 1169 2906 1791 
z
M 3481 434 
Q 3481 -459 3084 -895 
Q 2688 -1331 1869 -1331 
Q 1566 -1331 1297 -1286 
Q 1028 -1241 775 -1147 
L 775 -588 
Q 1028 -725 1275 -790 
Q 1522 -856 1778 -856 
Q 2344 -856 2625 -561 
Q 2906 -266 2906 331 
L 2906 616 
Q 2728 306 2450 153 
Q 2172 0 1784 0 
Q 1141 0 747 490 
Q 353 981 353 1791 
Q 353 2603 747 3093 
Q 1141 3584 1784 3584 
Q 2172 3584 2450 3431 
Q 2728 3278 2906 2969 
L 2906 3500 
L 3481 3500 
L 3481 434 
z
" id="DejaVuSans-67" transform="scale(0.015625)"/>
       <path id="DejaVuSans-20" transform="scale(0.015625)"/>
       <path d="M 3597 1894 
L 3597 1613 
L 953 1613 
Q 991 1019 1311 708 
Q 1631 397 2203 397 
Q 2534 397 2845 478 
Q 3156 559 3463 722 
L 3463 178 
Q 3153 47 2828 -22 
Q 2503 -91 2169 -91 
Q 1331 -91 842 396 
Q 353 884 353 1716 
Q 353 2575 817 3079 
Q 1281 3584 2069 3584 
Q 2775 3584 3186 3129 
Q 3597 2675 3597 1894 
z
M 3022 2063 
Q 3016 2534 2758 2815 
Q 2500 3097 2075 3097 
Q 1594 3097 1305 2825 
Q 1016 2553 972 2059 
L 3022 2063 
z
" id="DejaVuSans-65" transform="scale(0.015625)"/>
       <path d="M 3513 3500 
L 2247 1797 
L 3578 0 
L 2900 0 
L 1881 1375 
L 863 0 
L 184 0 
L 1544 1831 
L 300 3500 
L 978 3500 
L 1906 2253 
L 2834 3500 
L 3513 3500 
z
" id="DejaVuSans-78" transform="scale(0.015625)"/>
       <path d="M 3328 2828 
Q 3544 3216 3844 3400 
Q 4144 3584 4550 3584 
Q 5097 3584 5394 3201 
Q 5691 2819 5691 2113 
L 5691 0 
L 5113 0 
L 5113 2094 
Q 5113 2597 4934 2840 
Q 4756 3084 4391 3084 
Q 3944 3084 3684 2787 
Q 3425 2491 3425 1978 
L 3425 0 
L 2847 0 
L 2847 2094 
Q 2847 2600 2669 2842 
Q 2491 3084 2119 3084 
Q 1678 3084 1418 2786 
Q 1159 2488 1159 1978 
L 1159 0 
L 581 0 
L 581 3500 
L 1159 3500 
L 1159 2956 
Q 1356 3278 1631 3431 
Q 1906 3584 2284 3584 
Q 2666 3584 2933 3390 
Q 3200 3197 3328 2828 
z
" id="DejaVuSans-6d" transform="scale(0.015625)"/>
       <path d="M 1159 525 
L 1159 -1331 
L 581 -1331 
L 581 3500 
L 1159 3500 
L 1159 2969 
Q 1341 3281 1617 3432 
Q 1894 3584 2278 3584 
Q 2916 3584 3314 3078 
Q 3713 2572 3713 1747 
Q 3713 922 3314 415 
Q 2916 -91 2278 -91 
Q 1894 -91 1617 61 
Q 1341 213 1159 525 
z
M 3116 1747 
Q 3116 2381 2855 2742 
Q 2594 3103 2138 3103 
Q 1681 3103 1420 2742 
Q 1159 2381 1159 1747 
Q 1159 1113 1420 752 
Q 1681 391 2138 391 
Q 2594 391 2855 752 
Q 3116 1113 3116 1747 
z
" id="DejaVuSans-70" transform="scale(0.015625)"/>
       <path d="M 603 4863 
L 1178 4863 
L 1178 0 
L 603 0 
L 603 4863 
z
" id="DejaVuSans-6c" transform="scale(0.015625)"/>
       <path d="M 2834 3397 
L 2834 2853 
Q 2591 2978 2328 3040 
Q 2066 3103 1784 3103 
Q 1356 3103 1142 2972 
Q 928 2841 928 2578 
Q 928 2378 1081 2264 
Q 1234 2150 1697 2047 
L 1894 2003 
Q 2506 1872 2764 1633 
Q 3022 1394 3022 966 
Q 3022 478 2636 193 
Q 2250 -91 1575 -91 
Q 1294 -91 989 -36 
Q 684 19 347 128 
L 347 722 
Q 666 556 975 473 
Q 1284 391 1588 391 
Q 1994 391 2212 530 
Q 2431 669 2431 922 
Q 2431 1156 2273 1281 
Q 2116 1406 1581 1522 
L 1381 1569 
Q 847 1681 609 1914 
Q 372 2147 372 2553 
Q 372 3047 722 3315 
Q 1072 3584 1716 3584 
Q 2034 3584 2315 3537 
Q 2597 3491 2834 3397 
z
" id="DejaVuSans-73" transform="scale(0.015625)"/>
      </defs>
      <use xlink:href="#DejaVuSans-54"/>
      <use x="46.333984" xlink:href="#DejaVuSans-72"/>
      <use x="87.447266" xlink:href="#DejaVuSans-61"/>
      <use x="148.726562" xlink:href="#DejaVuSans-69"/>
      <use x="176.509766" xlink:href="#DejaVuSans-6e"/>
      <use x="239.888672" xlink:href="#DejaVuSans-69"/>
      <use x="267.671875" xlink:href="#DejaVuSans-6e"/>
      <use x="331.050781" xlink:href="#DejaVuSans-67"/>
      <use x="394.527344" xlink:href="#DejaVuSans-20"/>
      <use x="426.314453" xlink:href="#DejaVuSans-65"/>
      <use x="486.087891" xlink:href="#DejaVuSans-78"/>
      <use x="545.267578" xlink:href="#DejaVuSans-61"/>
      <use x="606.546875" xlink:href="#DejaVuSans-6d"/>
      <use x="703.958984" xlink:href="#DejaVuSans-70"/>
      <use x="767.435547" xlink:href="#DejaVuSans-6c"/>
      <use x="795.21875" xlink:href="#DejaVuSans-65"/>
      <use x="856.742188" xlink:href="#DejaVuSans-73"/>
     </g>
    </g>
   </g>
   <g id="matplotlib.axis_2">
    <g id="ytick_1">
     <g id="line2d_11">
      <path clip-path="url(#pb6f8f5efe2)" d="M 54 242.449442 
L 388.8 242.449442 
" style="fill:none;stroke:#b0b0b0;stroke-linecap:square;stroke-width:0.8;"/>
     </g>
     <g id="line2d_12">
      <defs>
       <path d="M 0 0 
L -3.5 0 
" id="mea0ca06269" style="stroke:#000000;stroke-width:0.8;"/>
      </defs>
      <g>
       <use style="stroke:#000000;stroke-width:0.8;" x="54" xlink:href="#mea0ca06269" y="242.449442"/>
      </g>
     </g>
     <g id="text_7">
      <!-- 0.0 -->
      <g transform="translate(31.096875 246.248661)scale(0.1 -0.1)">
       <defs>
        <path d="M 684 794 
L 1344 794 
L 1344 0 
L 684 0 
L 684 794 
z
" id="DejaVuSans-2e" transform="scale(0.015625)"/>
       </defs>
       <use xlink:href="#DejaVuSans-30"/>
       <use x="63.623047" xlink:href="#DejaVuSans-2e"/>
       <use x="95.410156" xlink:href="#DejaVuSans-30"/>
      </g>
     </g>
    </g>
    <g id="ytick_2">
     <g id="line2d_13">
      <path clip-path="url(#pb6f8f5efe2)" d="M 54 199.453552 
L 388.8 199.453552 
" style="fill:none;stroke:#b0b0b0;stroke-linecap:square;stroke-width:0.8;"/>
     </g>
     <g id="line2d_14">
      <g>
       <use style="stroke:#000000;stroke-width:0.8;" x="54" xlink:href="#mea0ca06269" y="199.453552"/>
      </g>
     </g>
     <g id="text_8">
      <!-- 0.5 -->
      <g transform="translate(31.096875 203.252771)scale(0.1 -0.1)">
       <defs>
        <path d="M 691 4666 
L 3169 4666 
L 3169 4134 
L 1269 4134 
L 1269 2991 
Q 1406 3038 1543 3061 
Q 1681 3084 1819 3084 
Q 2600 3084 3056 2656 
Q 3513 2228 3513 1497 
Q 3513 744 3044 326 
Q 2575 -91 1722 -91 
Q 1428 -91 1123 -41 
Q 819 9 494 109 
L 494 744 
Q 775 591 1075 516 
Q 1375 441 1709 441 
Q 2250 441 2565 725 
Q 2881 1009 2881 1497 
Q 2881 1984 2565 2268 
Q 2250 2553 1709 2553 
Q 1456 2553 1204 2497 
Q 953 2441 691 2322 
L 691 4666 
z
" id="DejaVuSans-35" transform="scale(0.015625)"/>
       </defs>
       <use xlink:href="#DejaVuSans-30"/>
       <use x="63.623047" xlink:href="#DejaVuSans-2e"/>
       <use x="95.410156" xlink:href="#DejaVuSans-35"/>
      </g>
     </g>
    </g>
    <g id="ytick_3">
     <g id="line2d_15">
      <path clip-path="url(#pb6f8f5efe2)" d="M 54 156.457662 
L 388.8 156.457662 
" style="fill:none;stroke:#b0b0b0;stroke-linecap:square;stroke-width:0.8;"/>
     </g>
     <g id="line2d_16">
      <g>
       <use style="stroke:#000000;stroke-width:0.8;" x="54" xlink:href="#mea0ca06269" y="156.457662"/>
      </g>
     </g>
     <g id="text_9">
      <!-- 1.0 -->
      <g transform="translate(31.096875 160.256881)scale(0.1 -0.1)">
       <defs>
        <path d="M 794 531 
L 1825 531 
L 1825 4091 
L 703 3866 
L 703 4441 
L 1819 4666 
L 2450 4666 
L 2450 531 
L 3481 531 
L 3481 0 
L 794 0 
L 794 531 
z
" id="DejaVuSans-31" transform="scale(0.015625)"/>
       </defs>
       <use xlink:href="#DejaVuSans-31"/>
       <use x="63.623047" xlink:href="#DejaVuSans-2e"/>
       <use x="95.410156" xlink:href="#DejaVuSans-30"/>
      </g>
     </g>
    </g>
    <g id="ytick_4">
     <g id="line2d_17">
      <path clip-path="url(#pb6f8f5efe2)" d="M 54 113.461772 
L 388.8 113.461772 
" style="fill:none;stroke:#b0b0b0;stroke-linecap:square;stroke-width:0.8;"/>
     </g>
     <g id="line2d_18">
      <g>
       <use style="stroke:#000000;stroke-width:0.8;" x="54" xlink:href="#mea0ca06269" y="113.461772"/>
      </g>
     </g>
     <g id="text_10">
      <!-- 1.5 -->
      <g transform="translate(31.096875 117.260991)scale(0.1 -0.1)">
       <use xlink:href="#DejaVuSans-31"/>
       <use x="63.623047" xlink:href="#DejaVuSans-2e"/>
       <use x="95.410156" xlink:href="#DejaVuSans-35"/>
      </g>
     </g>
    </g>
    <g id="ytick_5">
     <g id="line2d_19">
      <path clip-path="url(#pb6f8f5efe2)" d="M 54 70.465882 
L 388.8 70.465882 
" style="fill:none;stroke:#b0b0b0;stroke-linecap:square;stroke-width:0.8;"/>
     </g>
     <g id="line2d_20">
      <g>
       <use style="stroke:#000000;stroke-width:0.8;" x="54" xlink:href="#mea0ca06269" y="70.465882"/>
      </g>
     </g>
     <g id="text_11">
      <!-- 2.0 -->
      <g transform="translate(31.096875 74.265101)scale(0.1 -0.1)">
       <use xlink:href="#DejaVuSans-32"/>
       <use x="63.623047" xlink:href="#DejaVuSans-2e"/>
       <use x="95.410156" xlink:href="#DejaVuSans-30"/>
      </g>
     </g>
    </g>
    <g id="text_12">
     <!-- Cost -->
     <g transform="translate(24.185312 158.841875)rotate(-90)scale(0.14 -0.14)">
      <defs>
       <path d="M 4122 4306 
L 4122 3641 
Q 3803 3938 3442 4084 
Q 3081 4231 2675 4231 
Q 1875 4231 1450 3742 
Q 1025 3253 1025 2328 
Q 1025 1406 1450 917 
Q 1875 428 2675 428 
Q 3081 428 3442 575 
Q 3803 722 4122 1019 
L 4122 359 
Q 3791 134 3420 21 
Q 3050 -91 2638 -91 
Q 1578 -91 968 557 
Q 359 1206 359 2328 
Q 359 3453 968 4101 
Q 1578 4750 2638 4750 
Q 3056 4750 3426 4639 
Q 3797 4528 4122 4306 
z
" id="DejaVuSans-43" transform="scale(0.015625)"/>
       <path d="M 1959 3097 
Q 1497 3097 1228 2736 
Q 959 2375 959 1747 
Q 959 1119 1226 758 
Q 1494 397 1959 397 
Q 2419 397 2687 759 
Q 2956 1122 2956 1747 
Q 2956 2369 2687 2733 
Q 2419 3097 1959 3097 
z
M 1959 3584 
Q 2709 3584 3137 3096 
Q 3566 2609 3566 1747 
Q 3566 888 3137 398 
Q 2709 -91 1959 -91 
Q 1206 -91 779 398 
Q 353 888 353 1747 
Q 353 2609 779 3096 
Q 1206 3584 1959 3584 
z
" id="DejaVuSans-6f" transform="scale(0.015625)"/>
       <path d="M 1172 4494 
L 1172 3500 
L 2356 3500 
L 2356 3053 
L 1172 3053 
L 1172 1153 
Q 1172 725 1289 603 
Q 1406 481 1766 481 
L 2356 481 
L 2356 0 
L 1766 0 
Q 1100 0 847 248 
Q 594 497 594 1153 
L 594 3053 
L 172 3053 
L 172 3500 
L 594 3500 
L 594 4494 
L 1172 4494 
z
" id="DejaVuSans-74" transform="scale(0.015625)"/>
      </defs>
      <use xlink:href="#DejaVuSans-43"/>
      <use x="69.824219" xlink:href="#DejaVuSans-6f"/>
      <use x="131.005859" xlink:href="#DejaVuSans-73"/>
      <use x="183.105469" xlink:href="#DejaVuSans-74"/>
     </g>
    </g>
   </g>
   <g id="line2d_21">
    <path clip-path="url(#pb6f8f5efe2)" d="M 69.218182 44.445986 
L 77.682132 44.586506 
L 79.374922 44.770128 
L 80.390596 45.103459 
L 81.067712 45.656676 
L 81.40627 46.072788 
L 81.744828 46.84852 
L 82.083386 48.021475 
L 82.421944 49.927943 
L 83.776176 63.160787 
L 84.114734 67.233709 
L 84.453292 73.173589 
L 85.130408 94.177159 
L 85.807524 119.664544 
L 86.146082 127.784589 
L 86.823197 136.381854 
L 87.161755 138.896178 
L 87.500313 144.921253 
L 87.838871 145.981051 
L 88.177429 154.390108 
L 88.515987 157.45531 
L 88.854545 157.196403 
L 89.193103 167.322018 
L 89.531661 169.128527 
L 89.870219 172.705261 
L 90.208777 174.259201 
L 91.224451 183.31364 
L 91.563009 183.723796 
L 91.901567 184.565475 
L 92.240125 183.213753 
L 92.578683 184.213498 
L 92.917241 187.295284 
L 93.255799 187.798142 
L 93.594357 189.642315 
L 93.932915 185.747005 
L 94.271473 190.794076 
L 94.610031 189.265352 
L 94.948589 191.899801 
L 95.287147 191.21608 
L 95.625705 192.528145 
L 95.964263 190.967358 
L 96.302821 193.215523 
L 96.641379 191.587451 
L 96.979937 195.204125 
L 97.318495 195.905121 
L 97.657053 192.98939 
L 97.995611 195.161626 
L 98.334169 196.324106 
L 98.672727 194.471464 
L 99.011285 197.683775 
L 99.349843 197.28545 
L 99.688401 198.377507 
L 100.026959 195.206895 
L 100.365517 199.058583 
L 100.704075 200.442464 
L 101.042633 197.685907 
L 101.381191 193.756259 
L 101.719749 201.918801 
L 102.058307 199.161095 
L 102.396865 203.541672 
L 102.735423 200.420631 
L 103.412539 202.611005 
L 103.751097 204.992602 
L 104.089655 204.955901 
L 104.428213 202.598937 
L 104.766771 204.724173 
L 105.105329 204.610633 
L 105.782445 207.778564 
L 106.121003 207.454908 
L 106.459561 207.532391 
L 106.798119 208.301385 
L 107.136677 207.738658 
L 107.475235 209.252964 
L 107.813793 207.241102 
L 108.152351 209.282234 
L 108.490909 210.63438 
L 108.829467 208.909727 
L 109.168025 210.41083 
L 109.506583 210.536913 
L 109.845141 209.503298 
L 110.183699 211.313155 
L 110.860815 212.538458 
L 111.199373 211.552175 
L 111.537931 212.707125 
L 111.876489 211.516137 
L 112.553605 212.859792 
L 112.892163 212.646409 
L 113.230721 212.870416 
L 113.569279 213.548793 
L 113.907837 212.576845 
L 114.246395 213.703529 
L 114.584953 212.567814 
L 114.923511 213.632517 
L 115.262069 213.033524 
L 115.600627 213.099069 
L 115.939185 214.063364 
L 116.277743 214.295387 
L 116.616301 216.199738 
L 116.954859 216.916274 
L 117.293417 214.148697 
L 117.631975 216.402437 
L 117.970533 217.233498 
L 118.309091 216.62967 
L 118.647649 217.375703 
L 119.324765 217.09086 
L 119.663323 216.603779 
L 120.001881 216.893885 
L 120.340439 218.194444 
L 120.678997 218.091093 
L 121.017555 216.948577 
L 121.356113 218.092304 
L 121.694671 216.333211 
L 122.033229 219.66522 
L 122.371787 219.021443 
L 122.710345 219.173938 
L 123.048903 216.900368 
L 123.387461 219.067249 
L 123.726019 215.959316 
L 124.064577 218.851481 
L 124.403135 219.999639 
L 124.741693 219.726605 
L 125.080251 220.78758 
L 125.418809 217.85529 
L 125.757367 220.711828 
L 126.095925 220.785554 
L 126.434483 220.349051 
L 126.773041 220.701917 
L 127.111599 221.502006 
L 127.450157 221.25675 
L 127.788715 221.489447 
L 128.127273 220.18201 
L 128.465831 219.540343 
L 128.804389 222.372161 
L 129.142947 221.760973 
L 129.481505 222.256799 
L 129.820063 220.536162 
L 130.158621 222.943819 
L 130.497179 222.502562 
L 130.835737 222.292871 
L 131.174295 222.587215 
L 131.512853 223.662466 
L 131.851411 223.13177 
L 132.189969 223.519342 
L 132.528527 222.70389 
L 132.867085 224.07239 
L 133.205643 221.381298 
L 133.544201 221.775813 
L 133.882759 223.322727 
L 134.221317 224.181572 
L 134.559875 223.223598 
L 134.898433 222.753068 
L 135.236991 224.42466 
L 135.575549 224.078324 
L 135.914107 224.209079 
L 136.252665 224.951698 
L 136.591223 224.013121 
L 136.929781 224.214934 
L 137.606897 225.243266 
L 137.945455 224.209114 
L 138.284013 224.258707 
L 138.622571 225.440801 
L 138.961129 221.314069 
L 139.299687 225.569338 
L 139.976803 224.169657 
L 140.653918 226.04518 
L 140.992476 225.869617 
L 141.331034 225.950407 
L 141.669592 225.007317 
L 142.00815 226.035581 
L 142.346708 226.03363 
L 142.685266 224.506698 
L 143.023824 226.33807 
L 143.362382 226.144061 
L 143.70094 225.249453 
L 144.039498 226.67132 
L 144.716614 224.805392 
L 145.055172 226.825974 
L 145.732288 225.160598 
L 146.070846 226.407516 
L 146.409404 226.666254 
L 146.747962 227.087929 
L 147.08652 227.085597 
L 147.763636 226.366773 
L 148.102194 226.265774 
L 148.440752 227.316144 
L 148.77931 226.077425 
L 149.117868 226.602941 
L 149.456426 227.528565 
L 149.794984 228.016828 
L 150.133542 227.074006 
L 150.4721 227.53838 
L 150.810658 227.553185 
L 151.149216 227.289557 
L 151.487774 227.590489 
L 151.826332 226.536416 
L 152.503448 227.682167 
L 152.842006 226.374471 
L 153.180564 227.939917 
L 153.519122 226.497994 
L 153.85768 228.302068 
L 154.196238 228.239001 
L 154.534796 227.694613 
L 154.873354 228.483543 
L 155.211912 228.727382 
L 155.889028 226.494026 
L 156.566144 228.515972 
L 156.904702 228.589591 
L 157.24326 225.526216 
L 157.581818 228.121979 
L 157.920376 228.699278 
L 158.258934 227.832121 
L 158.597492 227.517953 
L 158.93605 228.468608 
L 159.274608 228.066172 
L 159.613166 229.241198 
L 159.951724 228.289353 
L 160.290282 228.967051 
L 160.62884 229.067424 
L 160.967398 228.499137 
L 161.305956 227.360529 
L 161.644514 229.457508 
L 161.983072 229.235959 
L 162.32163 229.820558 
L 162.998746 228.935285 
L 163.337304 228.930302 
L 163.675862 229.487095 
L 164.01442 229.230267 
L 164.352978 229.569597 
L 164.691536 229.297536 
L 165.030094 229.75607 
L 165.70721 229.884207 
L 166.045768 229.011562 
L 166.384326 229.730274 
L 166.722884 229.942397 
L 167.061442 226.940673 
L 167.4 230.036761 
L 167.738558 230.130388 
L 168.077116 229.838319 
L 168.415674 229.747024 
L 168.754232 229.186093 
L 169.09279 230.036418 
L 169.431348 230.030059 
L 170.108464 229.714544 
L 170.447022 230.509358 
L 170.78558 230.305338 
L 171.462696 230.299435 
L 172.139812 230.2306 
L 172.47837 229.342136 
L 172.816928 230.213659 
L 173.155486 230.58709 
L 173.494044 230.652166 
L 173.832602 230.433994 
L 174.17116 230.488056 
L 174.509718 230.972957 
L 174.848276 230.57383 
L 175.186834 229.844501 
L 175.525392 230.790921 
L 175.86395 230.745285 
L 176.879624 231.077338 
L 177.55674 230.552997 
L 177.895298 230.93372 
L 178.572414 229.82663 
L 179.24953 231.173515 
L 179.588088 230.978762 
L 179.926646 231.246926 
L 180.265204 230.57214 
L 180.603762 231.019021 
L 181.280878 231.393008 
L 181.957994 230.987262 
L 182.296552 230.868693 
L 182.63511 230.166952 
L 182.973668 230.728257 
L 183.312226 230.948039 
L 183.650784 230.211772 
L 183.989342 230.590214 
L 184.3279 229.300446 
L 184.666458 229.761315 
L 185.005016 231.243696 
L 185.343574 231.224132 
L 185.682132 231.403037 
L 186.02069 231.221997 
L 187.036364 231.263623 
L 187.71348 231.615732 
L 188.052038 231.457353 
L 188.729154 231.848684 
L 189.067712 231.184813 
L 189.744828 232.002579 
L 190.083386 231.76425 
L 190.421944 232.125057 
L 190.760502 231.662016 
L 191.09906 231.919323 
L 191.437618 231.406775 
L 191.776176 231.883673 
L 192.114734 231.981092 
L 192.453292 232.25014 
L 192.79185 231.114696 
L 193.130408 231.980439 
L 193.468966 231.505897 
L 193.807524 232.452066 
L 194.146082 231.543353 
L 194.484639 231.962139 
L 194.823197 231.495497 
L 195.161755 231.356437 
L 195.500313 231.643286 
L 195.838871 232.234635 
L 196.177429 232.342485 
L 196.515987 231.853713 
L 196.854545 231.018162 
L 197.193103 232.342615 
L 197.531661 231.839733 
L 197.870219 232.11104 
L 198.208777 231.959051 
L 198.547335 232.116931 
L 198.885893 232.144402 
L 199.224451 232.463782 
L 199.563009 231.123198 
L 199.901567 231.66641 
L 200.240125 231.634617 
L 200.578683 231.862106 
L 200.917241 231.52649 
L 201.255799 232.13427 
L 202.271473 231.727987 
L 202.948589 232.0478 
L 203.287147 232.006087 
L 203.625705 231.448749 
L 203.964263 232.556181 
L 204.302821 231.977309 
L 204.641379 232.251175 
L 204.979937 231.905714 
L 205.318495 232.474926 
L 205.657053 232.270966 
L 205.995611 231.862518 
L 206.672727 232.804062 
L 207.011285 232.679704 
L 207.349843 232.754073 
L 207.688401 232.525815 
L 208.026959 232.667935 
L 208.365517 232.604877 
L 208.704075 232.84427 
L 209.042633 231.861598 
L 209.381191 231.789985 
L 209.719749 232.818173 
L 210.058307 231.885769 
L 210.396865 232.669006 
L 210.735423 233.121795 
L 211.073981 231.947367 
L 211.412539 232.907977 
L 211.751097 232.490503 
L 212.089655 232.457727 
L 212.428213 232.611155 
L 212.766771 229.856015 
L 213.105329 233.135689 
L 213.443887 232.488582 
L 213.782445 233.066101 
L 214.459561 232.723175 
L 214.798119 228.771962 
L 215.136677 232.871829 
L 215.475235 233.023739 
L 215.813793 233.004496 
L 216.490909 233.348667 
L 217.168025 233.189214 
L 217.506583 231.610773 
L 217.845141 232.39888 
L 218.183699 232.618248 
L 218.522257 233.287424 
L 219.199373 232.854228 
L 219.537931 233.152164 
L 220.553605 232.710544 
L 220.892163 233.180734 
L 221.569279 233.011009 
L 221.907837 233.002708 
L 222.246395 232.0727 
L 222.584953 232.950419 
L 222.923511 233.360369 
L 223.262069 233.052679 
L 223.600627 233.081691 
L 223.939185 233.433498 
L 224.277743 231.457801 
L 224.616301 233.031518 
L 224.954859 233.529372 
L 225.293417 233.240843 
L 225.631975 233.551047 
L 225.970533 233.671378 
L 226.309091 232.686117 
L 226.647649 233.42998 
L 226.986207 232.719621 
L 227.324765 232.547098 
L 227.663323 233.014815 
L 228.340439 232.566935 
L 228.678997 232.983902 
L 229.017555 233.802586 
L 229.356113 232.904539 
L 229.694671 233.626107 
L 230.710345 233.497057 
L 231.048903 233.77447 
L 231.387461 233.73326 
L 231.726019 233.12177 
L 232.064577 233.505737 
L 232.403135 233.438175 
L 233.080251 232.75519 
L 233.418809 232.883813 
L 233.757367 233.590753 
L 234.095925 233.435497 
L 234.434483 233.826372 
L 234.773041 233.852039 
L 235.111599 233.09863 
L 235.450157 233.784137 
L 235.788715 233.171991 
L 236.127273 233.019236 
L 236.465831 232.655783 
L 236.804389 232.589784 
L 237.142947 233.486862 
L 237.481505 233.441451 
L 237.820063 233.691913 
L 238.158621 232.977222 
L 238.497179 231.682932 
L 238.835737 234.00107 
L 239.512853 233.620271 
L 239.851411 233.300071 
L 240.189969 234.149055 
L 240.528527 233.38846 
L 240.867085 233.575944 
L 241.205643 232.92211 
L 241.544201 233.69803 
L 241.882759 233.747915 
L 242.221317 234.161784 
L 242.559875 234.041731 
L 242.898433 233.664181 
L 243.236991 233.800091 
L 243.575549 233.527004 
L 243.914107 233.623036 
L 244.252665 234.012174 
L 244.591223 233.700175 
L 244.929781 233.633377 
L 245.268339 233.76517 
L 245.945455 233.314981 
L 246.284013 232.730344 
L 246.622571 233.698911 
L 247.299687 233.302172 
L 247.638245 233.520827 
L 247.976803 233.559594 
L 248.315361 233.324697 
L 248.653918 233.5652 
L 248.992476 232.780428 
L 249.331034 234.140432 
L 250.00815 233.434134 
L 250.346708 234.180745 
L 250.685266 234.242521 
L 251.362382 233.801344 
L 252.039498 233.77285 
L 252.378056 233.388582 
L 252.716614 234.060917 
L 253.39373 234.03885 
L 253.732288 234.084908 
L 254.409404 233.576361 
L 255.08652 234.037814 
L 255.425078 233.373559 
L 255.763636 233.949101 
L 256.102194 233.471759 
L 256.77931 234.227143 
L 257.117868 233.584015 
L 257.456426 234.206644 
L 257.794984 232.833682 
L 258.133542 234.014343 
L 258.4721 234.114336 
L 258.810658 233.159752 
L 259.149216 234.176243 
L 259.826332 233.562483 
L 260.16489 233.998331 
L 260.503448 234.158667 
L 260.842006 233.777972 
L 261.180564 234.104093 
L 261.85768 233.911264 
L 262.534796 234.447103 
L 262.873354 234.184856 
L 263.211912 234.436864 
L 263.889028 234.172092 
L 264.566144 234.426429 
L 264.904702 234.305238 
L 265.24326 234.337378 
L 265.920376 234.02684 
L 266.258934 234.306705 
L 266.597492 234.195059 
L 266.93605 233.864199 
L 267.274608 233.703152 
L 267.613166 234.286272 
L 267.951724 234.196334 
L 268.290282 234.311384 
L 268.62884 234.270299 
L 268.967398 233.852522 
L 269.644514 233.98513 
L 269.983072 234.302496 
L 270.32163 233.764799 
L 270.660188 233.745737 
L 270.998746 233.353144 
L 271.337304 234.44741 
L 272.01442 234.272066 
L 272.352978 234.555487 
L 273.030094 234.412209 
L 273.368652 234.057531 
L 273.70721 234.563268 
L 274.045768 234.539748 
L 275.061442 234.115514 
L 275.4 234.461331 
L 275.738558 233.831529 
L 276.077116 234.296876 
L 276.415674 233.741986 
L 276.754232 234.602995 
L 277.09279 234.706637 
L 277.769906 234.616866 
L 278.108464 233.191 
L 278.447022 234.579994 
L 278.78558 234.111597 
L 279.124138 234.350785 
L 279.462696 233.951516 
L 279.801254 234.028162 
L 280.139812 234.319739 
L 280.47837 234.095269 
L 280.816928 234.518078 
L 281.155486 234.128846 
L 281.494044 234.719349 
L 281.832602 234.494402 
L 282.509718 234.462138 
L 282.848276 233.668063 
L 283.186834 233.781012 
L 283.525392 234.354795 
L 284.541066 234.362952 
L 284.879624 234.617364 
L 285.55674 234.176794 
L 285.895298 234.756374 
L 286.233856 234.38172 
L 286.572414 234.203069 
L 286.910972 234.287958 
L 287.24953 234.606455 
L 287.588088 234.720707 
L 287.926646 234.639548 
L 288.265204 234.20662 
L 288.603762 234.400241 
L 288.94232 234.171948 
L 289.280878 234.557267 
L 289.619436 234.69959 
L 289.957994 234.296832 
L 290.296552 231.906282 
L 290.63511 234.856685 
L 290.973668 234.520917 
L 291.650784 234.379612 
L 291.989342 234.751339 
L 292.3279 233.90531 
L 292.666458 233.937468 
L 293.005016 234.530448 
L 293.343574 234.70947 
L 293.682132 234.58033 
L 294.02069 233.929978 
L 294.359248 234.305892 
L 294.697806 234.422318 
L 295.374922 234.404699 
L 295.71348 234.385358 
L 296.052038 234.862906 
L 296.390596 234.473942 
L 296.729154 234.348678 
L 297.067712 234.026295 
L 297.744828 234.910445 
L 298.083386 234.577443 
L 298.760502 234.839368 
L 299.09906 234.682504 
L 299.437618 234.923688 
L 299.776176 234.645519 
L 300.114734 234.777099 
L 300.79185 234.401272 
L 301.130408 233.628829 
L 301.468966 234.358731 
L 301.807524 234.557708 
L 302.146082 234.44669 
L 302.484639 234.651729 
L 302.823197 234.582006 
L 303.161755 234.807508 
L 303.500313 234.773439 
L 303.838871 234.28705 
L 304.177429 234.963471 
L 304.515987 235.221027 
L 304.854545 234.623939 
L 305.193103 234.56099 
L 305.531661 234.6648 
L 305.870219 234.512183 
L 306.208777 234.683537 
L 306.547335 235.001474 
L 306.885893 234.704392 
L 307.224451 234.968651 
L 307.563009 234.435601 
L 307.901567 235.023372 
L 308.240125 234.693599 
L 308.578683 235.267485 
L 308.917241 234.737683 
L 309.255799 234.775219 
L 309.594357 234.978819 
L 309.932915 234.630868 
L 310.271473 235.286192 
L 310.610031 234.899022 
L 310.948589 235.07146 
L 311.287147 235.025839 
L 311.625705 234.562888 
L 311.964263 234.720294 
L 312.302821 234.716309 
L 312.641379 235.103345 
L 312.979937 234.144819 
L 313.318495 235.133994 
L 313.657053 234.627436 
L 313.995611 235.255132 
L 314.334169 234.559644 
L 314.672727 235.125881 
L 315.011285 234.812229 
L 315.688401 235.164243 
L 316.026959 234.967518 
L 316.365517 234.418333 
L 317.042633 235.023617 
L 317.381191 232.625914 
L 317.719749 235.113906 
L 318.058307 234.290062 
L 318.396865 232.900012 
L 318.735423 234.479495 
L 319.412539 235.066558 
L 319.751097 234.329018 
L 320.089655 235.146366 
L 320.428213 235.295736 
L 320.766771 234.609873 
L 321.105329 234.250161 
L 321.443887 234.885438 
L 321.782445 234.635629 
L 322.121003 235.095522 
L 322.459561 234.561289 
L 322.798119 234.656014 
L 323.136677 234.294008 
L 323.475235 234.853029 
L 323.813793 234.711273 
L 324.490909 235.036896 
L 324.829467 234.452976 
L 325.168025 234.198593 
L 325.506583 234.574944 
L 325.845141 235.172389 
L 326.183699 234.782494 
L 326.522257 234.708459 
L 326.860815 235.00485 
L 327.199373 234.999261 
L 327.537931 235.146388 
L 327.876489 234.982792 
L 328.215047 234.666225 
L 328.553605 234.939127 
L 328.892163 234.953324 
L 329.230721 234.063585 
L 329.569279 234.989681 
L 330.246395 235.074198 
L 330.584953 234.676593 
L 330.923511 234.984497 
L 331.600627 234.983215 
L 331.939185 234.778297 
L 332.277743 235.076437 
L 332.616301 234.686246 
L 332.954859 235.00595 
L 333.631975 234.941386 
L 333.970533 235.203201 
L 334.309091 235.073808 
L 334.986207 234.989232 
L 335.324765 234.855104 
L 335.663323 235.292416 
L 336.001881 235.326152 
L 337.017555 234.906934 
L 337.356113 234.882972 
L 338.371787 235.138004 
L 338.710345 234.713725 
L 339.048903 234.497468 
L 339.387461 235.359356 
L 340.064577 234.637674 
L 340.403135 235.532838 
L 340.741693 234.881983 
L 341.080251 235.267569 
L 341.418809 235.162883 
L 341.757367 234.585753 
L 342.095925 235.170252 
L 342.434483 235.302544 
L 342.773041 234.956272 
L 343.111599 235.02924 
L 343.450157 234.791004 
L 343.788715 235.03099 
L 344.465831 234.843836 
L 344.804389 235.24816 
L 345.142947 234.891754 
L 345.481505 234.833008 
L 345.820063 234.476925 
L 346.158621 234.593607 
L 346.497179 234.489154 
L 346.835737 235.120745 
L 347.174295 235.021762 
L 347.512853 234.446916 
L 347.851411 234.882098 
L 348.189969 235.084322 
L 348.867085 234.278003 
L 349.205643 234.398384 
L 349.544201 234.718923 
L 349.882759 235.262899 
L 350.221317 234.95814 
L 350.559875 235.230037 
L 351.236991 234.801221 
L 351.575549 234.948712 
L 351.914107 235.292063 
L 352.252665 235.412702 
L 352.591223 234.934874 
L 352.929781 235.335831 
L 353.268339 235.395945 
L 353.606897 235.33154 
L 353.945455 234.512756 
L 354.284013 235.166171 
L 354.622571 235.237566 
L 355.299687 234.655691 
L 355.638245 234.875946 
L 356.315361 234.861023 
L 356.653918 235.14718 
L 356.992476 235.212367 
L 357.669592 235.060475 
L 358.00815 234.43095 
L 358.346708 235.081491 
L 358.685266 234.723909 
L 359.023824 234.876321 
L 359.362382 234.867117 
L 360.039498 235.198847 
L 360.378056 234.678044 
L 361.055172 234.793252 
L 361.39373 234.460513 
L 361.732288 235.056119 
L 362.409404 235.041981 
L 362.747962 235.214268 
L 363.08652 234.815941 
L 364.102194 235.049104 
L 364.440752 235.427289 
L 364.77931 235.066636 
L 365.117868 235.006926 
L 365.456426 235.355617 
L 366.133542 234.99039 
L 366.4721 235.271116 
L 367.149216 235.048642 
L 367.487774 234.909952 
L 367.826332 234.954076 
L 368.16489 235.571427 
L 368.503448 235.053144 
L 369.180564 235.016278 
L 369.519122 235.323451 
L 369.85768 234.904121 
L 370.196238 235.011602 
L 370.534796 234.159503 
L 370.873354 234.991297 
L 371.55047 235.25389 
L 371.889028 235.205737 
L 372.227586 234.962775 
L 372.566144 235.357289 
L 372.904702 234.573905 
L 373.24326 235.054449 
L 373.581818 235.122217 
L 373.581818 235.122217 
" style="fill:none;stroke:#1f77b4;stroke-linecap:square;stroke-width:1.5;"/>
   </g>
   <g id="line2d_22">
    <path clip-path="url(#pb6f8f5efe2)" d="M 69.218182 44.446344 
L 74.973668 44.499984 
L 79.036364 44.771276 
L 80.390596 45.022589 
L 81.067712 45.815609 
L 81.40627 45.756557 
L 81.744828 47.240036 
L 82.083386 47.179538 
L 82.421944 50.966124 
L 82.760502 56.439014 
L 83.09906 56.464019 
L 83.437618 67.957706 
L 83.776176 57.910497 
L 84.114734 75.949678 
L 84.453292 67.188207 
L 84.79185 75.953108 
L 85.130408 101.05405 
L 85.468966 106.682823 
L 85.807524 110.160661 
L 86.146082 135.734659 
L 86.484639 127.352031 
L 87.500313 161.969983 
L 87.838871 149.055568 
L 88.177429 159.379075 
L 88.515987 157.923347 
L 88.854545 171.495282 
L 89.193103 171.725948 
L 89.531661 169.265 
L 89.870219 169.775749 
L 90.208777 174.385444 
L 90.547335 183.256808 
L 90.885893 181.291253 
L 91.224451 184.429435 
L 91.563009 197.389267 
L 91.901567 200.62464 
L 92.240125 199.583944 
L 92.578683 196.087338 
L 92.917241 197.455586 
L 93.255799 203.475469 
L 93.594357 200.840544 
L 93.932915 195.820838 
L 94.271473 212.568876 
L 94.948589 174.568081 
L 95.287147 199.647216 
L 95.625705 196.301039 
L 95.964263 220.749118 
L 96.302821 196.462115 
L 96.641379 203.731436 
L 97.318495 190.293819 
L 97.657053 214.180286 
L 97.995611 212.382997 
L 98.334169 202.8257 
L 98.672727 187.65035 
L 99.011285 195.834116 
L 99.349843 212.344569 
L 99.688401 196.291516 
L 100.026959 204.812612 
L 100.365517 201.787121 
L 100.704075 209.537957 
L 101.042633 198.168794 
L 101.381191 204.966565 
L 101.719749 203.86147 
L 102.058307 199.067898 
L 102.396865 215.507418 
L 102.735423 209.24206 
L 103.073981 192.43787 
L 103.412539 199.926874 
L 103.751097 193.637788 
L 104.089655 199.473777 
L 104.428213 202.564122 
L 104.766771 214.986204 
L 105.443887 210.157243 
L 105.782445 215.443895 
L 106.121003 217.167183 
L 106.459561 223.834188 
L 106.798119 218.795883 
L 107.136677 221.997083 
L 107.475235 224.028043 
L 107.813793 214.257521 
L 108.152351 208.680405 
L 108.490909 219.086119 
L 108.829467 210.484514 
L 109.168025 208.076755 
L 109.506583 212.510104 
L 109.845141 220.917199 
L 110.183699 221.136609 
L 110.522257 218.396521 
L 111.199373 208.817506 
L 111.537931 209.541282 
L 111.876489 224.343862 
L 112.215047 217.390698 
L 112.553605 222.340465 
L 112.892163 223.213517 
L 113.230721 219.780648 
L 113.569279 224.611029 
L 113.907837 215.951201 
L 114.246395 226.118099 
L 114.584953 222.533834 
L 114.923511 211.461401 
L 115.262069 217.235083 
L 115.600627 208.556189 
L 115.939185 217.826404 
L 116.277743 218.815084 
L 116.616301 222.594547 
L 116.954859 224.538293 
L 117.293417 217.353327 
L 117.631975 227.782807 
L 117.970533 217.597454 
L 118.309091 218.089345 
L 118.647649 219.474235 
L 118.986207 228.769732 
L 119.663323 215.3036 
L 120.001881 226.097799 
L 120.340439 220.03361 
L 120.678997 231.87177 
L 121.017555 227.218203 
L 121.356113 215.220303 
L 121.694671 223.522884 
L 122.033229 218.494805 
L 122.371787 223.385039 
L 122.710345 223.041932 
L 123.048903 226.398691 
L 123.387461 224.752162 
L 123.726019 225.164455 
L 124.064577 231.153759 
L 124.403135 224.91982 
L 124.741693 222.131738 
L 125.080251 226.225932 
L 125.418809 224.398226 
L 125.757367 231.196295 
L 126.773041 221.734807 
L 127.111599 234.336212 
L 127.450157 233.570153 
L 127.788715 228.497038 
L 128.127273 231.727001 
L 128.804389 223.271316 
L 129.142947 229.179871 
L 129.481505 230.086762 
L 129.820063 227.773388 
L 130.158621 229.869138 
L 130.497179 228.361814 
L 130.835737 224.86231 
L 131.174295 228.156076 
L 131.512853 234.019395 
L 131.851411 216.376471 
L 132.189969 233.314618 
L 132.528527 225.838542 
L 132.867085 230.04786 
L 133.205643 228.196335 
L 133.544201 229.24267 
L 133.882759 211.662309 
L 134.221317 234.120513 
L 134.559875 232.911198 
L 134.898433 225.011408 
L 135.236991 230.654596 
L 135.575549 231.10713 
L 135.914107 230.836849 
L 136.591223 227.672818 
L 136.929781 227.140588 
L 137.268339 225.103259 
L 137.606897 237.917308 
L 137.945455 229.858914 
L 138.284013 231.946411 
L 138.622571 231.968906 
L 138.961129 229.374559 
L 139.299687 228.518218 
L 139.638245 228.288542 
L 139.976803 232.682003 
L 140.315361 229.208807 
L 140.653918 232.371374 
L 140.992476 230.176866 
L 141.331034 233.968274 
L 141.669592 233.855899 
L 142.00815 229.629234 
L 142.346708 231.410611 
L 142.685266 227.067462 
L 143.023824 231.414508 
L 143.362382 227.133548 
L 143.70094 227.771881 
L 144.039498 237.068925 
L 144.378056 234.291289 
L 144.716614 234.312148 
L 145.055172 236.84825 
L 145.39373 231.564525 
L 145.732288 234.135386 
L 146.070846 227.825517 
L 146.409404 230.587366 
L 146.747962 235.35762 
L 147.08652 231.570663 
L 147.763636 236.644498 
L 148.102194 234.30139 
L 148.440752 232.946012 
L 148.77931 230.562236 
L 149.456426 237.00152 
L 149.794984 231.910662 
L 150.133542 221.22736 
L 150.4721 235.297333 
L 150.810658 230.368546 
L 151.149216 227.460588 
L 151.487774 227.183011 
L 152.16489 233.695894 
L 152.503448 234.595714 
L 152.842006 229.469868 
L 153.180564 236.293458 
L 153.519122 238.493418 
L 153.85768 233.08245 
L 154.196238 233.546038 
L 154.534796 235.466985 
L 154.873354 235.341405 
L 155.211912 234.907372 
L 155.55047 233.004189 
L 155.889028 237.612041 
L 156.227586 233.993625 
L 156.904702 236.276783 
L 157.24326 227.032418 
L 157.581818 233.305839 
L 157.920376 235.602896 
L 158.258934 228.95355 
L 158.597492 232.162472 
L 158.93605 234.05268 
L 159.274608 227.677151 
L 159.951724 236.044807 
L 160.290282 237.444006 
L 160.62884 227.956156 
L 160.967398 235.109217 
L 161.305956 236.184359 
L 161.644514 234.451037 
L 161.983072 230.02097 
L 162.32163 230.57254 
L 162.660188 235.219076 
L 162.998746 235.779785 
L 163.675862 237.546295 
L 164.01442 234.053052 
L 164.352978 231.877507 
L 164.691536 236.910272 
L 165.030094 235.707879 
L 165.368652 238.316337 
L 165.70721 238.66282 
L 166.045768 233.774171 
L 166.384326 234.49895 
L 166.722884 234.525149 
L 167.061442 233.17033 
L 167.738558 235.908737 
L 168.077116 234.527521 
L 168.754232 235.442036 
L 169.09279 229.602269 
L 169.431348 234.801151 
L 169.769906 227.589702 
L 170.108464 234.727161 
L 170.447022 239.251014 
L 170.78558 237.161633 
L 171.124138 236.764154 
L 171.462696 235.430693 
L 171.801254 233.089855 
L 172.139812 235.568604 
L 172.47837 235.74071 
L 172.816928 231.474469 
L 173.155486 234.4384 
L 173.494044 235.928803 
L 173.832602 236.692336 
L 174.17116 230.991978 
L 174.509718 239.581227 
L 174.848276 231.990689 
L 175.186834 240.445046 
L 175.525392 230.69626 
L 175.86395 231.931937 
L 176.202508 239.453646 
L 176.541066 235.158201 
L 177.218182 237.360806 
L 177.55674 240.084416 
L 177.895298 229.53491 
L 178.233856 234.633228 
L 178.572414 230.573039 
L 178.910972 238.844716 
L 179.588088 230.091424 
L 179.926646 240.13787 
L 180.265204 237.466466 
L 180.603762 239.501159 
L 181.280878 234.305043 
L 181.619436 237.375786 
L 181.957994 237.202903 
L 182.296552 234.91347 
L 182.63511 229.229851 
L 182.973668 237.130712 
L 183.312226 240.860779 
L 183.650784 234.746865 
L 183.989342 236.630549 
L 184.3279 230.184047 
L 184.666458 232.038206 
L 185.005016 236.517739 
L 185.343574 233.729601 
L 185.682132 238.076281 
L 186.02069 238.159783 
L 186.359248 231.088383 
L 186.697806 238.28086 
L 187.036364 238.140149 
L 187.374922 234.703627 
L 187.71348 235.651181 
L 188.052038 237.202621 
L 188.390596 239.900438 
L 188.729154 239.633792 
L 189.40627 227.924672 
L 189.744828 239.206718 
L 190.083386 237.230864 
L 190.421944 231.329339 
L 190.760502 237.707437 
L 191.09906 239.239877 
L 191.776176 237.934025 
L 192.114734 238.006832 
L 192.453292 240.173084 
L 192.79185 226.355958 
L 193.130408 238.656724 
L 193.468966 236.074236 
L 193.807524 240.771671 
L 194.484639 236.569174 
L 194.823197 236.88582 
L 195.161755 236.433914 
L 195.500313 238.951464 
L 195.838871 237.368548 
L 196.177429 239.012573 
L 196.515987 240.033753 
L 196.854545 237.634046 
L 197.193103 237.925112 
L 197.531661 235.272403 
L 197.870219 238.794884 
L 198.208777 236.569121 
L 198.547335 239.319898 
L 198.885893 240.038593 
L 199.224451 234.765461 
L 199.563009 235.764637 
L 199.901567 239.231284 
L 200.240125 238.762049 
L 200.578683 237.542907 
L 200.917241 235.288461 
L 201.255799 235.705152 
L 201.932915 238.515314 
L 202.271473 239.058241 
L 202.610031 237.275434 
L 202.948589 239.386994 
L 203.287147 238.253181 
L 203.625705 237.691664 
L 203.964263 238.817089 
L 204.302821 239.467691 
L 204.641379 239.187131 
L 204.979937 236.749414 
L 205.318495 240.838474 
L 205.657053 239.670848 
L 205.995611 234.793991 
L 206.334169 238.078361 
L 206.672727 239.633439 
L 207.011285 239.294816 
L 207.349843 239.193212 
L 207.688401 235.341391 
L 208.026959 235.636164 
L 208.365517 240.43994 
L 208.704075 237.4791 
L 209.042633 238.2254 
L 209.381191 238.034086 
L 209.719749 236.525436 
L 210.735423 239.361752 
L 211.073981 234.248957 
L 211.412539 240.399502 
L 211.751097 240.669768 
L 212.089655 234.799586 
L 212.428213 239.51491 
L 212.766771 228.100551 
L 213.105329 240.153731 
L 213.443887 232.141818 
L 213.782445 239.286999 
L 214.121003 235.537629 
L 214.459561 238.839086 
L 214.798119 238.795907 
L 215.136677 239.001243 
L 215.475235 239.572942 
L 215.813793 239.866472 
L 216.490909 239.714389 
L 216.829467 234.32573 
L 217.168025 236.257213 
L 217.845141 238.216705 
L 218.183699 236.951113 
L 218.522257 240.007716 
L 218.860815 238.018902 
L 219.199373 240.390465 
L 219.537931 238.867825 
L 219.876489 238.938279 
L 220.215047 239.752945 
L 221.230721 240.146556 
L 221.569279 237.088456 
L 221.907837 240.524725 
L 222.584953 236.094514 
L 222.923511 240.104011 
L 223.262069 236.603942 
L 223.600627 238.048142 
L 223.939185 240.182513 
L 224.616301 236.712118 
L 224.954859 240.135197 
L 225.293417 233.952986 
L 225.631975 239.888184 
L 225.970533 233.33981 
L 226.309091 238.60822 
L 226.647649 237.170732 
L 226.986207 237.372258 
L 227.324765 240.999991 
L 227.663323 238.093807 
L 228.001881 239.872278 
L 228.340439 239.046964 
L 228.678997 236.729717 
L 229.017555 240.852843 
L 230.033229 238.892123 
L 230.371787 235.751007 
L 230.710345 239.549741 
L 231.048903 237.592905 
L 231.387461 239.03027 
L 231.726019 239.700921 
L 232.064577 236.930733 
L 232.403135 238.460915 
L 232.741693 236.255509 
L 233.080251 235.570775 
L 233.418809 239.181821 
L 233.757367 238.902282 
L 234.095925 235.208681 
L 234.773041 240.445319 
L 235.111599 236.851406 
L 235.450157 237.404268 
L 235.788715 239.278057 
L 236.127273 238.721137 
L 236.465831 238.81704 
L 236.804389 240.559276 
L 237.142947 239.22553 
L 237.481505 238.79452 
L 237.820063 240.780551 
L 238.158621 239.592642 
L 238.497179 238.817296 
L 238.835737 238.829721 
L 239.512853 236.51625 
L 239.851411 240.261954 
L 240.189969 241.518773 
L 240.528527 234.723273 
L 240.867085 238.917976 
L 241.205643 232.93532 
L 241.544201 240.298832 
L 241.882759 239.531189 
L 242.221317 237.309382 
L 242.559875 239.09033 
L 242.898433 238.699935 
L 243.236991 239.514658 
L 243.575549 240.742601 
L 243.914107 239.904752 
L 244.252665 240.01145 
L 244.591223 235.989872 
L 244.929781 234.244504 
L 245.268339 241.40467 
L 245.606897 238.036032 
L 245.945455 240.477531 
L 246.284013 239.634749 
L 246.622571 234.759055 
L 246.961129 239.310671 
L 247.299687 240.471962 
L 247.638245 238.589513 
L 247.976803 240.213071 
L 248.315361 240.335045 
L 248.653918 237.945504 
L 248.992476 232.985942 
L 249.331034 240.699312 
L 250.346708 240.854557 
L 250.685266 238.337405 
L 251.023824 239.6511 
L 251.362382 239.824939 
L 251.70094 239.505684 
L 252.039498 236.715176 
L 252.378056 237.359658 
L 252.716614 232.647596 
L 253.055172 238.806249 
L 253.39373 240.462184 
L 253.732288 240.923442 
L 254.070846 240.676833 
L 254.409404 239.005418 
L 254.747962 240.537093 
L 255.08652 237.222421 
L 255.763636 241.004167 
L 256.102194 239.533155 
L 256.440752 241.124689 
L 257.117868 240.449362 
L 257.456426 240.70846 
L 257.794984 238.001282 
L 258.133542 239.175832 
L 258.4721 241.127007 
L 258.810658 237.147768 
L 259.149216 239.464149 
L 259.487774 238.041871 
L 259.826332 240.795672 
L 260.16489 235.144319 
L 260.503448 239.855297 
L 260.842006 238.602257 
L 261.180564 240.910361 
L 261.519122 241.606306 
L 262.196238 237.907579 
L 262.534796 241.989382 
L 262.873354 240.373236 
L 263.211912 233.693733 
L 263.55047 238.594553 
L 263.889028 238.504482 
L 264.227586 240.085644 
L 264.566144 237.037614 
L 264.904702 241.142987 
L 265.24326 239.894028 
L 265.581818 241.29696 
L 265.920376 240.184463 
L 266.258934 241.065351 
L 266.597492 239.264053 
L 266.93605 238.556768 
L 267.274608 240.180342 
L 267.613166 240.38188 
L 267.951724 241.253182 
L 268.62884 239.766406 
L 268.967398 241.168418 
L 269.305956 235.909018 
L 269.644514 239.021493 
L 269.983072 239.710525 
L 270.32163 241.11591 
L 270.660188 239.806758 
L 270.998746 239.786656 
L 271.675862 240.904924 
L 272.01442 240.939115 
L 272.691536 238.533248 
L 273.030094 240.29646 
L 273.368652 234.288677 
L 273.70721 240.505037 
L 274.045768 241.045402 
L 274.384326 239.688639 
L 274.722884 241.343397 
L 275.061442 240.886842 
L 275.4 240.033646 
L 275.738558 234.152657 
L 276.077116 241.116337 
L 276.415674 238.605638 
L 276.754232 239.258449 
L 277.09279 239.468989 
L 277.431348 241.51651 
L 277.769906 238.548143 
L 278.108464 240.308244 
L 278.447022 240.996121 
L 278.78558 241.349575 
L 279.124138 240.554257 
L 279.462696 240.31662 
L 279.801254 241.480199 
L 280.139812 240.831806 
L 280.47837 238.412223 
L 280.816928 239.405925 
L 281.155486 239.835835 
L 281.494044 238.307828 
L 281.832602 240.118778 
L 282.17116 239.350496 
L 282.509718 241.616628 
L 282.848276 240.067658 
L 283.186834 240.197953 
L 283.525392 240.635396 
L 283.86395 240.467811 
L 284.202508 239.846624 
L 284.541066 240.757334 
L 284.879624 240.441763 
L 285.218182 241.164096 
L 285.55674 240.507342 
L 285.895298 241.268202 
L 286.233856 240.126734 
L 286.572414 240.761386 
L 286.910972 239.101017 
L 287.24953 239.194058 
L 287.588088 241.317165 
L 287.926646 240.544497 
L 288.265204 240.739543 
L 288.603762 238.825863 
L 288.94232 239.613956 
L 289.280878 239.92131 
L 289.957994 233.547299 
L 290.296552 239.809601 
L 290.63511 239.806405 
L 290.973668 240.540432 
L 291.312226 240.526332 
L 291.650784 236.529772 
L 291.989342 237.283852 
L 292.3279 239.627905 
L 292.666458 240.891353 
L 293.005016 239.799823 
L 293.343574 239.947109 
L 293.682132 241.407542 
L 294.02069 240.973024 
L 294.359248 235.98847 
L 295.036364 241.659818 
L 295.374922 241.144697 
L 295.71348 241.370911 
L 296.390596 241.005733 
L 296.729154 241.509631 
L 297.067712 240.91662 
L 297.40627 236.662285 
L 297.744828 240.47169 
L 298.083386 238.692369 
L 298.421944 240.534133 
L 298.760502 240.677078 
L 299.09906 241.209557 
L 299.437618 241.331872 
L 299.776176 238.115494 
L 300.114734 241.276694 
L 300.453292 239.571116 
L 300.79185 241.593397 
L 301.468966 236.93268 
L 301.807524 236.5742 
L 302.146082 241.378224 
L 302.484639 240.383935 
L 302.823197 240.7078 
L 303.161755 241.449979 
L 303.500313 239.520885 
L 303.838871 240.492903 
L 304.515987 239.628839 
L 304.854545 237.354506 
L 305.193103 241.617514 
L 305.531661 240.744046 
L 305.870219 241.819794 
L 306.208777 235.895094 
L 306.547335 241.471617 
L 306.885893 239.984019 
L 307.224451 240.248124 
L 307.563009 240.351034 
L 307.901567 239.983072 
L 308.240125 239.125517 
L 308.578683 239.10957 
L 308.917241 238.467503 
L 309.255799 241.108813 
L 309.594357 240.77952 
L 309.932915 241.650354 
L 310.271473 239.32487 
L 310.610031 240.185926 
L 310.948589 240.254612 
L 311.287147 238.257586 
L 311.625705 240.452067 
L 311.964263 240.625727 
L 312.302821 240.44758 
L 312.641379 241.016512 
L 312.979937 239.358933 
L 313.318495 241.307968 
L 313.657053 240.835886 
L 313.995611 234.795578 
L 314.334169 235.56596 
L 314.672727 240.425823 
L 315.011285 241.130922 
L 315.688401 241.546258 
L 316.026959 240.803989 
L 316.365517 241.196294 
L 316.704075 240.649924 
L 317.042633 240.710491 
L 317.381191 237.236222 
L 317.719749 239.625183 
L 318.058307 238.313982 
L 318.396865 241.133741 
L 318.735423 240.394835 
L 319.073981 241.687265 
L 319.412539 241.088259 
L 320.089655 240.743562 
L 320.428213 241.434821 
L 320.766771 240.996578 
L 321.105329 240.966038 
L 321.443887 241.266806 
L 321.782445 239.881134 
L 322.121003 241.21109 
L 322.459561 241.04674 
L 322.798119 240.150391 
L 323.136677 241.226477 
L 323.475235 240.913893 
L 323.813793 239.307935 
L 324.152351 240.873345 
L 324.829467 240.735241 
L 325.168025 239.876676 
L 325.506583 234.379901 
L 326.183699 241.269684 
L 326.522257 241.19708 
L 326.860815 240.959185 
L 327.199373 241.874776 
L 327.537931 241.519478 
L 327.876489 239.670907 
L 328.215047 241.374552 
L 328.553605 241.425495 
L 328.892163 240.942427 
L 329.230721 239.587489 
L 329.569279 240.682715 
L 329.907837 240.601344 
L 330.246395 241.431744 
L 330.584953 240.96621 
L 331.262069 241.49343 
L 331.600627 240.658477 
L 332.277743 241.651606 
L 332.616301 241.767833 
L 332.954859 240.856456 
L 333.293417 241.432826 
L 333.631975 241.201228 
L 333.970533 240.327328 
L 334.309091 240.756844 
L 334.647649 240.960562 
L 334.986207 240.779714 
L 335.324765 241.136207 
L 335.663323 241.296446 
L 336.001881 241.015203 
L 336.678997 241.569313 
L 337.017555 241.640102 
L 337.694671 240.865746 
L 338.033229 235.577267 
L 338.371787 241.542147 
L 338.710345 240.315395 
L 339.048903 238.570338 
L 339.387461 241.24867 
L 339.726019 241.655866 
L 340.064577 241.113994 
L 340.403135 241.554378 
L 340.741693 239.102258 
L 341.080251 240.976497 
L 341.418809 233.989069 
L 341.757367 240.401492 
L 342.095925 238.306356 
L 342.434483 241.600554 
L 342.773041 240.141646 
L 343.111599 241.80361 
L 343.450157 239.815269 
L 343.788715 241.140703 
L 344.127273 241.293159 
L 344.465831 241.145836 
L 344.804389 241.54327 
L 345.142947 240.842546 
L 345.481505 240.906588 
L 345.820063 241.801945 
L 346.497179 240.723403 
L 346.835737 241.312487 
L 347.174295 241.367496 
L 347.512853 240.882047 
L 348.189969 241.974688 
L 348.528527 241.199576 
L 348.867085 240.706591 
L 349.205643 241.593797 
L 349.544201 241.361751 
L 349.882759 240.272274 
L 350.221317 240.295988 
L 350.559875 241.473832 
L 350.898433 240.86424 
L 351.236991 241.094844 
L 351.575549 240.584181 
L 351.914107 240.966338 
L 352.252665 239.841063 
L 352.591223 240.272684 
L 352.929781 241.361912 
L 353.268339 241.622841 
L 353.606897 241.460753 
L 353.945455 240.638101 
L 354.284013 241.570684 
L 354.622571 239.887712 
L 354.961129 241.580742 
L 355.299687 236.791271 
L 355.638245 241.363653 
L 355.976803 241.034198 
L 356.315361 241.922858 
L 356.653918 241.392151 
L 356.992476 234.04564 
L 357.331034 240.418083 
L 357.669592 240.897982 
L 358.00815 240.712225 
L 358.346708 240.68292 
L 358.685266 241.633326 
L 359.023824 238.738807 
L 359.362382 239.359094 
L 359.70094 240.299989 
L 360.039498 241.78894 
L 360.378056 241.54008 
L 360.716614 240.859082 
L 361.055172 238.147667 
L 361.39373 241.662295 
L 362.747962 241.104742 
L 363.08652 241.216094 
L 363.425078 241.008765 
L 363.763636 241.126283 
L 364.102194 241.713858 
L 364.440752 241.532022 
L 364.77931 240.998521 
L 365.117868 240.896348 
L 365.456426 241.632216 
L 365.794984 241.846124 
L 366.133542 241.329311 
L 366.4721 239.748626 
L 366.810658 241.47933 
L 367.149216 241.622626 
L 367.487774 240.967584 
L 367.826332 241.762502 
L 368.503448 240.313897 
L 368.842006 241.505924 
L 369.180564 241.509919 
L 369.519122 242.0815 
L 369.85768 242.116364 
L 370.196238 241.232743 
L 370.534796 234.088218 
L 370.873354 241.059773 
L 371.211912 239.109618 
L 371.55047 241.346488 
L 372.227586 239.268367 
L 372.904702 240.868347 
L 373.24326 241.40521 
L 373.581818 241.52023 
L 373.581818 241.52023 
" style="fill:none;stroke:#ff7f0e;stroke-linecap:square;stroke-width:1.5;"/>
   </g>
   <g id="patch_3">
    <path d="M 54 252 
L 54 34.56 
" style="fill:none;stroke:#000000;stroke-linecap:square;stroke-linejoin:miter;stroke-width:0.8;"/>
   </g>
   <g id="patch_4">
    <path d="M 388.8 252 
L 388.8 34.56 
" style="fill:none;stroke:#000000;stroke-linecap:square;stroke-linejoin:miter;stroke-width:0.8;"/>
   </g>
   <g id="patch_5">
    <path d="M 54 252 
L 388.8 252 
" style="fill:none;stroke:#000000;stroke-linecap:square;stroke-linejoin:miter;stroke-width:0.8;"/>
   </g>
   <g id="patch_6">
    <path d="M 54 34.56 
L 388.8 34.56 
" style="fill:none;stroke:#000000;stroke-linecap:square;stroke-linejoin:miter;stroke-width:0.8;"/>
   </g>
   <g id="text_13">
    <!-- Model cost -->
    <g transform="translate(178.23875 28.56)scale(0.16 -0.16)">
     <defs>
      <path d="M 628 4666 
L 1569 4666 
L 2759 1491 
L 3956 4666 
L 4897 4666 
L 4897 0 
L 4281 0 
L 4281 4097 
L 3078 897 
L 2444 897 
L 1241 4097 
L 1241 0 
L 628 0 
L 628 4666 
z
" id="DejaVuSans-4d" transform="scale(0.015625)"/>
      <path d="M 2906 2969 
L 2906 4863 
L 3481 4863 
L 3481 0 
L 2906 0 
L 2906 525 
Q 2725 213 2448 61 
Q 2172 -91 1784 -91 
Q 1150 -91 751 415 
Q 353 922 353 1747 
Q 353 2572 751 3078 
Q 1150 3584 1784 3584 
Q 2172 3584 2448 3432 
Q 2725 3281 2906 2969 
z
M 947 1747 
Q 947 1113 1208 752 
Q 1469 391 1925 391 
Q 2381 391 2643 752 
Q 2906 1113 2906 1747 
Q 2906 2381 2643 2742 
Q 2381 3103 1925 3103 
Q 1469 3103 1208 2742 
Q 947 2381 947 1747 
z
" id="DejaVuSans-64" transform="scale(0.015625)"/>
      <path d="M 3122 3366 
L 3122 2828 
Q 2878 2963 2633 3030 
Q 2388 3097 2138 3097 
Q 1578 3097 1268 2742 
Q 959 2388 959 1747 
Q 959 1106 1268 751 
Q 1578 397 2138 397 
Q 2388 397 2633 464 
Q 2878 531 3122 666 
L 3122 134 
Q 2881 22 2623 -34 
Q 2366 -91 2075 -91 
Q 1284 -91 818 406 
Q 353 903 353 1747 
Q 353 2603 823 3093 
Q 1294 3584 2113 3584 
Q 2378 3584 2631 3529 
Q 2884 3475 3122 3366 
z
" id="DejaVuSans-63" transform="scale(0.015625)"/>
     </defs>
     <use xlink:href="#DejaVuSans-4d"/>
     <use x="86.279297" xlink:href="#DejaVuSans-6f"/>
     <use x="147.460938" xlink:href="#DejaVuSans-64"/>
     <use x="210.9375" xlink:href="#DejaVuSans-65"/>
     <use x="272.460938" xlink:href="#DejaVuSans-6c"/>
     <use x="300.244141" xlink:href="#DejaVuSans-20"/>
     <use x="332.03125" xlink:href="#DejaVuSans-63"/>
     <use x="387.011719" xlink:href="#DejaVuSans-6f"/>
     <use x="448.193359" xlink:href="#DejaVuSans-73"/>
     <use x="500.292969" xlink:href="#DejaVuSans-74"/>
    </g>
   </g>
   <g id="legend_1">
    <g id="patch_7">
     <path d="M 259.778125 71.91625 
L 381.8 71.91625 
Q 383.8 71.91625 383.8 69.91625 
L 383.8 41.56 
Q 383.8 39.56 381.8 39.56 
L 259.778125 39.56 
Q 257.778125 39.56 257.778125 41.56 
L 257.778125 69.91625 
Q 257.778125 71.91625 259.778125 71.91625 
z
" style="fill:#ffffff;opacity:0.8;stroke:#cccccc;stroke-linejoin:miter;"/>
    </g>
    <g id="line2d_23">
     <path d="M 261.778125 47.658437 
L 281.778125 47.658437 
" style="fill:none;stroke:#1f77b4;stroke-linecap:square;stroke-width:1.5;"/>
    </g>
    <g id="line2d_24"/>
    <g id="text_14">
     <!-- Cost on test data -->
     <g transform="translate(289.778125 51.158437)scale(0.1 -0.1)">
      <use xlink:href="#DejaVuSans-43"/>
      <use x="69.824219" xlink:href="#DejaVuSans-6f"/>
      <use x="131.005859" xlink:href="#DejaVuSans-73"/>
      <use x="183.105469" xlink:href="#DejaVuSans-74"/>
      <use x="222.314453" xlink:href="#DejaVuSans-20"/>
      <use x="254.101562" xlink:href="#DejaVuSans-6f"/>
      <use x="315.283203" xlink:href="#DejaVuSans-6e"/>
      <use x="378.662109" xlink:href="#DejaVuSans-20"/>
      <use x="410.449219" xlink:href="#DejaVuSans-74"/>
      <use x="449.658203" xlink:href="#DejaVuSans-65"/>
      <use x="511.181641" xlink:href="#DejaVuSans-73"/>
      <use x="563.28125" xlink:href="#DejaVuSans-74"/>
      <use x="602.490234" xlink:href="#DejaVuSans-20"/>
      <use x="634.277344" xlink:href="#DejaVuSans-64"/>
      <use x="697.753906" xlink:href="#DejaVuSans-61"/>
      <use x="759.033203" xlink:href="#DejaVuSans-74"/>
      <use x="798.242188" xlink:href="#DejaVuSans-61"/>
     </g>
    </g>
    <g id="line2d_25">
     <path d="M 261.778125 62.336562 
L 281.778125 62.336562 
" style="fill:none;stroke:#ff7f0e;stroke-linecap:square;stroke-width:1.5;"/>
    </g>
    <g id="line2d_26"/>
    <g id="text_15">
     <!-- Cost on train data -->
     <g transform="translate(289.778125 65.836562)scale(0.1 -0.1)">
      <use xlink:href="#DejaVuSans-43"/>
      <use x="69.824219" xlink:href="#DejaVuSans-6f"/>
      <use x="131.005859" xlink:href="#DejaVuSans-73"/>
      <use x="183.105469" xlink:href="#DejaVuSans-74"/>
      <use x="222.314453" xlink:href="#DejaVuSans-20"/>
      <use x="254.101562" xlink:href="#DejaVuSans-6f"/>
      <use x="315.283203" xlink:href="#DejaVuSans-6e"/>
      <use x="378.662109" xlink:href="#DejaVuSans-20"/>
      <use x="410.449219" xlink:href="#DejaVuSans-74"/>
      <use x="449.658203" xlink:href="#DejaVuSans-72"/>
      <use x="490.771484" xlink:href="#DejaVuSans-61"/>
      <use x="552.050781" xlink:href="#DejaVuSans-69"/>
      <use x="579.833984" xlink:href="#DejaVuSans-6e"/>
      <use x="643.212891" xlink:href="#DejaVuSans-20"/>
      <use x="675" xlink:href="#DejaVuSans-64"/>
      <use x="738.476562" xlink:href="#DejaVuSans-61"/>
      <use x="799.755859" xlink:href="#DejaVuSans-74"/>
      <use x="838.964844" xlink:href="#DejaVuSans-61"/>
     </g>
    </g>
   </g>
  </g>
 </g>
 <defs>
  <clipPath id="pb6f8f5efe2">
   <rect height="217.44" width="334.8" x="54" y="34.56"/>
  </clipPath>
 </defs>
</svg>
